<?xml version="1.0" standalone="no"?>
<!DOCTYPE svg PUBLIC "-//W3C//DTD SVG 1.1//EN" "http://www.w3.org/Graphics/SVG/1.1/DTD/svg11.dtd" >
<svg xmlns="http://www.w3.org/2000/svg" xmlns:xlink="http://www.w3.org/1999/xlink" version="1.1">
<metadata>
Created by FontForge 20170731 at Wed Jan 21 19:22:10 2015
 By Aleksey,,,
Typeface (c) DLEDesign. 2015. All Rights Reserved
</metadata>
<defs>
<font id="AdigianaUltra" horiz-adv-x="1146" >
  <font-face 
    font-family="Adigiana Ultra"
    font-weight="400"
    font-stretch="normal"
    units-per-em="2048"
    panose-1="2 0 5 0 0 0 0 0 0 0"
    ascent="1638"
    descent="-410"
    x-height="773"
    cap-height="1322"
    bbox="-788.444 -427.127 2028.74 2002"
    underline-thickness="150"
    underline-position="-442"
    unicode-range="U+0020-201E"
  />
<missing-glyph horiz-adv-x="1024" 
 />
    <glyph glyph-name=".notdef" horiz-adv-x="1024" 
 />
    <glyph glyph-name=".null" horiz-adv-x="0" 
 />
    <glyph glyph-name="nonmarkingreturn" horiz-adv-x="508" 
 />
    <glyph glyph-name="space" unicode=" " horiz-adv-x="508" 
 />
    <glyph glyph-name="space" unicode="&#xa0;" horiz-adv-x="508" 
 />
    <glyph glyph-name="exclam" unicode="!" horiz-adv-x="595" 
d="M567 114q0 -55 -65 -88q-56 -29 -138 -29q-96 0 -153 37q-51 33 -51 79q0 50 57 84q55 35 146 35q94 0 152 -39q52 -35 52 -79zM506 392q5 -13 8 -27q3 -13 -1 -22q-4 -10 -16 -16q-12 -9 -34 -13q-44 -10 -100 -9t-103 9q-51 7 -87 53q-23 25 -41 61q-15 25 -31 64
q-10 27 -22 67l-10 32t-9 32q-8 29 -14 63q-4 14 -7 30l-6 32q-3 18 -8 62q-5 30 -7 62q-7 56 -11 112t7 111q10 56 41 90q18 23 81 37q54 11 121 8q66 -3 111 -17q50 -16 54 -41v-24q-2 -7 -7 -28q-21 -85 -9 -193.5t22 -199.5q8 -84 26 -168t52 -167z" />
    <glyph glyph-name="quotedbl" unicode="&#x22;" horiz-adv-x="509" 
d="M484 1368q-12 -145 -39 -260q-4 -14 -20 -14q-55 -9 -90 9q-26 13 -27 24q-11 54 -22.5 109.5t-15.5 111.5q-3 27 21 35q93 25 167 21q28 -2 26 -36zM215 1085q-17 -7 -24 -8t-19 -4q-10 -3 -24 -6q-44 -6 -53 8.5t-25 49.5q-6 12 -11.5 24.5t-11.5 26.5
q-6 13 -11.5 26.5t-10.5 27.5q-6 14 -10 21t-9 21q-14 46 32 55q37 7 66 17.5t67 14.5q38 3 47 -29q15 -55 12 -105.5t4 -107.5q2 -22 -19 -32z" />
    <glyph glyph-name="numbersign" unicode="#" horiz-adv-x="1125" 
d="M244 910q-2 11 -2 30q0 12 3 23q2 12 8 18q9 9 17 14q42 20 93 -2q23 -9 36 -58q7 -28 13 -66q3 -25 8 -71q0 -4 0.5 -8t0.5 -8h66q17 0 34 -0.5t34 -0.5q10 -1 20 -1.5t20 -0.5q0 102 -8 193q-2 11 -2 30q0 12 3 24q2 11 8 18q9 9 17 13q41 20 94 -1q22 -10 35 -59
q7 -28 13 -66q3 -25 8 -71q3 -47 4 -71q0 -5 0.5 -9.5t0.5 -8.5q44 -4 95 -12q60 -10 98 -27q26 -12 38 -40t8 -56q-3 -31 -19 -50q-18 -21 -45 -21q3 0 -27 3q-24 4 -29 5q-53 9 -116 15v-2v-2q0 -17 -0.5 -34t-0.5 -33q-2 -46 -3 -68v-17q39 -3 79 -6t79 -10
q60 -10 98 -27q26 -12 38 -40q12 -27 9 -57q-4 -30 -19 -50q-18 -20 -45 -20q-13 0 -27 2l-30 6q-43 8 -93 12.5t-102 8.5q-3 -28 -6 -43q-10 -61 -27 -97q-12 -27 -40 -39q-26 -12 -56 -8q-31 2 -50 19q-21 19 -21 45q0 12 3 27q4 24 6 29q4 27 10 74q-18 0 -49 2
q-27 1 -53 1.5t-53 1.5q-2 -30 -5 -59.5t-8 -57.5q-10 -62 -27 -98q-12 -27 -40 -38q-22 -10 -56 -9q-32 3 -50 19q-21 19 -21 46q0 12 3 27q4 23 5 29q12 66 17 138q-52 -4 -75 -6q-11 -1 -29 -1q-13 0 -24 3q-11 2 -18 9q-10 7 -13 16q-22 41 1 93q9 22 59 36q27 7 65 13
q21 3 43 5q0 31 1 61t3 58q1 40 1 59q-89 -3 -151 -9q-11 -1 -30 -1q-13 0 -23 3q-13 2 -18 9q-10 7 -14 16q-20 41 1 94q9 22 59 35q27 7 66 13q23 3 70 8q10 0 20.5 1t20.5 2q-1 32 -3 66t-4 67zM428 604v-8v-7q0 -45 -1 -67v-34v-34q-1 -5 -1 -16q14 0 27.5 0.5t28.5 0.5
q45 0 68 -1h17h19q1 42 2.5 82.5t3.5 78.5q-34 1 -67.5 1.5t-62.5 2.5q-12 1 -34 1z" />
    <glyph glyph-name="dollar" unicode="$" horiz-adv-x="1069" 
d="M817 1076q6 15 9 22q6 14 14 30q12 16 17 21q6 8 17 13q36 16 55 -26q7 -19 -13 -86q-5 -19 -12 -39q2 -3 5 -7q21 -28 33 -76t-20 -76l-4 -4q-28 -21 -78 -9q-16 -39 -28 -67q-16 -39 -38 -91q-2 -6 -4 -11.5t-5 -10.5q18 -11 37 -21.5t37 -21.5q101 -61 140.5 -145
t0.5 -189q-40 -105 -144 -177q-68 -48 -165 -68.5t-201 -15.5q-1 -1 -1 -1.5v-0.5q-39 -71 -72 -119q-22 -30 -46 -40q-23 -8 -38 3q-16 13 -19 39q-2 32 14 64q3 9 7 17t9 17q5 8 10 17.5t11 19.5q-47 10 -80 20q-35 -59 -67 -98q-24 -27 -54 -30q-28 -3 -50 15
q-24 20 -30 49q-7 32 8 68q6 14 16 32l10 18t11 18q-46 29 -80 66q-1 2 -2.5 3t-1.5 4q-2 0 -3.5 2t-1.5 3q-18 21 -20 45v3v4q1 31 3.5 75t14.5 72q13 32 38.5 20.5t42.5 -26.5q2 -3 4 -4t4 -3q45 -38 104 -67q20 43 40.5 86.5t40.5 88.5q-54 31 -105 67.5t-79 79.5
q-67 100 -40 200.5t119 174.5q161 132 375 121q2 7 5 13.5t6 13.5q8 18 14 29q9 12 18 20q10 6 21 9q44 6 74 -47q10 -19 3 -63q43 -13 77 -26q12 -5 37 -17zM666 718q34 74 66 150q-67 16 -103 6q-15 -38 -25 -65q-3 -7 -5.5 -14t-5.5 -14q10 -17 30 -32q14 -12 43 -31z
M376 279q35 1 74 23.5t18 61.5q-2 1 -3 3t-2 5q-11 13 -30 32q-4 -8 -7.5 -16.5t-6.5 -15.5q-11 -24 -21.5 -47.5t-21.5 -45.5z" />
    <glyph glyph-name="percent" unicode="%" horiz-adv-x="1475" 
d="M1391 442q15 -126 -61 -231q-77 -108 -196 -119q-119 -14 -211 72q-94 86 -108 219q-15 129 62 231q76 100 201 115q136 15 234 -119q71 -96 79 -168zM895 915l-51 -130l-51 -130l-51 -130l-50 -129l-52 -131l-51 -130q-20 -51 -27 -92t-61 -31l-12 3l-11 2
q-58 11 -34.5 58.5t38.5 97.5l40 149l40 149l40 149l40 149l41 149l40 149q20 73 22 118t64 -12l23 -21l23 -22l22 -21l23 -21q53 -50 38 -75.5t-43 -97.5zM586 871q14 -126 -62 -233q-76 -106 -197 -119q-116 -14 -210 72q-92 86 -108 220q-13 128 62 229q76 100 200 114
q137 16 235 -115q72 -98 80 -168zM1257 395q-4 34 -22 60q-35 41 -94 35q-58 -7 -91 -39q-35 -32 -29 -74q5 -44 51 -70q48 -28 85 -21q51 6 79 39q25 31 21 70zM379 852q-8 66 -39 104q-32 37 -79 32q-55 -7 -88 -51q-34 -46 -27 -101q6 -61 53 -98q50 -41 88 -33
q50 9 75 53q22 41 17 94z" />
    <glyph glyph-name="ampersand" unicode="&#x26;" horiz-adv-x="871" 
d="M437 14q-139 -21 -272 54q-26 14 -45 29q-31 20 -59 48.5t-45 62.5q-9 19 -13 42q-3 22 -1 42q9 93 64 119t125 44q17 4 29 8q5 1 10 2.5t9 3.5q-12 9 -22 18.5t-19 18.5q-54 49 -77.5 99t22.5 109q10 13 25 26q32 26 74.5 40.5t85.5 23.5q33 6 55 9l6 24l12 48
q13 42 59 33l20 -3l21 -4q27 -5 29 -24.5t-2 -37.5l-3 -15l-3 -14q18 0 51 -2q16 0 47 -4q17 -2 44 -6q68 -13 88 -87q7 -25 12 -51q2 -6 2 -8q4 -23 -17.5 -25.5t-33.5 0.5q-8 0 -16.5 2t-16.5 3q-9 1 -17 2.5t-15 3.5q-9 2 -17.5 3t-16.5 4q-11 0 -46 5q-42 4 -96 0
t-73 -45q-6 -12 -7 -24q-3 -27 31 -37q8 -3 25 -6q39 -6 78 -3t76 8q37 3 71 11q49 9 44 -27q-1 -3 -1 -4v-3q-4 -21 -5.5 -42.5t-3.5 -41.5q-4 -21 -2 -14q-3 -32 -27.5 -30.5t-53.5 1.5q-54 0 -113 -10t-104 -33q-26 -14 -41 -29q-22 -21 -36 -64t10 -79q10 -21 20 -23
q59 -16 111.5 12t94.5 67t73.5 74t49.5 34q34 -2 16 -1t-14 2q3 0 70.5 -46t66.5 -74q0 -9 -4 -22q-28 -81 -165.5 -132t-223.5 -65z" />
    <glyph glyph-name="quotesingle" unicode="'" horiz-adv-x="258" 
d="M219 1332q9 -146 -4 -262q-2 -13 -18 -17q-53 -15 -91 -2q-27 8 -30 20q-18 53 -36.5 106t-28.5 108q-7 27 16 37q90 37 162 43q29 1 30 -33z" />
    <glyph glyph-name="parenleft" unicode="(" horiz-adv-x="424" 
d="M0 574q0 44 6 87q5 44 17 91t29 96q18 52 41 101q7 16 15 32t15 32q7 14 15 28t15 28q8 12 15.5 25t15.5 25q25 37 46 64.5t61 -35.5q2 -5 5 -10l6 -10q-2 3 14 -21q10 -17 14 -24q48 -80 32.5 -109t-55.5 -118q-5 -9 -8.5 -18t-6.5 -16q-8 -16 -13 -31q-13 -37 -18 -55
q-10 -38 -13 -52q-4 -21 -8 -52q-2 -26 -2 -50q0 -18 4 -41q1 -13 9 -41q8 -23 19 -43q10 -24 24 -42q-1 1 11 -16q11 -17 20 -29q13 -17 30 -42q30 -43 40 -67t-29 -73q-10 -13 -22 -27q-11 -15 -25 -32q-7 -9 -14.5 -18t-14.5 -18q-2 -1 -5 -7q-2 -2 -12 -14q1 1 -19 -23
q-34 -40 -46 -36.5t-50 55.5q-9 11 -31 48q-13 19 -30 57q-18 34 -29 66q-16 37 -30 84q-15 51 -21 84q-8 37 -13 84q-4 46 -4 83z" />
    <glyph glyph-name="parenright" unicode=")" horiz-adv-x="475" 
d="M418 596q0 -45 -6 -86q-7 -45 -17 -91q-16 -57 -29 -96q-23 -60 -41 -101q-20 -44 -30 -64q-8 -15 -15.5 -29t-15.5 -27q-19 -34 -31 -50q-24 -37 -45.5 -64.5t-60.5 35.5q-4 6 -12 19q-3 5 -6.5 10.5t-6.5 11.5q-5 8 -15 23q-48 80 -33 109t56 118q6 12 16 35
q6 15 12 31q10 24 18 54q8 24 13 53q7 37 8 51q3 25 3 50q0 22 -3 41q-3 14 -11 42q-8 22 -18 43q-10 18 -25 42q-3 5 -10 16q-12 17 -20 28q-7 9 -14.5 19t-15.5 22q-31 44 -41 68.5t29 73.5q10 12 22 27q8 10 26 31q11 17 29 36l1.5 2t3.5 5q3 4 12 15q4 4 8.5 9.5
t10.5 12.5q33 41 45 37t50 -55q16 -22 32 -48q14 -25 30 -57q15 -31 29 -67q14 -37 30 -84q14 -49 20 -84q10 -49 13 -83q5 -35 5 -84z" />
    <glyph glyph-name="asterisk" unicode="*" horiz-adv-x="648" 
d="M569 1058q-8 -40 -41.5 -38t-68.5 8l-74 12l54 -61q35 -40 50.5 -56.5t-38.5 -42.5q-48 -25 -62.5 -9.5t-38.5 64.5l-34 67l-4 -76q-3 -35 -9.5 -65t-44.5 -28q-46 3 -43.5 34.5t5.5 68.5l7 76l-58 -60q-23 -25 -45.5 -50t-48.5 7q-76 48 -20.5 83.5t104.5 62.5l-67 5
q-36 2 -63.5 10.5t-22.5 50.5q5 41 37 43.5t72 -1.5l76 -8l-61 63q-40 40 -56.5 60t32.5 47q45 23 68 0t50 -63l49 -71l5 77q2 44 8 71.5t51 25.5q41 -3 41 -33.5t-5 -71.5l-7 -75l68 60q29 25 59.5 47t56.5 -19q69 -66 -16 -100.5t-138 -54.5l83 -5q42 -2 71 -4t19 -51z
" />
    <glyph glyph-name="plus" unicode="+" horiz-adv-x="980" 
d="M324 836q-4 16 -4 27q-1 12 3 22q1 9 12 18q8 7 25 14q63 23 144 8q34 -6 59 -51q15 -27 24 -59q10 -33 17 -65q5 -22 11 -66q1 -10 2 -19t3 -18q76 9 137 7q57 -4 97 -22q27 -14 48 -54q20 -38 26 -83q7 -49 -1 -80q-9 -36 -34 -40q-7 -1 -25 -1q-9 0 -29 2q-46 4 -98 1
t-105 -11q0 -56 -2 -111.5t-12 -109.5q-14 -60 -35 -93q-19 -26 -61 -40q-41 -12 -87 -12q-50 0 -78 12q-34 13 -35 40q0 10 2 24q2 9 7 29q12 47 16 103.5t5 114.5q-132 -24 -239 -64q-14 -6 -26 -8q-15 -4 -22 -1q-10 1 -20 10q-9 7 -17 23q-32 57 -30 141q1 35 42 65
q22 16 55 33q22 10 62 26l63 21q28 8 63 17q14 4 30 7.5t30 7.5q2 1 5 1q-5 129 -28 234z" />
    <glyph glyph-name="comma" unicode="," horiz-adv-x="325" 
d="M310 24q0 -87 -90 -161q-45 -37 -123.5 -65.5t-43.5 59.5q14 39 14 77l-1 18q-27 5 -44 32q-17 25 -17 63q0 53 43 91q45 37 106 37q65 0 107 -37q49 -43 49 -114z" />
    <glyph glyph-name="hyphen" unicode="-" horiz-adv-x="1002" 
d="M94 437q-21 -4 -28 -4q-12 0 -23 4q-11 5 -17 16q-7 10 -13 30q-10 37 -9 83t9 84q8 41 55 64q26 13 61 25q23 6 67 15q20 3 68 9q17 0 33 2t33 3q42 3 64 3q21 1 64 1q21 0 64 -2q21 -1 63 -4q58 -3 115 -8t114 -22t93 -46q24 -23 36 -73q12 -44 9 -101q-3 -55 -17 -88
q-16 -40 -42 -38q-10 0 -25 4q-9 2 -29 9q-87 30 -198 36t-205 12q-86 4 -172 2.5t-170 -16.5z" />
    <glyph glyph-name="hyphen" unicode="&#xad;" horiz-adv-x="1002" 
d="M94 437q-21 -4 -28 -4q-12 0 -23 4q-11 5 -17 16q-7 10 -13 30q-10 37 -9 83t9 84q8 41 55 64q26 13 61 25q23 6 67 15q20 3 68 9q17 0 33 2t33 3q42 3 64 3q21 1 64 1q21 0 64 -2q21 -1 63 -4q58 -3 115 -8t114 -22t93 -46q24 -23 36 -73q12 -44 9 -101q-3 -55 -17 -88
q-16 -40 -42 -38q-10 0 -25 4q-9 2 -29 9q-87 30 -198 36t-205 12q-86 4 -172 2.5t-170 -16.5z" />
    <glyph glyph-name="period" unicode="." horiz-adv-x="316" 
d="M301 136q0 -62 -48 -102q-42 -34 -102 -34q-72 0 -113 43q-38 38 -38 92q0 59 42 98q41 41 107 41q71 0 114 -46q38 -42 38 -92z" />
    <glyph glyph-name="slash" unicode="/" horiz-adv-x="895" 
d="M632 1093q12 24 18 34q11 17 19 25q9 10 23 15q16 4 30 4q65 -3 112 -61q20 -26 3 -90q-8 -29 -29 -83q-11 -28 -39 -85q-21 -43 -43 -84q-12 -21 -23 -41l-22 -40q-12 -19 -23 -38.5t-21 -38.5q-13 -19 -24.5 -38t-22.5 -38q-22 -36 -48 -75q-19 -30 -50 -76
q-44 -67 -89.5 -133.5t-96.5 -126.5q-57 -64 -99 -93q-33 -22 -77 -18q-38 4 -73 27q-36 23 -48 54q-13 35 6 65q6 9 21 28q16 19 27 31q84 93 169.5 223t157.5 239q66 100 128 203t114 211z" />
    <glyph glyph-name="zero" unicode="0" horiz-adv-x="1165" 
d="M208 223q-44 55 -82 114.5t-61 125.5q-13 32 -20 58q-54 177 -22 353q29 155 125 260q47 52 123.5 89.5t149.5 41.5q47 2 95 -8.5t92 -25.5q68 -25 133.5 -61t118.5 -85q59 -55 106 -130t78 -146q45 -106 56.5 -222t-28.5 -227q-40 -109 -126 -193q-64 -64 -143.5 -107
t-171.5 -43q-93 0 -189 39q-145 57 -234 167zM490 323q88 -57 229 18t138 246q-3 111 -54 166.5t-123 70.5q-82 14 -156.5 -40.5t-112.5 -137t-25.5 -174t104.5 -149.5z" />
    <glyph glyph-name="one" unicode="1" horiz-adv-x="425" 
d="M348 1205q-30 -237 -21.5 -520.5t63.5 -500.5q6 -23 12.5 -48t8.5 -48q0 -45 -35.5 -63.5t-83 -21t-94 7t-65.5 22.5q-35 23 -53 69t-28 90q-20 84 -31 214.5t-12.5 269t5.5 266.5t23 207q15 73 35 114q18 35 43 47q29 15 69.5 17.5t72.5 -1.5q46 -5 72.5 -28.5
t18.5 -92.5z" />
    <glyph glyph-name="two" unicode="2" horiz-adv-x="1157" 
d="M1068 223q7 -37 2 -91t-21 -89q-7 -15 -24 -31l-2 -1v-1v-1q-1 0 -1.5 -0.5l-0.5 -0.5l-2 -1q-1 0 -1 -0.5v-0.5l-2 -2q-2 0 -2 -2h-0.5h-0.5q-50 -1 -194 7t-303.5 26.5t-296.5 47t-171 68.5q-74 83 -28.5 225.5t99.5 222.5q30 44 75.5 74t95.5 50q65 24 204 51.5
t191 72.5q31 27 26 65.5t-46 54.5q-25 9 -59 11q-31 0 -64 -2q-29 -2 -132 -11.5t-129 4.5q-10 5 -21 16l-0.5 0.5t-0.5 1.5l-0.5 0.5l-0.5 0.5q-1 1 -1 2v0v0q-27 36 -6 84.5t50 74.5q0 1 1 3l2 1l1 0.5t2 0.5q0 2 1 2q14 12 31 22q44 25 109 39q84 15 165 12
q82 -4 155 -28q75 -25 140 -71q98 -72 146.5 -144.5t0.5 -196.5q-21 -54 -64 -98q-32 -33 -76 -60q-36 -23 -83 -40q-29 -11 -88 -27q-134 -20 -163 -28q-48 -13 -82 -26q-44 -18 -75 -37q-37 -27 -61 -57q-33 -44 -45.5 -83t45.5 -56q28 -9 85 -19q54 -10 109 -16t185 -5
q78 -8 142.5 -3.5t143.5 18.5q4 1 9 1q6 0 9 -1q5 -1 8 -3l5 -6q4 -4 5 -9q2 -4 4 -11z" />
    <glyph glyph-name="three" unicode="3" horiz-adv-x="1173" 
d="M106 1146l1 1l2 1l1 1l1 1l1 1l1 1l2 1h1l1 1l1 1l2 1v1l2 1h1l2 1v1l2 1l1 1h1l2 1l1 1l2 1v1l2 1h1l1 1l1 1l2 1l1 1h1l1 1l2 1l1 1l1 1l2 1h1h1l1 1l2 1l1 1l1 1h2l1 1l1 1h1l2 1l1 1l1 1h2l1 1l1 1h2l1 1l1 1h1l2 1h1l1 1l2 1l1 1l2 1v0h2l2 1v1l2 1h1l2 1h1l1 1h2
l5 4l6 2l6 3l6 2l5 2l6 3l6 2l5 3l7 2l5 2l7 2l5 3l6 2l6 2l5 2l6 2l7 2l5 2l6 2l6 1l6 3l5 1l7 2l6 2l5 1l6 2l7 2l5 1l6 1l6 2l6 1l6 1l6 2l6 1l6 1l6 1l6 1l5 2h7l6 1l5 1l6 1l7 1h5l6 1h7l5 1l6 1h6l7 1h5l6 1h7h5h6h6h6h6h6h6h6h6h6h5h7l6 -1h5l7 -1h6l5 -1l6 -1h6
l6 -1h6l6 -1l6 -1l5 -2h6l7 -1l5 -1l6 -2l6 -1l5 -1l6 -1l6 -2l7 -1l5 -1l6 -2l6 -1l5 -2l6 -2l6 -1l6 -2l5 -2l6 -2l6 -2l6 -2l5 -3l6 -1l6 -3l6 -1l4 -3l6 -2l6 -3l6 -2l5 -3l6 -2l5 -2l6 -3l5 -3l6 -3l5 -3l6 -2l6 -4l5 -3l5 -2l6 -4l6 -3l5 -3l5 -4l5 -3l6 -3l5 -4l6 -3
l5 -4l5 -4l5 -3l6 -4h1l1 -1v-1l2 -1h1l1 -1h1v-1l1 -1l1 -1l1 -1h1h1l1 -1l1 -1l1 -1l1 -1v0l1 -1h1l1 -1l1 -1l1 -1l1 -1h1l1 -1l1 -1v0l1 -1l1 -1l1 -1h1v-1l2 -1l1 -1h1l1 -1v0l1 -1l1 -1l1 -1l1 -1v-1h1h1l1 -1l1 -1l1 -1v-1h1l1 -1l1 -1l1 -1v-1l1 -1h1h1l1 -1l1 -1
v-1l1 -1h1l1 -1l1 -1l1 -2l3 -1l1 -3l2 -1l3 -2l1 -2l2 -2l1 -2l3 -1l2 -2l1 -3l2 -1l1 -2l3 -2l2 -2l1 -2l2 -2l1 -2l2 -2l2 -2l1 -1l2 -3l2 -1l1 -3l2 -2l2 -2l1 -2l2 -2l1 -2l2 -2l2 -2l1 -2l1 -3l2 -1l1 -3l2 -2l2 -2l1 -2l1 -2l2 -3l2 -1v-3l2 -2l2 -2v-2l2 -3l1 -1
l2 -3v-2l2 -3l2 -1v-3l2 -2l1 -3l2 -1v-3l1 -2l2 -3l1 -2v-2l2 -2l1 -3l1 -2l1 -3l1 -2l1 -3l1 -1l1 -3l1 -2l1 -3l1 -2l1 -2l1 -3v-2l1 -3l1 -2l1 -3l1 -2v-3l1 -2l1 -3l1 -2v-2l1 -3l1 -2v-3l1 -2v-3l1 -2l1 -3v-2l1 -3v-2v-3l1 -2v-3l1 -3v-2v-3l1 -2v-3l1 -2v-3v-3l1 -2
v-3v-2v-3v-3v-2v-3v-2v-3v-3v-2v-3v-2v-3v-3v-3v-2v-3v-3v-2l-1 -3v-2v-3l-1 -3v-2l-1 -3v-1v-3l-1 -2v-2v-2l-1 -3v-1v-3v-2l-1 -2v-2l-1 -2v-3l-1 -1l-1 -2v-2v-2l-1 -2v-2l-1 -2l-1 -1v-3l-1 -1l-1 -2v-2v-2l-1 -2l-1 -1l-1 -2l-1 -2v-1v-2l-1 -2l-1 -1l-1 -2l-1 -2
l-1 -1v-2l-1 -1l-1 -2l-1 -2l-1 -1l-1 -2l-1 -2l-1 -1l-1 -1l-1 -2v-1l-2 -2l-1 -1l-1 -1v-2l-2 -1l-1 -2l-1 -1l-1 -1l-1 -2l-1 -1l-2 -1v-2l-1 -1l-2 -1l-1 -1l-1 -2h-1l-2 -2l-1 -1v-2h-2l-1 -2l-2 -1l-1 -2h-1l-2 -1l-1 -2l-1 -1h-1l-2 -2l-1 -1l-1 -1l-2 -1l-1 -1
l-1 -1l-2 -2h-1l-1 -1l-2 -1l-2 -2v-1h-2l-2 -2l-1 -1l-1 -1h-2l-1 -2l-1 -1l-2 -1l-1 -1l-2 -1l-2 -1l-1 -1l-2 -1l-1 -1l-1 -1l-2 -1l-2 -2h-1l-2 -1l-2 -1l-1 -2h-2l-2 -2l-1 -1l-2 -1l-1 -1l-2 -1l-2 -1l-1 -2h-2l-2 -1l-1 -2l-4 -2l-1 -1l-3 -2l-1 -1h-1l-2 -1l-1 -1
l-1 -1l-1 -1l-2 -1h-1h-1h-1l-2 -1v0l-1 -1h-2v-1v0l1 -1h1l1 -1v0v-1l1 -1l1 -1l1 -1v0l1 -1v-1l1 -1l1 -1l1 -1l2 -3l3 -3l2 -3l3 -4l2 -3l3 -4l2 -3l3 -4l2 -3l3 -4l2 -3l2 -3l2 -5l2 -3l2 -4l2 -3l1 -4l3 -4l2 -4l1 -4l2 -4l1 -4l2 -3l2 -4l1 -4l1 -5l2 -4l1 -4l1 -4
l1 -4l1 -4l1 -4l1 -1v-1v-1v0v-1v-1v-1v-1h1v-1v-1v-2v-1h1v-1v-1v-1v-1v-1h1v-1v-1v-1v-1v0l1 -2v-1v-1v-1v0v-1v-1v-3v-4v-2l1 -3v-4v-3v-2v-4v-3l1 -2v-4l-1 -3v-3v-3v-3v-3v-3l-1 -3v-2v-4v-3v-2l-1 -4v-3l-1 -2v-4l-1 -2v-3l-1 -3v-3l-1 -3l-1 -3v-3l-1 -3l-1 -3l-1 -2
v-4l-1 -2l-1 -2l-1 -4l-1 -2v-3l-1 -3l-2 -3l-1 -3l-1 -2v-3l-2 -3l-1 -3l-1 -3l-1 -2l-1 -3l-2 -3l-1 -2l-1 -4l-1 -2l-2 -2v-3l-2 -2l-2 -4l-1 -2l-1 -3l-2 -2l-1 -2l-1 -4l-2 -2l-2 -3l-1 -2l-2 -3l-1 -2l-1 -2l-2 -4l-2 -2l-1 -3l-2 -2l-2 -3l-1 -2l-2 -3l-1 -2l-2 -2
l-3 -3l-1 -2l-2 -3l-1 -1l-2 -3l-2 -2l-2 -3l-2 -2l-1 -3l-2 -2l-3 -3l-1 -1l-2 -3l-2 -2l-2 -3l-2 -1l-2 -3l-2 -2l-2 -3l-2 -2l-2 -2l-2 -2l-2 -3l-2 -1l-2 -3l-2 -2l-2 -2l-2 -2l-3 -2l-1 -2l-3 -2l-1 -3l-3 -1l-2 -3l-2 -1l-2 -3l-3 -1l-1 -3l-3 -1l-2 -3l-2 -2l-2 -1
l-3 -3l-2 -1l-2 -2l-2 -2l-2 -2l-3 -2l-3 -2l-3 -3l-3 -3l-3 -2l-3 -3l-3 -2l-4 -2l-3 -3l-3 -2l-4 -2l-3 -3l-3 -2l-3 -2l-4 -2l-2 -3l-4 -2l-3 -2l-3 -2l-4 -2l-2 -2l-5 -2l-2 -2l-4 -2l-3 -3l-4 -1l-3 -2l-3 -2l-3 -2l-5 -2l-3 -2l-3 -2l-3 -1l-4 -2l-4 -2l-3 -1l-3 -2
l-4 -1l-4 -2l-3 -2l-3 -1l-4 -2l-4 -2l-3 -1l-4 -2l-3 -2h-4l-4 -2l-3 -2l-4 -1l-3 -1l-4 -2l-4 -1l-3 -1l-4 -1l-3 -2l-4 -1l-4 -1l-4 -1l-3 -2h-4l-3 -1l-5 -2l-3 -1l-4 -1h-3l-4 -1l-4 -2l-4 -1h-4l-3 -1l-4 -1l-4 -1l-4 -1l-4 -1h-4l-3 -1l-4 -1h-3l-4 -1l-5 -1h-3h-4
l-4 -1l-4 -1h-3l-4 -1l-5 -1h-3l-4 -1h-4h-3h-4l-5 -1h-4h-4l-3 -1h-7h-9h-7h-8h-7h-9h-7h-8h-8h-8h-8l-8 1h-8l-8 1h-8l-8 1l-8 1l-9 1l-7 2h-8l-8 2l-8 1l-8 1l-8 2l-7 2l-9 1l-7 2l-8 2l-8 2l-7 2l-7 2l-8 3h-1h-1h-2l-1 1h-1l-1 1h-2v1h-2l-1 1h-2v1h-1h-2h-1l-1 1h-1
l-2 1h-1l-1 1l-1 1h-2l-1 1h-1h-1l-2 1v0l-2 1h-1l-1 1l-1 1h-2l-3 1l-4 3l-4 1l-5 2l-4 2l-4 2l-3 3l-4 1l-4 3l-3 2l-5 3l-3 2l-4 2l-3 3l-3 2l-4 3l-4 3l-3 3l-3 2l-4 3l-3 3l-3 3l-3 3l-3 4l-3 3l-3 3l-3 3l-2 4l-3 4l-2 3l-4 4l-2 4l-1 1l-1 2l-1 1v1l-1 2l-1 1l-1 1v2
l-1 1v1l-1 2l-1 1l-1 1l-1 2l-1 2v1l-1 1v2l-1 1l-1 2l-1 1v2v1l-1 2l-1 1l-1 1v2l-1 2l-1 1v2v1l-1 2v1l-1 2v1l-1 2l-1 2v1l-1 2v1v2v2v1l-1 2v2l-1 1v2v2v1l-1 2v1v2v2v1l-1 2v2v1v2v2v1v2v1v2l1 3v1v2v1l1 2v2v1l1 2v2v1l1 2v2v1l1 3v1l1 2l1 2l1 1l1 2v2v1l1 2l1 1l1 2
l1 2l1 1l1 2l1 2h1l1 3l1 1l2 1l1 2v0h1v1v0v0v1v0v0v0h1v0v0v1h1v0v0v1v0h1v0v1v0v0h1v1v0v0l1 1l12 10l11 9l11 8l10 8l11 6l11 6l10 6l10 4l10 3l10 3l10 1l10 2h9l9 -1l9 -1l9 -2l8 -3l7 -3l8 -4l6 -4l7 -5l5 -5l6 -6l5 -5l4 -7l4 -6l4 -6l3 -7l3 -6l3 -7l1 -7l2 -6
l1 -3v-2l1 -2h1l1 -2l2 -1l2 -2h2l3 -2l4 -1l4 -1h4l6 -1h5l6 -1h6h6h7l7 1l6 1h8h7l7 1l7 1l7 2h8l6 1l8 1l6 1l8 1l6 1h6l4 1h3l4 1h3l3 1h3l4 1l3 1h3h4l3 1l3 1l3 1l4 1h3l3 1l3 1l3 1l3 1l3 1h4l2 1l3 1l4 1l2 1l3 1l4 1l2 1l3 2h3l3 1l3 2l5 1l5 3l4 2l5 3l5 1l5 3
l5 3l4 3l5 2l5 3l4 3l5 3l4 3l4 4l5 2l4 3l4 4l4 4l4 3l4 3l3 4l3 4l4 4l3 4l3 3l3 4l4 4l2 4l3 5l2 4l3 5l2 4l2 6l3 7l2 6l2 6l2 7v6l1 6v6v6l-1 6v6l-1 5l-2 6l-1 6l-2 5l-3 6l-2 5l-3 5l-4 6l-3 5l-4 5l-4 5l-4 5l-5 4l-5 5l-5 4l-5 5l-5 4l-6 5l-7 3l-6 4l-6 3l-3 2
l-2 1l-2 1l-3 1l-2 1l-3 2h-2l-2 2l-3 1l-3 1l-2 1l-3 1l-2 1l-3 1l-3 1h-2l-3 1l-3 1l-2 1l-3 2h-3h-3l-3 1l-2 1l-4 1l-2 1h-3h-3l-3 1l-3 1l-3 1h-3l-3 1l-3 1h-2h-4h-2h-2l-4 1h-2h-3h-2l-3 1h-2h-2h-2h-3h-2h-2h-3h-2h-3h-3h-3h-2l-3 -1h-3h-3l-3 -1h-3h-3h-3h-4l-5 -1
h-5l-7 1l-6 1l-4 2l-6 1l-4 3l-5 2l-4 4l-4 3l-5 3l-3 3l-3 5l-3 3l-4 4l-2 4l-3 5l-3 5l-1 4l-2 6l-2 5l-1 5v7l1 6l3 7l2 6l4 6l5 5l7 5l5 3l8 4l6 1l7 2l4 1h3l4 1h4l3 1h4l3 1l4 1l4 1h4l3 1h4l4 1l4 1l4 1l4 1h3l4 1l3 1l5 1l3 1l4 1l3 1l3 1l5 1l3 1h3l3 2l3 1l3 1
l3 1l3 1l2 1l4 2h2l3 2l3 1l2 2l3 1l3 1l2 2h3l2 2l3 2l2 1l4 1l2 2l2 1l3 1l2 2l2 2l2 1l3 2l2 1l3 2l1 2l3 1l2 1l2 2l2 2l3 1l2 2l1 1l3 3l1 2l3 1l1 2l2 1l2 2l2 2l2 1l1 2l2 2l2 2l1 2l2 1l2 3l1 1l2 2l2 2l1 1l2 3l1 1l1 2l1 2l2 2l1 2l1 1l2 3l1 2v1l2 3l1 1l1 2l1 2
v2l4 7l2 6l3 7l1 6l2 6l1 7v5v7v6v5l-1 6l-1 6l-2 6l-1 5l-2 6l-2 5l-3 6l-3 5l-3 5l-4 5l-4 5l-4 5l-4 5l-5 5l-5 5l-5 4l-5 5l-5 4l-6 4l-7 4l-5 3l-7 4l-2 1l-3 2l-2 1l-3 1l-2 1l-3 1l-2 1l-3 1l-2 1l-3 1l-2 2l-2 1h-3l-3 1l-3 1l-2 1l-3 1l-3 1l-2 1l-3 1l-3 1h-2
l-4 1h-2l-3 1l-3 1l-3 1l-3 1h-3h-3l-3 1h-3l-6 2l-6 1l-6 1h-6h-6l-6 1h-7l-5 1h-7h-6h-6h-6l-6 -1h-6h-7l-5 -1h-7l-6 -1l-6 -1l-6 -1l-7 -1l-5 -1l-6 -1l-7 -1l-5 -2l-6 -1l-7 -2l-5 -2l-6 -1l-6 -3l-6 -1l-5 -2l-3 -1l-2 -1l-3 -1l-2 -1l-3 -1l-2 -1l-2 -1l-3 -1l-2 -2
l-3 -1h-2l-3 -2l-2 -1l-3 -1l-2 -1l-2 -2l-2 -1l-3 -1l-2 -1l-2 -2l-2 -1l-3 -1l-1 -1l-3 -2l-1 -1l-3 -1l-2 -2l-2 -1l-2 -1l-2 -2l-2 -2h-2l-3 -2l-2 -2l-2 -1l-2 -2l-3 -2l-2 -1l-3 -2l-1 -2l-3 -1l-1 -1l-3 -2l-1 -1l-2 -2l-2 -1l-2 -1l-2 -2l-1 -1l-1 -1l-2 -1l-2 -2
v-1l-1 -1l-1 -1l-1 -1l-1 -2v0v-1l-1 -1v-1l-1 -1v0v-1l-2 -9l-1 -7l-3 -7l-1 -8l-3 -6l-2 -7l-2 -6l-2 -6l-4 -6l-3 -6l-3 -4l-4 -5l-4 -5l-5 -4l-4 -4l-5 -4l-6 -3l-5 -3l-7 -2l-5 -2h-6l-6 -1l-6 -1h-6l-6 -1l-6 1h-6h-7l-6 1l-7 1h-7l-8 1v0v0h-1h-1v0h-1h-1v0h-1v0
l-1 1h-1h-1v0h-1v0l-4 1l-4 1l-4 1l-3 1l-3 2l-4 1l-4 1l-3 2l-3 2l-4 1l-2 3l-3 1l-4 3l-2 1l-3 3l-3 2l-2 3l-3 2l-2 3l-3 3l-2 2l-2 4l-2 2l-2 3l-1 3l-2 3l-2 3l-1 4l-2 3l-1 3l-1 3l-1 4l-1 2v2l-1 2v1l-1 3l-1 1v2v2v2v2v1l-1 3v1v2v2l-1 2v2v1v3v1v2v2v2v2v1v3v2v1
l1 2v2v2v2v1l1 3v1v2v2v2v2l1 1v2l1 2v2l1 2v1v3l1 1v2l1 2v1v2l1 2v2l1 2v1l1 2l1 2v1v2l1 2l1 1v3h1l1 2v2l1 2v2l1 1l1 1v3l1 1l1 1v2l1 1l1 2v2l1 1l1 1l1 2v1l1 2l1 2l1 1l1 1v2l1 2h1l1 2l1 2h1v2l1 2v1l1 1l1 2l1 1h1v0v0v1v0v0l1 1v0v1v0h1v1v0v1h1v0v0h1v1v0v0v1v0
v1v0h1v1v0h1v0v0l1 1l1 1l1 2v1l1 1l1 1l1 1l1 1l1 1l1 2l1 1l1 1l1 1l1 1l1 2h1l1 2l1 1l1 1l1 1l1 1l1 1l1 2h1l1 1l1 2l1 1l1 1l1 1l2 1v1l1 1l2 1l1 1v1l2 1l1 1l1 1l1 1l1 1l2 1l1 1v1l2 1l1 1l1 1l1 1l1 1l2 1l1 1l1 1l1 1l1 1l2 1v1h2l1 1z" />
    <glyph glyph-name="four" unicode="4" horiz-adv-x="1050" 
d="M638 167q-95 -7 -195.5 -3.5t-179.5 17.5q-6 1 -13 2.5t-12 2.5q-29 1 -54 9q-29 8 -50 38q-28 37 -50 101q-26 71 -46 187.5t-25 161.5t-5.5 166t14.5 201q6 41 21.5 85.5t52.5 70.5q20 14 70.5 28t73 15t63.5 -12.5t44 -53.5q1 -22 -4 -45.5t-9 -44.5
q-35 -173 -33.5 -304t40.5 -366q109 -1 250 12q-19 325 -19 347q-2 58 78.5 62t110.5 -17q28 -17 72 -368q24 8 48 18q17 6 36.5 13.5t38.5 9.5q71 8 69.5 -78.5t-19.5 -125.5q-17 -35 -53 -55t-70 -32q-5 -2 -9 -3.5t-9 -2.5q0 -79 -8 -98.5t-17 -37.5q-5 -11 -34.5 -25
t-39.5 -20q-42 -16 -72 -14.5t-56 159.5z" />
    <glyph glyph-name="five" unicode="5" horiz-adv-x="1022" 
d="M757 702q204 -86 237.5 -199.5t-5.5 -225.5q-40 -112 -144 -189q-68 -52 -165 -73.5t-201 -16.5q-1 -1 -1 -2v-1q-130 9 -124 20q-47 10 -80 21l-156 78q-46 30 -80 70q-1 2 -2.5 3t-1.5 4q-2 1 -3.5 2.5t-1.5 3.5q-18 22 -20 48v7q1 34 3.5 80.5t14.5 77.5
q13 35 38.5 22t42.5 -29q2 -2 4 -3.5t4 -3.5q43 -40 98 -68q123 -63 286 -54t153 157t-306 136.5t-295 106.5q-2 103 10.5 207.5t17 195t141 113t491.5 -15.5q43 -14 77 -28q12 -6 37 -18q23 -15 55 -30q39 -19 32 -40q2 -3 5 -8q21 -28 27.5 -61.5t-25.5 -63.5q-3 -4 -4 -5
q-28 -21 -78 -9q-55 16 -107 27l-58 16q-44 5 -287 32q-12 -95 -31 -214q295 -7 402 -70z" />
    <glyph glyph-name="six" unicode="6" horiz-adv-x="1181" 
d="M29 483q15 57 50 160t77 211.5t87.5 201.5t82.5 129q8 9 21 16q39 23 106 28.5t107 5.5q10 0 23 -1q11 -4 15 -7q6 -5 6 -15q0 -9 -5 -25q-23 -66 -45 -138.5t-19 -135.5q1 -41 19 -56q8 -9 17 -12q7 -5 17 -8q11 -1 16 -1q110 8 210 -18q88 -24 200.5 -117.5
t92.5 -216.5q-9 -51 -37 -106q-28 -52 -69 -102t-86 -88q-96 -80 -214 -126q-110 -42 -233 -54q-255 -21 -381.5 103.5t-57.5 371.5zM676 278q12 4 26 11q90 49 113 130q10 36 3 69t-28 57q-34 40 -99 49.5t-123 9.5q-66 -2 -114 -33q-19 -15 -34 -29q-30 -31 -51 -103.5
t-12 -104.5q10 -41 46 -62q13 -7 26 -9q119 -32 247 15z" />
    <glyph glyph-name="seven" unicode="7" horiz-adv-x="1001" 
d="M860 1257q33 -4 49 -11q26 -11 37 -41q14 -39 12 -105q1 -73 -20.5 -193t-54.5 -249.5t-75 -252.5t-84 -203q-20 -41 -50.5 -85t-75.5 -69q-24 -13 -59.5 -22t-87.5 -9.5t-87 15.5t-25 57q7 22 20 45.5t24 45.5q93 172 160 389t114 474q-117 10 -247.5 -2.5t-266.5 -54.5
q-19 -5 -40.5 -12.5t-41.5 -8.5q-71 -3 -42 86.5t60 128.5q29 34 71 52.5t78 28.5q146 40 319 36.5t291 -34.5q6 -1 11.5 -2.5t10.5 -3.5z" />
    <glyph glyph-name="eight" unicode="8" horiz-adv-x="1219" 
d="M1095 481q33 -120 18 -217q-16 -93 -76 -155q-59 -61 -156 -88q-94 -24 -225 -14q-19 1 -59 6q-18 3 -58 12q-23 4 -58 15q-29 8 -57 20q-121 46 -215 127q-47 39 -86 87q-42 48 -69 102q-30 55 -37 107q-16 98 58.5 179.5t158.5 123.5q-21 60 -36 116q-55 197 46 296.5
t304 81.5q101 -9 186 -42q97 -39 171 -101q37 -33 69 -70q188 -229 -92 -340q11 -33 97.5 -87.5t115.5 -158.5zM677 1071q-105 38 -202 12q-11 -3 -21 -8q-31 -18 -39 -51q-6 -26 10.5 -85.5t41.5 -85.5q11 -13 28 -23q40 -27 93 -27q48 -1 101 6.5t82 41.5q16 18 24 47
q4 26 -4 56q-20 68 -93 107zM483 276q122 -45 238 -14q1 0 2.5 0.5t3.5 1.5q9 3 7 2q1 0 2.5 1t3.5 2q1 0 2 1t3 2q-4 -2 16 10q9 9 13 14q5 6 10 16q4 9 6 19q4 15 1 44q-6 33 -13 57q-11 35 -22 57q-13 27 -26 43l-8 8q-3 2 -8 7q-3 1 -5 2.5t-4 3.5q-3 1 -4.5 2.5
l-3.5 3.5q-15 10 -28 16q-14 6 -27 9q-16 4 -28 6q-18 2 -27 2q-57 0 -120 -8.5t-96 -48.5q-20 -24 -27 -55q-7 -33 3 -66q22 -78 110 -126q12 -7 26 -12z" />
    <glyph glyph-name="nine" unicode="9" horiz-adv-x="1214" 
d="M1089 753q-17 -58 -51.5 -161.5t-77 -211.5t-87.5 -201t-82 -129q-9 -10 -20 -16q-39 -24 -107 -29t-106 -5q-11 0 -24 2q-10 0 -15 6q-5 4 -5 15q0 9 5 25q22 67 44 138.5t19 135.5q-1 40 -18 56q-4 5 -17 13q-10 5 -16 6q-10 3 -17 2q-112 -8 -209 19
q-90 23 -202 116.5t-92 216.5q8 52 37 107q26 49 68 101q38 46 86 88q95 79 215 126q111 43 233 53q254 22 381 -102.5t58 -370.5zM482 958q-12 -5 -29 -13q-94 -52 -117 -134q-11 -35 -4 -72q6 -33 30 -59q35 -42 102 -52.5t129 -9.5q69 1 118 35q20 13 35 30
q30 33 52 107.5t14 108.5q-11 42 -48 63q-11 6 -27 11q-124 33 -255 -15z" />
    <glyph glyph-name="colon" unicode=":" horiz-adv-x="323" 
d="M301 519q0 -66 -46 -106q-45 -40 -104 -40q-73 0 -115 48q-36 42 -36 98q0 61 43 103t108 42q69 0 113 -49q37 -42 37 -96zM309 145q0 -67 -48 -109q-43 -36 -103 -36q-71 0 -114 47q-37 40 -37 96q0 62 42 105q40 42 107 42q72 0 114 -48q39 -45 39 -97z" />
    <glyph glyph-name="semicolon" unicode=";" horiz-adv-x="321" 
d="M307 401q0 -66 -46 -105q-46 -40 -105 -40q-73 0 -114 48q-36 40 -36 97q0 59 42 101q43 43 108 43q70 0 114 -49q37 -42 37 -95zM305 12q0 -87 -90 -160q-47 -38 -126 -70.5t-41 63.5q14 37 14 76l-1 19q-27 7 -44 32q-17 26 -17 62q0 55 43 93q45 37 106 37
q62 0 109 -43t47 -109z" />
    <glyph glyph-name="semicolon" unicode="&#x37e;" horiz-adv-x="321" 
d="M307 401q0 -66 -46 -105q-46 -40 -105 -40q-73 0 -114 48q-36 40 -36 97q0 59 42 101q43 43 108 43q70 0 114 -49q37 -42 37 -95zM305 12q0 -87 -90 -160q-47 -38 -126 -70.5t-41 63.5q14 37 14 76l-1 19q-27 7 -44 32q-17 26 -17 62q0 55 43 93q45 37 106 37
q62 0 109 -43t47 -109z" />
    <glyph glyph-name="less" unicode="&#x3c;" horiz-adv-x="743" 
d="M48 494q-29 31 -41 75q-7 23 17 50q15 18 34 32q17 15 41 30q14 9 44 25q29 17 43 24q28 15 43 22q33 16 43 20q11 5 22 9.5t22 9.5q11 4 22 8.5t23 9.5q40 16 81 31.5t85 24.5q46 8 78 5q23 -4 49 -26q23 -22 38 -50t17 -52q0 -26 -17 -33q-6 -2 -19 -5q-14 -4 -22 -4
q-69 -13 -147.5 -45t-143.5 -57q-44 -17 -86 -37q35 -27 72 -53t69 -48q51 -37 105.5 -70.5t114.5 -60.5q13 -6 18 -10q10 -6 12 -10q4 -8 4 -15q1 -7 -4 -19q-18 -43 -67 -79q-23 -17 -61 -9q-25 5 -48 13q-27 10 -47 20q-13 4 -24.5 10.5t-21.5 11.5q-30 17 -44 24
q-10 5 -20.5 11t-20.5 13q-10 6 -19.5 12.5t-19.5 12.5l-39 27q-10 6 -19.5 12.5t-19.5 14.5q-34 24 -68 49.5t-61 55.5q-12 13 -17 20z" />
    <glyph glyph-name="equal" unicode="=" horiz-adv-x="879" 
d="M718 457q13 3 23 3q11 0 19 -4q8 -3 14 -9q8 -10 11 -18q17 -46 1 -101q-8 -24 -46 -38q-23 -10 -52 -15q-30 -7 -56 -9q-18 -2 -56 -5q-15 -1 -29 -2.5t-26 -1.5q-36 -1 -53 -1q-18 -1 -53 -1q-14 0 -27.5 0.5t-26.5 0.5q-19 0 -53 2q-48 3 -96 5.5t-95 13.5
q-50 10 -77 28q-20 12 -31 43q-9 27 -8 61q2 33 15 54q13 23 35 23q15 -3 21 -3q-2 0 24 -5q72 -18 165 -22.5t171 -6.5q71 -3 143 -2.5t143 10.5zM755 746q13 3 23 3t19 -3q8 -4 15 -10q4 -4 10 -18q16 -46 0 -100q-7 -25 -45 -39q-18 -7 -51 -15q-18 -4 -56 -9
q-17 -2 -57 -5q-15 -1 -28.5 -2.5t-26.5 -1.5q-35 -1 -53 -1q-27 -2 -54 0q-35 0 -53 1h-27t-26 1q-48 3 -96 5.5t-95 13.5q-48 10 -77 28q-21 13 -31 43q-11 28 -7 61q2 35 14 54q13 23 35 23q9 0 21 -2q6 -2 11.5 -3.5t12.5 -2.5q73 -18 165.5 -22t170.5 -7
q72 -3 143.5 -2.5t142.5 10.5z" />
    <glyph glyph-name="greater" unicode="&#x3e;" horiz-adv-x="744" 
d="M661 502q-6 -10 -16 -19q-28 -32 -62 -57t-68 -49q-26 -18 -38 -27q-10 -8 -20 -14.5t-20 -12.5q-9 -7 -19 -13l-20 -12q-11 -6 -21 -12.5t-21 -11.5q-26 -15 -42 -23q-15 -9 -46 -23q-21 -10 -48 -20q-28 -11 -48 -13q-39 -7 -61 8q-50 36 -67 80q-5 12 -5 19q1 10 5 14
q3 6 13 12q7 5 18 9q59 26 113 59.5t106 70.5q32 23 69 48.5t72 53.5q-43 19 -86 36q-66 27 -144 58.5t-147 43.5q-6 1 -11.5 1.5t-10.5 2.5q-11 3 -19 6q-17 8 -16 33q1 24 16 52q16 29 39 49q25 22 49 26q33 4 78 -4q43 -10 83.5 -25t81.5 -31q12 -5 23 -9.5t22 -8.5
q11 -5 22 -9.5t22 -9.5q30 -13 44 -21q15 -6 42 -21q10 -6 21 -12t23 -12q20 -11 43 -26q15 -9 41 -29q20 -14 35 -31q23 -29 16 -51q-11 -41 -41 -75z" />
    <glyph glyph-name="question" unicode="?" horiz-adv-x="791" 
d="M736 921q-19 -125 -125 -191q-50 -31 -192 -76q-104 -34 -109 -70q-6 -44 51 -52q3 0 6.5 -0.5t8.5 -0.5h7h8q5 0 16 1q73 11 81 -49l5 -41l5 -40q10 -83 -68.5 -96.5t-151.5 -3.5q-117 17 -185 72q-70 55 -56 144q6 43 49 82q44 40 89 79q4 27 -5 49q-3 8 -7 13
q-3 6 -9 11q-7 5 -12 7q-8 3 -14 4q-4 1 -13 1q-4 0 -13 -1q-7 0 -14 -3q-4 -1 -8.5 -2.5l-7.5 -2.5q-54 -19 -52.5 21.5t4.5 84.5l6 102l7 102q6 107 31 133t147 33q90 6 190 -8q162 -25 251 -97q98 -82 80 -205zM395 111q-8 -50 -62 -82t-130 -22q-62 8 -109 50
q-51 46 -43 104q7 49 63 81q56 33 128 23q64 -9 114 -54q47 -47 39 -100z" />
    <glyph glyph-name="at" unicode="@" horiz-adv-x="870" 
d="M775 83q-21 -15 -40 -25q-20 -11 -42 -19q-17 -8 -44 -16q-84 -23 -218 -23q-202 0 -318 106q-113 101 -113 263q0 156 135 266q135 108 320 108q150 0 262 -84q113 -86 113 -211q0 -99 -72 -174q-73 -75 -175 -75q-30 0 -51 7q-14 4 -36 16q-2 3 -4 5q-4 6 -11 10v24
q-39 -34 -94 -34q-79 0 -117 53q-28 39 -28 84q0 56 42 98q44 41 107 41q73 0 130 -19.5t54 -109.5q0 -32 7 -54q8 -22 31 -22q37 0 61 40q19 33 19 81q0 81 -73 135q-74 53 -171 53q-121 0 -207 -70q-88 -71 -88 -173q0 -101 75 -172q81 -77 215 -77q20 0 55 1q33 1 50 4
q15 1 43 6q15 3 37 9q33 8 67 30q13 9 24.5 16.5t20.5 12.5q22 10 39 2q43 -24 33.5 -59t-38.5 -54zM481 377q0 18 -20 30t-44 12q-25 0 -46 -15q-21 -17 -21 -38t19 -36q18 -15 45 -15t46 13q21 15 21 49z" />
    <glyph glyph-name="A" unicode="A" 
d="M768 314q-87 -28 -208.5 -44.5t-195.5 -12.5q-19 -89 -29 -162q-10 -69 -47.5 -81.5t-92.5 -2.5q-38 7 -70 24.5t-63 42.5q-25 21 -34 59q-8 28 -9 60t1 61q4 81 32.5 206.5t70.5 257.5t92.5 253t98.5 195q23 38 57.5 76t81.5 48q47 9 124 -3t115 -44
q67 -36 139.5 -162.5t134 -278t105.5 -296.5t54 -218q10 -72 3 -121q-7 -41 -30 -61q-29 -28 -59.5 -45.5t-67.5 -27.5q-54 -15 -92.5 -5.5t-52.5 77.5q-23 91 -58 205zM375 439q173 -3 361 43q-86 228 -196 434q-94 -220 -165 -477z" />
    <glyph glyph-name="B" unicode="B" horiz-adv-x="1258" 
d="M171 1204q81 15 169.5 25t171.5 15q47 2 93 2q47 1 92 -2q49 -4 86 -9q43 -7 72 -15q35 -12 54 -23q71 -44 114 -107t11 -146q-3 -8 -6 -14q-28 -63 -84 -114q-5 -5 -15 -13q-5 -4 -17 -12q6 -3 12.5 -5t12.5 -4l12 -4l12 -4q61 -25 110 -58q6 -4 19 -14q50 -38 92.5 -88
t56.5 -112q4 -17 5 -34q7 -139 -78.5 -223t-206.5 -129q-44 -16 -106 -32q-66 -18 -120 -27q-82 -15 -167.5 -28t-168.5 -25q-13 -3 -39 -4h-20h-20q-72 0 -119.5 17t-80.5 80q-18 35 -30 73t-20 76q-39 164 -51.5 349t2.5 354q5 49 12 86q0 3 1 6t1 8q0 2 1.5 5.5t2.5 7.5
q1 5 3 14q3 10 4 14q12 36 29.5 63t56.5 41q5 1 10 2.5t10 3.5q12 3 21 4zM383 838q0 -1 0.5 -3t0.5 -3q0 -2 0.5 -4t0.5 -3q-1 2 2 -7q9 -37 57 -35t83 13q4 1 7 1q1 0 2.5 1t3.5 2q7 2 8 2q63 25 99.5 82t1.5 112q-2 2 -2 3q-1 0 -2 0.5t-1 1.5q-42 53 -134 53q-3 0 -5 -1
h-4.5h-1.5h-3.5h-2.5q-2 0 -3 -0.5t-2 -0.5q-19 -2 -50.5 -10.5t-39.5 -22.5q-1 0 -1.5 -1l-0.5 -1q0 -2 -0.5 -3l-0.5 -1q-1 -1 -1.5 -2l-0.5 -1q0 -1 -0.5 -2l-0.5 -1q0 -1 -2 -3q0 -3 -1 -4q0 -2 -2 -3q-2 -35 -3 -69.5t-1 -69.5v-10v-10zM482 199q14 -2 31 -2
q13 -1 47 1q59 2 124 14.5t115 43.5q86 52 72 142q-2 7 -2 9l-2 4t-1 5q-19 62 -76.5 93.5t-133.5 31.5q-28 0 -57 -3q-59 -4 -110 -16q-25 -7 -44 -13q-21 -8 -29 -16q-11 -9 -9 -18v0v0v0v0v0v0v0v0v0v0v0v0v0v0v0v0q1 -13 7 -37q18 -91 45 -175q5 -18 12 -33
q3 -7 5.5 -15.5t5.5 -15.5z" />
    <glyph glyph-name="C" unicode="C" horiz-adv-x="1265" 
d="M979 1228q79 -18 125 -45q54 -33 54 -78q0 -52 -3 -83t-29 -77q-38 -66 -73 -66q-32 0 -63 10.5t-60 20.5q-61 20 -167 16.5t-199 -45.5t-169 -133.5t0 -310.5q37 -107 151 -154t232 -36q90 9 169 115t259 -4q63 -42 -12.5 -134.5t-119.5 -124.5q-31 -22 -62 -38
q-83 -44 -167.5 -51.5t-168.5 0.5q-111 10 -213 51q-82 32 -156 85t-130 130q-105 141 -140 314q-57 267 129 445q93 91 210.5 136t227.5 63q92 14 188 14t187 -20z" />
    <glyph glyph-name="D" unicode="D" horiz-adv-x="1229" 
d="M93 1182q20 63 74 67q160 8 319.5 -7.5t318.5 -98.5q179 -95 286 -244q91 -128 116 -281q16 -109 -38.5 -215t-118.5 -177q-75 -81 -168 -129q-94 -49 -207 -67q-142 -23 -291 -8.5t-297 34.5q-46 5 -61 27t-16 54q-8 223 6.5 534.5t76.5 510.5zM900 618q-6 77 -89 144
q-31 23 -71 46q-116 60 -238 76q-32 5 -61 4q-33 -3 -56 -24q-11 -10 -21 -76t-17 -144.5t-9 -146.5t4 -80q3 -8 8 -12q51 -27 114 -41q62 -13 121 -10q78 3 169.5 30.5t121.5 102.5q26 64 24 131z" />
    <glyph glyph-name="E" unicode="E" horiz-adv-x="1178" 
d="M119 1170q19 8 40 13.5t42 12.5q134 45 323.5 71.5t340.5 5.5q38 -6 80 -18.5t67 -42.5q27 -34 44.5 -127.5t-59.5 -98.5q-21 -2 -43 2t-42 7q-196 21 -317 16.5t-250 -27.5q-4 -167 3 -261q109 13 209 23t137 9q89 -2 85.5 -75t-37.5 -102q-27 -37 -139.5 -58
t-224.5 -30q24 -159 47 -237q19 1 42.5 3t53.5 5q117 9 256 29t234 50q10 2 20.5 6t20.5 8q24 6 42 8q39 2 56 -30.5t21 -76.5q5 -40 -24 -91q-17 -29 -59 -52q-28 -15 -77 -29q-74 -22 -187 -37t-233 -21q-73 -5 -190 -11.5t-176 17.5q-43 17 -67.5 57t-39.5 78
q-30 73 -51.5 188.5t-33 239t-11.5 238.5t15 188q13 65 35 105q17 31 47 45z" />
    <glyph glyph-name="F" unicode="F" horiz-adv-x="1052" 
d="M254 1240q134 27 318.5 28.5t325.5 -42.5q35 -10 73.5 -28.5t57.5 -53.5q20 -39 20 -125t-73 -81q-20 1 -40.5 8.5t-39.5 13.5q-132 42 -275.5 57t-269.5 9q-15 -98 -28 -302q107 -2 231 -8t159 -12q74 -12 62.5 -90t-35.5 -105q-31 -35 -169 -38.5t-246 3.5
q9 -171 41 -301q5 -21 11.5 -44t6.5 -45q-2 -41 -44.5 -55.5t-97.5 -13.5t-80 11t-47 24q-39 23 -56.5 67t-26.5 85q-18 79 -23 199.5t1 248t22.5 245t40.5 189.5q21 64 47 101q21 29 52 40q19 5 40 8t42 7z" />
    <glyph glyph-name="G" unicode="G" horiz-adv-x="1248" 
d="M979 1228q79 -18 125 -45q54 -33 54 -78q0 -52 -9 -77.5t-35 -71.5q-38 -66 -73 -66q-32 0 -63 10.5t-60 20.5q-61 20 -167 16.5t-199 -45.5t-159 -131t-10 -295q35 -121 154.5 -184t340.5 -12q-138 43 -155 54q-23 16 -36 35q-11 15 -15 35q-9 54 8 112q13 48 87.5 36.5
t163.5 -47t169 -78.5t106 -59q63 -42 -12.5 -134.5t-119.5 -124.5q-31 -22 -62 -38q-83 -44 -167.5 -51.5t-168.5 0.5q-111 10 -213 51q-82 32 -156 85t-130 130q-105 141 -140 314q-57 267 129 445q93 91 210.5 136t227.5 63q92 14 188 14t187 -20z" />
    <glyph glyph-name="H" unicode="H" horiz-adv-x="1224" 
d="M394 462q42 -176 82 -268q8 -21 18 -43.5t14 -44.5q5 -41 -34 -62.5t-92.5 -29.5t-88 -3t-57.5 16q-42 17 -67 59t-40 82q-31 77 -55 198t-39 251.5t-18.5 252t7.5 198.5q9 66 30 112q14 31 43 48q32 17 52.5 22.5t57.5 5.5q54 -1 85.5 -19.5t28.5 -84.5
q-10 -220 32 -460q131 17 255.5 33t195.5 23q-5 107 -2.5 204.5t14.5 165.5q7 42 23 87.5t54 71.5q20 14 71.5 28t87 17t77.5 -11t46 -55q0 -23 -5 -47t-9 -46q-44 -211 -27 -479.5t72 -487.5q15 -64 -12.5 -89t-79.5 -35q-36 -7 -63 -9t-62 9q-31 9 -52 39q-29 40 -51 104
q-31 89 -66 304q-75 -24 -213 -38.5t-213 -18.5z" />
    <glyph glyph-name="I" unicode="I" horiz-adv-x="653" 
d="M5 184q1 63 65 63q8 0 39.5 -1.5t42.5 -1.5q-5 72 -8 222q0 72 5 179q6 94 15 179q20 170 40 228q-44 4 -53 5q-10 1 -69 6q-7 0 -20 2q-3 0 -16 3q-31 6 -43 40q-11 28 7 73t32 63q21 24 90 34q65 8 147 5q81 -3 153 -12q66 -9 107 -17q7 -1 22 -8q8 -4 21 -12l20 -15
q5 -4 19 -16q6 -6 30 -98q-2 -54 -40 -59t-76 -4q-20 0 -70 2q-17 -157 -23 -232q-7 -73 -11 -173q-4 -87 0 -171q5 -154 13 -227q46 -7 62 -9q11 -1 22.5 -2t20.5 -1q15 -2 36 -4q8 -1 14 -2.5t11 -1.5q30 -7 44 -41l-10 -88q-12 -38 -24 -52q-20 -24 -90 -34
q-32 -5 -70 -5.5t-77 0.5q-72 1 -154 12q-62 7 -107 16q-15 5 -21 9q-6 2 -22 12q-7 5 -20 15q1 -1 -18 15q-6 4 -21.5 48t-14.5 56z" />
    <glyph glyph-name="J" unicode="J" horiz-adv-x="1236" 
d="M643 1052q-57 -9 -64 57q-4 36 12 72q6 16 23 27q21 12 60 22q84 20 199.5 25t204.5 -19q22 -6 69 -18t60 -33q13 -25 14.5 -91.5t-45.5 -64.5q-5 0 -32.5 1t-32.5 3q7 -55 14 -153q4 -107 -1 -248q-7 -136 -22 -250q-18 -126 -42 -198q-7 -22 -15 -42q-11 -28 -19 -41
q-29 -49 -73 -68.5t-99 -26.5q-48 -7 -123 -4q-63 3 -126 16q-60 11 -114 30q-104 35 -196 96.5t-156 150.5q-35 47 -58.5 96.5t-42.5 100.5q-29 81 7 104.5t94 17.5q40 -5 59 -4t58 -11q25 -9 47 -26q10 -10 40 -42q34 -39 70.5 -127.5t84.5 -112.5q37 -20 94.5 -25.5
t161.5 66.5q38 40 56 127t23 191t-1.5 219.5t-13.5 195.5q-41 -4 -175 -13z" />
    <glyph glyph-name="K" unicode="K" horiz-adv-x="1161" 
d="M337 856q133 202 196.5 281t140.5 131q32 22 72 41.5t76 13.5q42 -7 119.5 -75t22.5 -124q-14 -16 -33 -28t-36 -23q-101 -66 -172.5 -143.5t-140.5 -161.5q49 -36 131 -101.5t167 -134.5t156 -130.5t96 -88.5q57 -66 -30 -149t-131 -91q-43 -8 -105.5 40.5t-125 104.5
t-126 122t-139.5 133q-69 56 -101 64q48 -218 100 -340q8 -21 18.5 -43.5t12.5 -44.5q5 -41 -33.5 -62.5t-92 -29.5t-85 -4.5t-54.5 14.5q-42 17 -67 59.5t-39 81.5q-32 77 -56 198.5t-38.5 252t-18 252t7.5 198.5q11 69 30 111q16 33 43 48q32 17 57.5 21.5t62.5 4.5
q53 -1 84.5 -19.5t29.5 -84.5q-6 -88 1 -294z" />
    <glyph glyph-name="L" unicode="L" horiz-adv-x="1003" 
d="M185 80q-34 6 -52 14q-29 12 -47 43q-24 39 -39 105q-18 73 -26 191.5t-6.5 246.5t14 248.5t35.5 198.5q10 40 30.5 82.5t59.5 64.5q21 11 55 18.5t86 5t92 -20t39 -57.5q-1 -22 -8.5 -45t-13.5 -43q-52 -168 -66.5 -381t1.5 -468q121 -15 250 -9.5t257 39.5q18 5 38 11
t40 6q71 0 63.5 -88t-29.5 -125q-20 -33 -58 -49t-73 -25q-137 -32 -313.5 -19.5t-303.5 49.5q-7 2 -13 3.5t-12 3.5z" />
    <glyph glyph-name="M" unicode="M" horiz-adv-x="1491" 
d="M758 734q82 248 129 319q18 27 37.5 53t41.5 47q10 10 21 18q15 11 54 23q33 8 59 11.5t59 -5.5q28 -7 53 -34q33 -37 60 -96q35 -68 70.5 -180.5t64.5 -235t47.5 -239.5t16.5 -194q0 -39 -8 -83t-37 -69q-34 -30 -127 -51.5t-111 56.5q-4 21 -2.5 44t1.5 44
q5 142 -22 313t-87 389q-150 -226 -178.5 -369t-41.5 -186.5t-97.5 -48.5t-98.5 39t-46 172q-41 164 -170 397q-75 -220 -103 -391.5t-22 -313.5q-1 -22 1 -44.5t-3 -43.5q-18 -79 -117 -60.5t-134 47.5q-31 25 -39 68.5t-8 83.5q-2 77 17 194t49 240t67.5 235.5t72.5 181.5
q29 59 62 96q26 28 56 35q34 9 59.5 8.5t58.5 -6.5q41 -12 56 -23q12 -7 23 -17q21 -22 41.5 -47.5t40.5 -51.5q49 -73 134 -325z" />
    <glyph glyph-name="N" unicode="N" horiz-adv-x="1194" 
d="M527 1075q113 -142 309 -546q12 327 29 397t36 118q24 59 52 95q22 27 50 35q34 8 51 7t50 -9q49 -12 74 -36.5t8 -83.5q-60 -206 -86 -457.5t6 -452.5q3 -22 7 -44.5t3 -42.5q-4 -39 -44.5 -50.5t-91 -7t-98.5 19.5t-67 30q-32 23 -46 63.5t-19 78.5v0v0
q-78 157 -158.5 307t-253.5 377q-29 -165 -35.5 -336t15.5 -313q3 -22 7.5 -44.5t2.5 -43.5q-9 -79 -106 -62.5t-135 46.5q-35 25 -48.5 69t-18.5 83q-11 77 -6.5 193.5t19.5 239.5t38.5 235.5t50.5 180.5q21 59 51 96q22 27 51 34q33 9 85.5 -3t123.5 -79.5t94 -93.5z" />
    <glyph glyph-name="O" unicode="O" horiz-adv-x="1194" 
d="M64 730q32 64 71.5 123.5t92.5 110.5q22 23 45 43q141 126 321 174q155 42 297 1q69 -20 136 -73t102 -117q22 -42 32 -89.5t15 -93.5q13 -162 -29 -293q-27 -79 -77 -153.5t-104 -133.5q-81 -89 -185 -149.5t-224 -72.5q-121 -10 -234 29q-86 30 -160.5 83.5
t-114.5 136.5q-38 81 -43 189q-6 156 59 285zM325 592q-15 -100 80 -224.5t219 -85.5q80 26 105.5 88.5t14.5 137.5q-13 84 -74 147t-132 83.5t-134 -11.5t-79 -135z" />
    <glyph glyph-name="P" unicode="P" horiz-adv-x="1097" 
d="M22 990q8 43 11 50q10 37 44 57q13 8 55 27q97 43 209 61q114 19 228 9q119 -10 218 -53q107 -47 180 -127q35 -38 63 -87q28 -56 40 -102q14 -56 8 -106q-13 -123 -151 -216.5t-233 -117.5q-104 -26 -252 -21q-6 1 -17 -2t-18 -6q-10 -5 -20 -12q-22 -17 -35 -57
q-11 -36 -15 -84q-2 -30 -2 -88q0 -21 1 -39t2 -31q1 -14 -1 -25q-3 -10 -10 -15q-8 -6 -17 -6q-14 -2 -24 -2q-40 0 -87 6.5t-79 30.5q-9 5 -17 16q-14 17 -28 70q-12 41 -24 107q-12 52 -20 111q-10 61 -11 77v10q-1 3 -1.5 5.5t-0.5 4.5q0 7 -1 10q0 2 -0.5 4t-0.5 5
q-3 31 -6 63.5t-4 65.5q-5 60 -6 137q0 82 5 138q5 77 17 132zM687 922q-104 44 -261 11q-16 -6 -26 -10q-37 -18 -57 -58q-15 -33 -14 -102t19 -98q13 -18 25 -27q34 -31 136 -29q53 -1 113.5 8t103.5 48q25 25 39 55q14 31 14 66q-2 76 -70 124q-10 7 -22 12z" />
    <glyph glyph-name="Q" unicode="Q" horiz-adv-x="1132" 
d="M237 168q-47 49 -88 103.5t-68 118.5q-14 31 -22 56q-65 168 -44 352q18 159 108 280q44 59 117 107.5t145 62.5q46 9 93.5 5t92.5 -14q69 -14 135.5 -41.5t122.5 -69.5q61 -47 112.5 -116t85.5 -137q51 -101 69 -216.5t-15 -232.5q-30 -103 -95 -189q25 -29 43 -49
q28 -32 50 -57q22 -26 32 -38q8 -13 8 -23q0 -36 -64 -52t-101 -8q-12 2 -38 17q-19 12 -46 35q-11 8 -32 28q-85 -59 -172 -71q-90 -14 -189 13q-146 37 -240 136zM667 318q-87 92 -20.5 153t135.5 7q33 -26 74 -60q63 178 38 292q-27 130 -102 172t-163 26
q-103 -20 -180.5 -117.5t-105.5 -213t7 -217.5t159 -128q81 -19 203 39q-12 10 -23.5 22.5t-21.5 24.5z" />
    <glyph glyph-name="R" unicode="R" horiz-adv-x="1241" 
d="M37 956q5 64 16.5 85.5t78.5 60.5q179 103 414.5 116.5t404.5 -134.5q78 -69 123.5 -177.5t-4.5 -207.5q-20 -42 -55.5 -68.5t-62.5 -61.5q-23 -32 -21 -68q1 -26 10 -49q7 -22 20 -42q12 -21 28 -37q18 -19 36 -33q15 -12 41 -30q14 -9 44 -27q10 -7 21.5 -13t22.5 -13
q29 -16 43 -24q43 -27 14 -68q-23 -34 -65 -72t-78 -60q-47 -30 -105 -6q-57 39 -152.5 147.5t-151.5 169.5q-33 32 -84 42.5t-91 -26.5q-43 -40 -34.5 -144.5t18.5 -156.5q5 -32 -7.5 -41.5t-39.5 -12.5q-31 -4 -61.5 -2t-55.5 -1q-22 2 -44.5 6.5t-38.5 22.5
q-33 35 -72.5 169.5t-50.5 185.5q-2 9 -4 18.5t-4 19.5q-26 121 -45 261.5t-8 270.5zM681 961q-118 34 -245 -11q-61 -23 -84 -82q-13 -35 -3.5 -108t32.5 -100q49 -55 138 -48q43 4 88.5 13.5t85.5 28.5q67 31 96.5 105t-19.5 141q-37 46 -89 61z" />
    <glyph glyph-name="S" unicode="S" horiz-adv-x="1022" 
d="M744 678l84 -58q4 -2 7 -4q101 -61 140.5 -145t0.5 -189q-40 -105 -144 -177q-68 -48 -165 -68.5t-201 -15.5l-1 -1v-1q-130 8 -124 18q-47 10 -80 20l-156 72q-46 29 -80 66q-1 2 -2.5 3t-1.5 4q-2 0 -3.5 2t-1.5 3q-18 21 -20 45v7q1 31 3.5 75t14.5 72
q13 32 38.5 20.5t42.5 -26.5q2 -3 4 -4t4 -3q43 -37 98 -64q123 -59 298 -56q6 3 18 10q39 22 18 61q-2 1 -3 3t-2 5q-11 13 -209 123q-189 130 -217 173q-67 100 -40 200.5t119 174.5q161 132 516 96q43 -13 77 -26q12 -5 37 -17q23 -13 55 -28q39 -17 32 -37q2 -3 5 -7
q21 -28 33 -76t-20 -76l-4 -4q-28 -21 -78 -9q-55 15 -107 25l-58 15q-112 14 -164 14q-105 -35 49 -135q13 -12 188 -80z" />
    <glyph glyph-name="T" unicode="T" 
d="M22 1081q18 20 67 13q67 -8 140 -8q153 0 303.5 29t299.5 59q50 10 98.5 27.5t98.5 24.5q57 7 85 -33q32 -47 43 -109.5t-11 -112.5q-15 -30 -51 -47.5t-65 -29.5q-38 -16 -95 -42.5t-83 -60.5q-27 -36 -15.5 -101t27.5 -192q9 -92 24.5 -193.5t12.5 -192.5
q-1 -49 -32 -71q-43 -31 -70.5 -37.5t-78.5 -6.5q-22 0 -47.5 6t-34.5 28q-17 39 -26 70q-31 100 -49 252.5t-43 254.5q-11 50 -33 107q-13 32 -82 41.5t-96 12.5q-53 4 -109.5 6t-103.5 24q-42 19 -52.5 49.5t-20.5 70.5q-18 142 -1 162z" />
    <glyph glyph-name="U" unicode="U" horiz-adv-x="1106" 
d="M36 709q4 34 15 108.5t30 150.5t48 134t70 60q61 4 144.5 -11.5t124.5 -67.5q14 -20 -5.5 -79.5t-26.5 -84.5q-31 -91 -46 -240t3 -246q23 -119 116.5 -118t180.5 133q39 56 64 142q12 85 27 223.5t3 230.5q-3 25 -5.5 53.5t8.5 52.5q6 17 20 29q32 32 93.5 57t118.5 16
q32 -5 46 -40q41 -99 22 -284t-41 -289q-33 -149 -102.5 -297t-196.5 -240q-118 -86 -265 -94q-113 -6 -225.5 38.5t-172.5 146.5q-64 108 -63 253t15 263z" />
    <glyph glyph-name="V" unicode="V" horiz-adv-x="1288" 
d="M275 1149q76 -176 184 -382t306 -428q109 295 144.5 506.5t50.5 385.5q4 69 40 85t92 10q38 -4 68.5 -17t63.5 -35q27 -20 39 -56q16 -48 17 -119q2 -83 -16.5 -210t-50 -262t-71.5 -260t-81 -202q-21 -39 -52.5 -80t-76.5 -54q-81 -24 -204 7t-183 86q-66 59 -146 162.5
t-154.5 220t-135 230t-84.5 191.5q-23 70 -24 119q-1 38 18 65q22 32 43 49t57 34q50 24 89 21t67 -67z" />
    <glyph glyph-name="W" unicode="W" horiz-adv-x="1490" 
d="M736 481q-82 -248 -129 -319q-18 -27 -37.5 -53t-40.5 -47q-11 -10 -22 -18q-15 -11 -54 -23q-33 -8 -59 -11.5t-59 5.5q-28 7 -53 34q-32 37 -60 96q-35 68 -70.5 180.5t-64.5 235t-47.5 239.5t-16.5 194q0 39 8 83t38 69q33 30 126 51.5t111 -56.5q4 -21 2.5 -44
t-1.5 -44q-5 -142 22 -313t87 -389q150 226 178.5 369t41.5 186.5t97.5 48.5t98.5 -39t47 -172q41 -164 169 -397q75 220 103 391.5t22 313.5q1 22 -1 44.5t3 43.5q18 79 117 60.5t134 -47.5q31 -25 39 -68.5t8 -83.5q2 -77 -17 -194t-49 -240t-67.5 -235.5t-72.5 -181.5
q-29 -59 -62 -96q-26 -28 -56 -35q-34 -9 -59.5 -8.5t-58.5 6.5q-40 12 -56 23q-12 7 -23 17q-21 22 -41.5 47.5t-40.5 51.5q-49 73 -134 325z" />
    <glyph glyph-name="X" unicode="X" horiz-adv-x="1083" 
d="M263 1101q96 -163 274 -391q174 244 238 418q25 65 64 70t111.5 -34t53.5 -121q1 -52 -18 -121q-20 -77 -72 -190t-167 -271q95 -86 185 -147q20 -14 41.5 -28t37.5 -31q29 -34 7 -76t-40.5 -59.5t-56.5 -40.5t-64 -27q-47 -9 -93 13.5t-83 48.5q-46 33 -151 131
q-99 -100 -126 -127q-32 -32 -73.5 -62t-88.5 -30q-27 0 -46 12t-49 34.5t-58.5 59.5t-5.5 75q12 20 31 37.5t36 34.5q76 74 156 179q-87 103 -158 205.5t-106 174.5q-12 27 -23 56t-15 59q-5 39 10 68q19 34 37.5 59t51.5 46q46 30 85.5 32.5t74.5 -57.5z" />
    <glyph glyph-name="Y" unicode="Y" horiz-adv-x="1069" 
d="M49 1070q33 42 58.5 61t72.5 49q51 18 103 -24q75 -61 126 -174t120 -181q22 -23 47 -8.5t43 31.5q50 47 97.5 132t80.5 145q20 37 44 53.5t71 -0.5q44 -18 74 -45.5t59 -64.5q32 -41 16 -109q-21 -87 -73 -172t-102 -158q-50 -75 -106.5 -144t-115.5 -137
q-53 -60 -107.5 -120t-118.5 -108q-68 -51 -125 -66q-44 -11 -102.5 14.5t-81.5 55t-46.5 62.5t1.5 63q20 24 59 48.5t66 53.5q24 25 47.5 41.5t63.5 71.5q78 86 -3 176q-32 45 -90.5 109.5t-93.5 105.5q-25 29 -49.5 60.5t-41.5 66.5q-17 31 -17.5 55.5t24.5 56.5z" />
    <glyph glyph-name="Z" unicode="Z" horiz-adv-x="1114" 
d="M140 288q10 14 24.5 27.5t27.5 26.5q113 118 256 289t213 394q-115 -25 -317.5 -51t-246.5 12q-30 25 -51.5 94.5t53.5 90.5q27 7 111 21q63 10 175 25q47 5 95 11t92 11q89 9 151.5 21t143.5 -21q16 -6 40 -18q76 -40 88.5 -88t-5.5 -130q-26 -117 -120 -298.5
t-343 -434.5q283 47 407 102q19 8 39.5 17.5t40.5 13.5q76 13 84 -75t-9 -129q-16 -37 -53.5 -60t-73.5 -37q-141 -59 -331.5 -79t-332.5 -8q-65 5 -102 20q-55 21 -76 117t20 136z" />
    <glyph glyph-name="bracketleft" unicode="[" horiz-adv-x="424" 
d="M0 538q0 46 6 90q5 47 17 95q11 45 29 99q18 53 41 105q7 17 15 33t15 33q10 21 30 58q20 34 31 52q25 38 46 66.5t61 -36.5q3 -7 11 -20q2 -2 14 -23q10 -16 14 -23q48 -84 32.5 -114.5t-55.5 -121.5q-5 -10 -8.5 -19t-6.5 -17q-9 -18 -13 -32q-13 -38 -18 -56
q-10 -40 -13 -55t-8 -53q-2 -27 -2 -52q0 -19 4 -42q0 -14 9 -44q9 -24 19 -44q9 -22 24 -44q-4 8 11 -17q11 -17 20 -29q6 -10 13.5 -20.5t16.5 -23.5q30 -45 40 -70t-29 -75q-5 -8 -10.5 -15t-11.5 -14t-12 -15.5t-13 -17.5q-13 -17 -29 -37l-5 -6q-10 -13 -12 -16
q-6 -7 -19 -22q-34 -42 -46 -38t-50 56q-11 16 -31 49q-16 26 -30 60q-18 36 -29 69q-15 35 -30 87t-21 87q-8 39 -13 87q-4 48 -4 86z" />
    <glyph glyph-name="backslash" unicode="\" horiz-adv-x="898" 
d="M220 1097q51 -108 113 -211t128 -203q73 -109 158.5 -239t169.5 -223q18 -21 26 -31q15 -19 22 -29q19 -29 5 -64q-12 -30 -46 -54q-35 -23 -75 -27q-44 -5 -75 18q-45 29 -99 93q-53 60 -98.5 126.5t-89.5 133.5q-12 19 -24.5 37.5t-24.5 38.5q-12 18 -24 37l-24 38
q-13 19 -24.5 38t-21.5 38q-22 35 -45 77q-11 20 -22.5 39.5t-22.5 41.5q-29 55 -44 84q-23 46 -38 85q-20 48 -29 83q-18 63 2 89q49 59 113 62q14 1 29 -4q10 -4 24 -15q11 -12 19 -25q10 -17 18 -34z" />
    <glyph glyph-name="bracketright" unicode="]" horiz-adv-x="475" 
d="M418 605q0 -45 -6 -87q-7 -45 -17 -93q-14 -55 -29 -97q-21 -57 -41 -103q-16 -37 -30 -64q-8 -16 -15.5 -30.5t-15.5 -27.5q-19 -33 -31 -50q-24 -38 -45.5 -65.5t-60.5 35.5q-4 6 -12 20q-3 5 -6.5 10.5t-6.5 11.5q-10 16 -15 23q-48 82 -33 111.5t56 119.5l8 18t8 17
q7 17 12 32q10 25 18 55q8 23 13 54q7 34 8 51q3 26 3 51q0 23 -3 42q-3 14 -11 42q-7 22 -18 43q-9 20 -25 44q-3 5 -10 15q-4 5 -9 12.5t-11 17.5q-10 12 -30 41q-31 45 -41 69.5t29 74.5q5 6 10.5 13t11.5 15q5 7 11.5 15t14.5 17q10 14 29 36l1.5 2t3.5 4q1 1 12 16
q4 4 19 22q33 42 45 37.5t50 -55.5q18 -25 32 -49q12 -21 30 -58q17 -37 29 -68q15 -40 30 -85q14 -51 20 -85q10 -48 13 -85q5 -35 5 -85z" />
    <glyph glyph-name="asciicircum" unicode="^" horiz-adv-x="726" 
d="M404 1334q4 -2 20 -11q28 -19 51.5 -41.5t47.5 -44.5q8 -9 25 -26q16 -17 24 -26q23 -25 24 -26q4 -7 10 -13.5t12 -13.5q6 -9 21 -29q10 -13 20 -30q11 -19 18 -31q8 -19 10 -31q5 -26 -11 -39q-37 -30 -82 -41q-8 -2 -21 -2q-9 0 -13 3q-7 3 -10 8q-3 3 -9 13
q-40 64 -120 144q-22 21 -46 45.5t-48 48.5q-15 -18 -41 -54q-30 -42 -65.5 -90.5t-50.5 -92.5q-1 -5 -2.5 -8.5t-2.5 -6.5q-8 -14 -6 -12q-11 -11 -34 -9q-21 0 -51 12q-28 10 -48 26q-22 17 -24 32q-2 22 9 51q10 27 27.5 52.5t36.5 52.5q4 6 9.5 13t10.5 14q11 17 21 28
q5 7 11 13.5t11 13.5l24 27q17 18 26 27l27 27q17 16 32 26q16 12 33 21q29 14 52 9q42 -9 72 -29z" />
    <glyph glyph-name="underscore" unicode="_" horiz-adv-x="973" 
d="M831 3q-81 17 -164.5 24t-165.5 8q-91 0 -198 2t-191 -15q-10 -2 -28 -5q-9 -1 -24 -1q-26 0 -40 31q-15 28 -18 69q-2 41 9 76q11 38 37 53q31 20 88 30q54 9 109.5 9h110.5q16 0 31.5 -0.5t31.5 -0.5q14 0 29.5 -1t31.5 -1q15 -2 30.5 -2.5t30.5 -1.5l63 -7
q44 -5 63 -8q44 -6 65 -11q38 -7 65 -15q32 -10 60 -22q44 -21 53 -53q18 -73 -1 -127q-5 -14 -12 -22t-16 -10q-7 -2 -22 -2q-8 0 -28 3z" />
    <glyph glyph-name="grave" unicode="`" horiz-adv-x="428" 
d="M154 1195q141 -92 242 -183q11 -10 2 -26q-31 -50 -74 -71q-30 -16 -43 -11q-66 23 -131.5 45.5t-126.5 51.5q-30 14 -21 38q40 96 95 155q21 23 57 1z" />
    <glyph glyph-name="a" unicode="a" horiz-adv-x="850" 
d="M267 357q-27 -55 14 -140t130 -81q56 3 83.5 35t33.5 76q6 50 -23.5 94.5t-72.5 67t-90.5 13.5t-74.5 -65zM485 686q-46 21 -122 9q-59 -8 -101.5 -42t-164.5 14q-43 19 2 71.5t72 70.5q18 13 38 23q51 26 106 34t109 7q73 0 141 -17q55 -14 105 -39t85.5 -97t24 -171.5
t-18.5 -235.5q-9 -150 21 -267q2 -13 6 -26.5t3 -25.5q-1 -23 -28.5 -31.5t-53.5 -8.5t-59 7t-47 15q-23 15 -34 40q-8 18 -13 35q-26 -15 -56 -27q-66 -28 -139 -29q-76 1 -142 26q-51 20 -93 52t-62 77t-17 102q4 83 50 148q24 32 44.5 58t87 73t159 55.5t180.5 -19.5
q3 5 -2.5 47t-80.5 72z" />
    <glyph glyph-name="b" unicode="b" horiz-adv-x="884" 
d="M534.5 587.5q-63.5 27.5 -118.5 10t-88.5 -71.5t-18.5 -126q14 -65 55.5 -118.5t119.5 -76.5q118 -33 161.5 74t-1.5 193q-46 88 -109.5 115.5zM236 62q-14 -32 -40 -48q-15 -9 -49.5 -15.5t-70.5 -4.5t-62.5 15t-26.5 43q1 17 6 34t10 32q41 151 47.5 346t-30.5 630
q-6 47 14 63t55 20q24 3 54 1t52 -12q19 -9 32 -32q25 -290 33 -318q6 2 11 3q98 29 206 0q124 -34 222 -121q15 -13 31 -29q36 -36 63.5 -77t49.5 -85q44 -89 40 -197q-3 -74 -30 -130q-27 -57 -78.5 -94t-110.5 -58q-78 -27 -162 -20q-84 8 -155 50q-49 28 -90 66
q-8 -30 -21 -62z" />
    <glyph glyph-name="c" unicode="c" horiz-adv-x="880" 
d="M687 855q55 -12 87 -31q38 -23 38 -54q0 -37 -2.5 -58.5t-20.5 -53.5q-26 -46 -51 -46q-22 0 -43 7.5t-42 14.5q-43 14 -116 11.5t-138 -31.5t-117.5 -92.5t0.5 -215.5q25 -75 104 -107.5t161 -24.5q63 6 118 79.5t180 -2.5q44 -29 -8.5 -93.5t-83.5 -86.5
q-22 -16 -43 -26q-58 -31 -116.5 -36t-116.5 0q-78 7 -149 36q-56 22 -107.5 58.5t-90.5 90.5q-73 98 -98 218q-39 185 90 309q65 63 146.5 94.5t158.5 43.5q63 10 130 10t130 -14z" />
    <glyph glyph-name="d" unicode="d" horiz-adv-x="896" 
d="M330.5 555q58.5 26 112 9.5t88.5 -68t26 -119.5q-10 -61 -45 -112t-107 -72q-109 -32 -157.5 69.5t-12.5 182.5q37 84 95.5 110zM637 62q14 -32 40 -48q15 -9 49.5 -15.5t70.5 -4.5t62.5 15t26.5 43q-1 17 -6 34t-10 32q-41 151 -47.5 346t30.5 630q6 47 -14 63t-55 20
q-24 3 -54 1t-52 -12q-19 -9 -32 -32q-25 -290 -33 -318q-6 2 -11 3q-98 29 -206 0q-124 -34 -222 -121q-15 -13 -31 -29q-36 -36 -63.5 -77t-49.5 -85q-44 -89 -40 -197q3 -74 30 -130q27 -57 78.5 -94t110.5 -58q78 -27 162 -20q84 8 155 50q49 28 90 66q8 -30 21 -62z
" />
    <glyph glyph-name="e" unicode="e" horiz-adv-x="870" 
d="M242 345q3 -10 7 -22q26 -73 115.5 -111t170.5 -29q64 5 128.5 72t166.5 -8q45 -29 -8 -92t-84 -85q-21 -15 -43 -26q-58 -30 -117 -35.5t-116 0.5q-78 7 -150 35q-56 22 -107.5 58t-90.5 89q-73 97 -98 215q-39 182 90 304q65 62 146.5 92.5t194.5 45.5t229.5 -45.5
t144.5 -174.5t10 -159t-61.5 -57t-527.5 -67zM512 637.5q-110 -6.5 -171 -28.5t-90 -96q-3 -5 -5 -9l418 48q-42 92 -152 85.5z" />
    <glyph glyph-name="f" unicode="f" horiz-adv-x="737" 
d="M428.5 467.5q1.5 -63.5 6.5 -171.5q10 -219 3 -231q-11 -48 -93.5 -57.5t-113.5 16t-34 81.5q-3 10 -5 20q-2 2 -6 20q-3 11 -8 58q10 35 2.5 186t-26.5 148.5t-45 1.5q-21 0 -41 4q-21 5 -28 9q-13 8 -19 34q-3 12 -0.5 57.5t7.5 62.5q2 6 4 9q1 2 6 8q2 3 7 8q0 -1 8 6
q3 3 10 5t17 4q8 2 90 8q11 163 67 236q39 55 73.5 86t94.5 56q145 46 230.5 37.5t78.5 -121t-74 -110t-131 -32.5t-65 -163q166 -1 175 -7q14 -8 19 -33q7 -26 2.5 -65.5t-9.5 -55.5q0 -3 -4 -9q-1 -3 -6 -7l-8 -8q-1 -2 -7 -8q-4 -1 -11 -4l-16 -4q-2 0 -16 -2
q-9 -2 -72.5 -5.5t-62 -67z" />
    <glyph glyph-name="g" unicode="g" horiz-adv-x="865" 
d="M475.5 304q47.5 27 74.5 86t12 127q-15 61 -53.5 106t-105.5 54q-107 13 -141 -99.5t7 -190.5q43 -78 101 -94t105.5 11zM603 102q-134 -27 -236 -9.5t-172 83t-91 101t-44 78.5q-46 87 -44 194q2 74 28 130q26 57 75.5 95t108.5 59q76 28 160 23q82 -6 153 -47
q32 -18 60 -39q7 21 17 44q15 31 42 49q16 9 53.5 16t66.5 4.5t59 -15t29 -42.5q0 -16 -5.5 -33t-9.5 -33q-43 -149 -46 -343q-4 -175 0.5 -304t-41.5 -219.5t-104 -119t-120 -41.5q-77 -17 -159 -12q-60 3 -120.5 17t-115.5 52q-21 14 -40 32q-29 26 -74.5 96.5t4.5 92.5
q140 53 183 -13.5t108 -81.5q83 -21 170 0q86 33 97 106t8 80z" />
    <glyph glyph-name="h" unicode="h" horiz-adv-x="847" 
d="M153 9q-16 5 -25 11q-31 21 -47 61.5t-25 79.5q-17 74 -27 189t-11.5 237.5t4.5 235.5t21 183q13 65 31 101q15 30 38 41q25 13 61 15.5t64 -0.5q41 -5 64.5 -26t15.5 -81q-17 -135 -20 -287q49 9 97 5q105 -7 189 -66q90 -63 138.5 -163.5t70.5 -201.5q15 -70 27 -195
t-18 -192q-11 -23 -34 -26q-40 -6 -84 11.5t-67 39.5q-10 8 -14 20q-7 16 -5 35t4 36q10 62 0.5 155.5t-17.5 151.5q-17 59 -45 96q-60 90 -127.5 92t-84.5 -79q-14 -65 -5 -166q0 -3 1 -7q12 -84 32 -160q5 -17 16 -52q13 -41 3 -54q-3 -3 -5 -6q-8 -19 -27 -30
q-32 -17 -73 -19q-31 -1 -62 3q-13 -1 -26 0q-15 1 -28 12z" />
    <glyph glyph-name="i" unicode="i" horiz-adv-x="337" 
d="M32.5 549q15.5 154 49 211.5t66.5 54.5q33 -2 63 -7q27 -6 43 -11q4 -1 10 -5q3 -2 8 -8l9 -9q2 -2 7 -10q3 -4 5 -12l4 -20q0 -2 3 -19q1 -12 -12.5 -189.5t16.5 -412.5q-1 -25 -6 -49t-10 -33q-9 -14 -37 -21q-13 -3 -28.5 -3.5t-31.5 0.5q-30 1 -64 7q-25 4 -44 11
q-5 3 -8 5q-3 1 -9 8q-3 2 -8 9q0 -1 -7 10q-3 2 -5 12q-2 7 -5 20q-1 10 -12.5 158.5t4 302.5zM267.5 1116q37.5 -36 37.5 -88q0 -51 -37.5 -87.5t-91.5 -36.5q-52 0 -89.5 36.5t-37.5 87.5q0 52 37.5 88t89.5 36q54 0 91.5 -36z" />
    <glyph glyph-name="j" unicode="j" horiz-adv-x="662" 
d="M639 1041q0 -50 -37 -85t-90 -35t-90.5 35t-37.5 85t37.5 84.5t90.5 34.5t90 -34.5t37 -84.5zM381 585q2 215 9 225q12 16 51.5 27t74.5 0.5t58 -15.5q4 0 11 -4l12 -9l10 -9q4 -2 10 -9q4 -5 7 -13q2 -10 4 -19q2 -3 5 -20q1 -12 -3.5 -53.5t-4 -353.5t-73.5 -425
q-42 -52 -84 -85.5t-102 -54.5q-75 -29 -180.5 -38.5t-135.5 46.5t-13 109t175 84t162.5 216.5t6.5 400.5z" />
    <glyph glyph-name="k" unicode="k" horiz-adv-x="805" 
d="M226 558q96 136 142 188.5t102 87.5q23 15 51.5 28t55.5 9q30 -5 85.5 -50.5t16.5 -83.5q-10 -10 -24 -18t-26 -16q-73 -44 -124.5 -96t-101.5 -108q35 -24 94.5 -68t121 -90.5t112.5 -87.5t69 -59q42 -44 -21 -100t-95 -61q-31 -6 -76 26.5t-90.5 70.5t-91 82t-100.5 89
q-50 37 -73 43q35 -146 72 -228q6 -14 13.5 -29t9.5 -30q3 -28 -24.5 -42.5t-66 -19.5t-61.5 -2.5t-40 9.5q-30 11 -48 39.5t-29 54.5q-22 52 -39.5 133.5t-28 169t-13 329t5.5 293.5q8 46 22 74q11 23 31 32q23 12 41.5 15t44.5 3q38 -1 61 -13.5t22 -56.5q-5 -59 0 -517z
" />
    <glyph glyph-name="l" unicode="l" horiz-adv-x="322" 
d="M262 1048q-21 -206 -15 -452.5t46 -435.5q3 -20 8 -41.5t7 -42.5q0 -37 -26 -53.5t-60 -19t-67 5.5t-47 20q-26 20 -39 60t-20 78q-14 73 -21.5 186.5t-9 234.5t3.5 232t17 179q10 64 25 100q12 30 30 41q22 12 50.5 14.5t51.5 -1.5q33 -4 52.5 -24.5t13.5 -80.5z" />
    <glyph glyph-name="m" unicode="m" horiz-adv-x="1259" 
d="M791 351q10 -70 9 -164t-37 -161q-13 -23 -36 -26q-40 -6 -83 11.5t-64 39.5q-9 8 -12 20q-6 16 -2.5 35t7.5 36q15 62 16 124.5t-3 120.5q-12 59 -37 96q-53 90 -110.5 92t-80.5 -79q-19 -65 -18 -166v-7q6 -84 19 -160q4 -17 12 -52q10 -41 -1 -54l-6 -6
q-9 -19 -30 -30q-33 -17 -74 -19q-31 -1 -61 3q-14 -1 -26 0q-16 1 -28 12q-15 5 -24 11q-29 21 -41.5 61.5t-18.5 79.5q-11 74 -12 189t7.5 237.5t48.5 171.5q17 30 41 41q26 13 62 15.5t64 -0.5q41 -5 62.5 -26t11.5 -77q46 46 116 50.5t150 -54.5q21 -16 40 -34
q54 84 231 93q75 -4 155 -63q85 -63 125 -163.5t54 -201.5q10 -70 9 -164t-37 -161q-13 -23 -36 -26q-40 -6 -83 11.5t-64 39.5q-9 8 -12 20q-6 16 -2.5 35t7.5 36q15 62 16 124.5t-3 120.5q-12 59 -37 96q-49 105 -120 82t-64 -210z" />
    <glyph glyph-name="n" unicode="n" horiz-adv-x="807" 
d="M122 14q-15 5 -24 11q-29 21 -42 61.5t-18 79.5q-11 74 -12 189t7.5 237.5t48.5 171.5q17 30 41 41q26 13 62 15.5t64 -0.5q41 -5 62.5 -26t11.5 -77q83 63 131 59q75 -4 155 -63q84 -63 124.5 -163.5t54.5 -201.5q10 -70 9 -164t-37 -161q-13 -23 -36 -26
q-40 -6 -83 11.5t-64 39.5q-9 8 -12 20q-6 16 -2.5 35t6.5 36q15 62 16 124.5t-2 120.5q-12 59 -37 96q-53 90 -120.5 92t-90.5 -79q-19 -65 -18 -166v-7q6 -84 19 -160q3 -17 12 -52q10 -41 -1 -54l-6 -6q-9 -19 -30 -30q-33 -17 -74 -19q-31 -1 -61 3q-14 -1 -27 0
q-15 1 -27 12z" />
    <glyph glyph-name="o" unicode="o" horiz-adv-x="800" 
d="M43 477q50 96 109 153q23 22 30 28q94 83 214 114q101 27 197 1q45 -14 90 -48.5t68 -76.5q25 -48 31 -120q9 -106 -19 -191q-18 -52 -51.5 -100.5t-69.5 -87.5q-54 -57 -122.5 -97.5t-148.5 -47.5q-83 -6 -156 19q-58 20 -106.5 54.5t-74.5 89.5q-27 53 -30 124
q-4 101 39 186zM227 404q-25 -76 34.5 -157t162.5 -38q64 27 93 76.5t30 103.5q2 123 -133 148t-187 -133z" />
    <glyph glyph-name="p" unicode="p" horiz-adv-x="892" 
d="M524.5 235q-57.5 -28 -112.5 -14t-91.5 63t-30.5 116q8 61 41.5 112t105.5 75q107 36 160 -61.5t19 -179.5q-34 -83 -91.5 -111zM216 753q-15 31 -41 46q-16 9 -50.5 14t-70.5 1.5t-62 -18t-25 -44.5q2 -16 7.5 -33t11.5 -32q48 -149 62.5 -343.5t-3.5 -630.5
q-4 -47 16.5 -62.5t55.5 -17.5q24 -2 54 1t52 14q18 10 30 34q13 290 20 319q5 -2 11 -3q99 -25 205 9q123 39 217 130q14 14 30 31q34 37 60 79t46 87q40 91 31 199q-6 74 -35 128q-30 56 -83 91t-113 53q-79 24 -162 13t-153 -56q-47 -31 -87 -69q-9 29 -24 60z" />
    <glyph glyph-name="q" unicode="q" horiz-adv-x="870" 
d="M369 247q63 -27 117 -10t85.5 70t16.5 124q-16 64 -57 116.5t-118 74.5q-116 33 -157 -72t4 -190q46 -86 109 -113zM649 779q14 32 40 48q15 9 49.5 15.5t70.5 4.5t62.5 -15t26.5 -43q-1 -17 -6 -34t-10 -32q-41 -151 -47.5 -346t24.5 -573q6 -47 -14 -63t-55 -20
q-24 -3 -54 -1t-52 12q-19 9 -32 32q-19 233 -27 261q-6 -2 -11 -3q-98 -29 -206 0q-124 34 -222 121q-15 13 -31 29q-36 36 -63.5 77t-49.5 85q-44 89 -40 197q3 74 30 130q27 57 78.5 94t110.5 58q78 27 162 20q84 -8 155 -50q49 -28 90 -66q8 30 21 62z" />
    <glyph glyph-name="r" unicode="r" horiz-adv-x="663" 
d="M141 14q-15 5 -24 11q-29 21 -42 61.5t-18 79.5q-11 74 -12 189t7.5 237.5t48.5 171.5q17 30 41 41q26 13 62 15.5t64 -0.5q41 -5 62.5 -26t11.5 -77q83 63 214 38t113 -126t-155 -78t-160 -58q-19 -65 -18 -166v-7q6 -84 19 -160q3 -17 12 -52q10 -41 -1 -54l-6 -6
q-9 -19 -30 -30q-33 -17 -74 -19q-31 -1 -61 3q-14 -1 -27 0q-15 1 -27 12z" />
    <glyph glyph-name="s" unicode="s" horiz-adv-x="752" 
d="M561 489l60 -41q3 -2 5 -3q72 -44 100.5 -104t0.5 -135q-29 -74 -103 -126q-49 -34 -118 -48.5t-143 -10.5v-2h-1q-92 6 -88 13q-33 7 -57 14l-111 52q-33 20 -57 46q-1 2 -2 2.5t-1 2.5q-2 1 -2.5 2t-1.5 2q-13 15 -14 32v5q1 22 2.5 53.5t10.5 51.5q9 23 27 14.5
t31 -19.5q1 -1 2.5 -2t3.5 -2q30 -27 69 -46q88 -42 213 -40q4 2 13 7q27 16 12 43q-1 2 -2 3.5t-1 2.5q-8 10 -149 88q-135 93 -155 123q-48 72 -28.5 143.5t84.5 124.5q115 94 368 68q31 -9 55 -18q9 -4 26 -12q17 -10 39 -21q29 -12 23 -26q2 -2 4 -5q15 -19 23.5 -53.5
t-13.5 -54.5q-3 -2 -4 -3q-19 -15 -55 -6q-39 11 -76 18l-42 10q-80 10 -117 10q-74 -25 36 -96q9 -8 133 -57z" />
    <glyph glyph-name="t" unicode="t" horiz-adv-x="679" 
d="M176 808q5 90 16 149q12 61 28 95q13 29 31 39q24 12 68 16t69 1q35 -5 55.5 -24.5t14.5 -77.5q-10 -93 -15 -195q24 -1 48 -3q39 -4 78 -16q39 -11 63 -31q17 -15 26 -49q8 -30 6 -69q-3 -37 -12 -60q-11 -26 -28 -25q-8 0 -17 3q-7 1 -20 6q-60 20 -136 24h-10
q0 -10 1 -20q6 -237 48 -419q4 -19 9.5 -39.5t6.5 -40.5q0 -37 -27 -53t-63 -18t-85.5 4.5t-64.5 17.5q-27 19 -41 57.5t-21 75.5q-15 70 -23.5 179t-9.5 225q-1 19 -1 38h-5q-59 -1 -116 -11q-15 -3 -19 -3q-9 0 -17 3q-6 3 -12 11q-4 6 -8 20q-7 25 -6.5 56t6.5 57
q6 28 38 44q18 9 41 17q16 4 47 10q13 2 46 6h11z" />
    <glyph glyph-name="u" unicode="u" horiz-adv-x="806" 
d="M690 771q16 -5 24 -11q30 -21 42.5 -61.5t18.5 -79.5q11 -74 12 -189t-7.5 -237.5t-48.5 -171.5q-17 -30 -41 -41q-26 -13 -62.5 -15.5t-64.5 0.5q-40 5 -62 26t-12 77q-82 -63 -130 -59q-76 4 -155 63q-85 63 -125.5 163.5t-54.5 201.5q-9 70 -8 164t36 161q13 23 37 26
q40 6 82.5 -11.5t63.5 -39.5q10 -8 13 -20q6 -16 2.5 -35t-7.5 -36q-15 -62 -16 -124.5t2 -120.5q13 -59 38 -96q53 -90 120 -92t91 79q19 65 18 166v7q-6 84 -19 160q-4 17 -12 53q-10 40 1 53l6 6q9 19 29 30q33 17 75 19q31 1 61 -3q14 1 26 0q15 -1 27 -12z" />
    <glyph glyph-name="v" unicode="v" horiz-adv-x="830" 
d="M179 756q50 -116 120 -250t199 -278q71 192 94 329.5t33 251.5q3 45 26 55.5t60 6.5q25 -3 45 -11.5t41 -22.5q17 -13 25 -37q11 -31 12 -77q1 -54 -11 -137t-32.5 -171t-47 -169t-52.5 -131q-14 -26 -34.5 -52.5t-49.5 -34.5q-53 -16 -133 4t-119 56q-43 38 -95 105.5
t-101 143.5t-88 150t-55 125q-15 45 -15 77q-1 24 11 43q15 20 28.5 31t36.5 23q33 15 58.5 13t43.5 -43z" />
    <glyph glyph-name="w" unicode="w" horiz-adv-x="1019" 
d="M511 325q-55 -166 -86 -214q-12 -18 -25.5 -35.5t-27.5 -31.5q-7 -7 -14 -11q-11 -8 -37 -16q-21 -5 -38.5 -7.5t-40.5 3.5q-19 5 -35 23q-22 24 -41 64q-23 46 -46.5 121t-43 157t-32 160.5t-10.5 129.5q0 27 5 56t25 46q22 20 84.5 35t74.5 -38q3 -14 2 -29.5t-1 -29.5
q-4 -95 14 -209.5t58 -260.5q101 151 120 246.5t27.5 125t65.5 33t66 -26t31 -115.5q28 -110 114 -266q50 148 68.5 262.5t15.5 210.5q0 14 -1.5 29t2.5 29q12 53 78 41t90 -32q21 -17 26.5 -46t5.5 -56q1 -51 -11.5 -129.5t-33 -161t-45.5 -158t-49 -121.5q-19 -39 -41 -64
q-17 -19 -38 -23q-23 -7 -39.5 -6.5t-39.5 4.5q-27 8 -37 16q-8 5 -15 11q-15 14 -28.5 31.5t-26.5 34.5q-33 49 -90 218z" />
    <glyph glyph-name="x" unicode="x" horiz-adv-x="731" 
d="M188 791q68 -116 195 -278q124 174 169 297q18 46 45.5 49.5t79 -24t38.5 -85.5q1 -37 -13 -86q-14 -55 -51 -135.5t-119 -192.5q68 -62 132 -105q14 -10 29.5 -20t26.5 -22q21 -24 5.5 -54t-29 -42.5t-40.5 -29t-46 -19.5q-33 -6 -65.5 10t-58.5 35q-34 23 -108 93
q-70 -71 -90 -91q-22 -22 -51.5 -43.5t-63.5 -21.5q-19 0 -32.5 8.5t-35 24.5t-42 42.5t-4.5 53.5q9 14 22.5 26.5t25.5 24.5q54 53 112 127q-62 74 -113 147t-75 124q-9 19 -17 39.5t-11 41.5q-3 28 7 49q14 24 27 42t37 33q33 21 61 22.5t53 -40.5z" />
    <glyph glyph-name="y" unicode="y" horiz-adv-x="870" 
d="M44 702q27 42 47.5 61t58.5 49q42 18 84 -24q61 -61 102.5 -174t97.5 -181q17 -23 37.5 -8.5t34.5 31.5q41 47 79.5 132t65.5 145q16 37 35.5 53.5t57.5 -0.5q36 -18 60.5 -45.5t47.5 -64.5q26 -41 13 -109q-17 -87 -59.5 -172t-81.5 -158q-42 -75 -87.5 -144t-92.5 -137
l-88 -120t-96 -108q-55 -51 -102 -66q-35 -11 -82.5 14.5t-66.5 55t-37.5 62.5t1.5 63q16 24 47.5 48.5t53.5 53.5q20 25 38.5 41.5t51.5 71.5q63 86 -2 176q-26 45 -73.5 109.5t-76.5 105.5q-20 29 -39.5 60.5t-33.5 66.5q-14 31 -14.5 55.5t19.5 56.5z" />
    <glyph glyph-name="z" unicode="z" horiz-adv-x="788" 
d="M103 205q7 10 17.5 19.5t19.5 18.5q79 83 179.5 202.5t149.5 276.5q-81 -18 -223 -36t-173 9q-21 17 -36 66t37 63q20 5 78 15q45 7 123 17q33 4 66.5 8t64.5 8q62 7 106 15t101 -15q12 -4 28 -12q54 -28 62.5 -62t-4.5 -92q-18 -81 -84 -208.5t-240 -305.5
q198 33 285 72q13 6 27.5 12.5t29.5 9.5q52 9 58 -53t-6 -90q-11 -26 -37.5 -42t-51.5 -27q-99 -41 -232.5 -55t-233.5 -6q-46 5 -71 15q-39 14 -53.5 81.5t13.5 95.5z" />
    <glyph glyph-name="braceleft" unicode="{" horiz-adv-x="424" 
d="M0 578q0 45 6 86q5 45 17 92t29 96q18 52 41 101q7 16 15 32t15 32q7 14 15 28t15 28q8 12 15.5 25t15.5 25q25 37 46 64.5t61 -35.5q2 -5 5 -10l6 -10q-2 3 14 -21q10 -17 14 -24q48 -81 32.5 -109.5t-55.5 -117.5q-5 -10 -8.5 -18.5t-6.5 -15.5q-8 -16 -13 -31
q-13 -36 -18 -54q-10 -38 -13 -54q-3 -14 -8 -50q-2 -27 -2 -50q0 -18 4 -41q1 -14 9 -42q8 -23 19 -43q10 -24 24 -42q-1 1 11 -16q11 -17 20 -29q13 -17 30 -41q30 -45 40 -68.5t-29 -72.5q-10 -13 -22 -27q-11 -15 -25 -32q-7 -8 -14.5 -17.5t-14.5 -18.5q-2 -1 -5 -7
q-2 -2 -12 -14q1 1 -19 -23q-34 -40 -46 -36.5t-50 54.5q-9 12 -31 49q-16 23 -30 57q-18 34 -29 66q-16 37 -30 84q-15 51 -21 84q-8 37 -13 84q-4 46 -4 83z" />
    <glyph glyph-name="bar" unicode="|" horiz-adv-x="413" 
d="M242 1060q-8 -106 -5 -212t13 -211q9 -116 19.5 -253t37.5 -245q7 -24 9 -35q3 -17 5 -32q1 -32 -27 -52q-27 -19 -68 -20q-42 -2 -78 11q-40 16 -57 46q-24 42 -40 114q-17 69 -24 140.5t-12 142.5q-2 19 -3.5 39t-2.5 39q-2 20 -3 39.5t-2 39.5q-2 26 -3 79
q-1 26 -1 79t1 81q1 56 3 84q3 46 8 83q5 41 15 76q16 57 47 67q69 24 128 -1q16 -9 23 -16q9 -8 13 -22q4 -13 5 -27q0 -22 -1 -34z" />
    <glyph glyph-name="braceright" unicode="}" horiz-adv-x="486" 
d="M418 605q0 -45 -6 -87q-7 -45 -17 -93q-14 -55 -29 -97q-21 -57 -41 -103q-16 -37 -30 -64q-8 -16 -15.5 -30.5t-15.5 -27.5q-19 -33 -31 -50q-24 -38 -45.5 -65.5t-60.5 35.5q-4 6 -12 20q-3 5 -6.5 10.5t-6.5 11.5q-10 16 -15 23q-48 82 -33 111.5t56 119.5l8 18t8 17
q7 17 12 32q10 25 18 55q8 23 13 54q7 34 8 51q3 26 3 51q0 23 -3 42q-3 14 -11 42q-7 22 -18 43q-9 20 -25 44q-3 5 -10 15q-4 5 -9 12.5t-11 17.5q-10 12 -30 41q-31 45 -41 69.5t29 74.5q5 6 10.5 13t11.5 15q5 7 11.5 15t14.5 17q10 14 29 36l1.5 2t3.5 4q1 1 12 16
q4 4 19 22q33 42 45 37.5t50 -55.5q18 -25 32 -49q12 -21 30 -58q17 -37 29 -68q15 -40 30 -85q14 -51 20 -85q10 -48 13 -85q5 -35 5 -85z" />
    <glyph glyph-name="asciitilde" unicode="~" horiz-adv-x="675" 
d="M635 568q-17 -35 -42 -62q-32 -35 -72 -52q-38 -17 -83 -17q-28 0 -57 18q-30 19 -57 57q-30 37 -53 57q-25 18 -42 18q-23 0 -43 -9q-19 -10 -35 -31q-15 -19 -21 -33q-16 -37 -21.5 -51t-39.5 23l-30 33q-15 12 -7 60t13 60q15 37 45 70q28 32 62 50q32 17 69 17
q19 0 45 -19q25 -20 53 -57q30 -39 52 -55q34 -27 72.5 -15.5t69.5 37.5q39 32 50 69t59 -24l25 -31q22 -4 7 -54t-19 -59z" />
    <glyph glyph-name="exclamdown" unicode="&#xa1;" horiz-adv-x="595" 
d="M3 907q0 55 65 88q56 29 138 29q96 0 153 -37q51 -33 51 -79q0 -50 -57 -84q-55 -35 -146 -35q-94 0 -152 39q-52 35 -52 79zM64 629q-5 13 -8 27q-3 13 1 22q4 10 16 16q12 9 34 13q44 10 100 9t103 -9q51 -7 87 -53q23 -25 41 -61q15 -25 31 -64q10 -27 22 -67l10 -32
t9 -32q8 -29 14 -63q4 -14 7 -30l6 -32q3 -18 8 -62q5 -30 7 -62q7 -56 11 -112t-7 -111q-10 -56 -41 -90q-18 -23 -81 -37q-54 -11 -121 -8q-66 3 -111 17q-50 16 -54 41v24q2 7 7 28q21 85 9 193.5t-22 199.5q-8 84 -26 168t-52 167z" />
    <glyph glyph-name="dieresis" unicode="&#xa8;" horiz-adv-x="733" 
d="M238 1117q47 0 76 -33q28 -32 28 -74q0 -52 -34 -82q-30 -25 -70 -25q-43 0 -73 30q-30 31 -30 77q0 49 35 80q31 27 68 27zM504 1122q48 0 77 -34q27 -30 27 -73q0 -51 -34 -81q-29 -26 -69 -26q-43 0 -74 30q-30 28 -30 76q0 51 35 81q31 27 68 27z" />
    <glyph glyph-name="copyright" unicode="&#xa9;" horiz-adv-x="1371" 
d="M171 758q22 64 52 123.5t75 110.5q18 23 38 43q121 126 293 174q149 42 297 1q72 -20 147.5 -73t120.5 -117q29 -42 46.5 -89.5t29.5 -93.5q39 -162 17 -293q-14 -79 -52.5 -153.5t-82.5 -133.5q-67 -89 -161.5 -149.5t-212.5 -72.5q-120 -10 -239 29q-91 30 -173.5 83.5
t-136.5 136.5q-50 81 -72 189q-31 156 14 285zM365 785q-79 -190 39 -427t374 -163q165 50 245 169t97 261q18 160 -66.5 280t-209 159t-260.5 -22t-219 -257zM871 913q36 -8 57 -21q25 -15 25 -35q0 -24 -1.5 -38.5t-13.5 -35.5q-17 -30 -33 -30q-15 0 -28.5 5t-27.5 10
q-28 9 -76 7.5t-91 -21t-77.5 -61t0.5 -141.5q17 -49 68.5 -70.5t105.5 -15.5q42 3 78 51.5t118 -1.5q29 -19 -5.5 -61.5t-54.5 -56.5q-15 -11 -29 -17q-38 -21 -76.5 -24t-76.5 0q-51 5 -98 24q-36 14 -70 38t-60 60q-48 64 -64 143q-26 121 59 203q43 41 96.5 62t103.5 28
q42 7 86 7t85 -9z" />
    <glyph glyph-name="acute" unicode="&#xb4;" horiz-adv-x="428" 
d="M349 952q-160 -56 -293 -80q-14 -2 -22 14q-21 56 -10 103q5 33 18 41q58 37 115.5 75.5t117.5 68.5q30 15 44 -7q51 -91 64 -170q5 -30 -34 -45z" />
    <glyph glyph-name="cedilla" unicode="&#xb8;" horiz-adv-x="838" 
d="M546 -160q0 -87 -90 -160q-45 -37 -123.5 -66t-43.5 60q14 38 14 76l-1 19q-27 5 -44 32q-17 25 -17 62q0 53 43 92q45 37 106 37q65 0 107 -38q49 -42 49 -114z" />
    <glyph glyph-name="questiondown" unicode="&#xbf;" horiz-adv-x="791" 
d="M36 108q19 125 125 191q50 31 192 76q104 34 109 70q6 44 -51 52q-3 0 -6.5 0.5t-8.5 0.5h-7h-8q-5 0 -16 -1q-73 -11 -81 49l-5 41l-5 40q-10 83 68.5 96.5t151.5 3.5q117 -17 185 -72q70 -55 56 -144q-6 -43 -49 -82q-44 -40 -89 -79q-4 -27 5 -49q3 -8 7 -13
q3 -6 9 -11q7 -5 12 -7q8 -3 14 -4q4 -1 13 -1q4 0 13 1q7 0 14 3q4 1 8.5 2.5l7.5 2.5q54 19 52.5 -21.5t-4.5 -84.5l-6 -102l-7 -102q-6 -107 -31 -133t-147 -33q-90 -6 -190 8q-162 25 -251 97q-98 82 -80 205zM377 918q8 50 62 82t130 22q62 -8 109 -50q51 -46 43 -104
q-7 -49 -63 -81q-56 -33 -128 -23q-64 9 -114 54q-47 47 -39 100z" />
    <glyph glyph-name="Agrave" unicode="&#xc0;" 
d="M768 314q-87 -28 -208.5 -44.5t-195.5 -12.5q-19 -89 -29 -162q-10 -69 -47.5 -81.5t-92.5 -2.5q-38 7 -70 24.5t-63 42.5q-25 21 -34 59q-8 28 -9 60t1 61q4 81 32.5 206.5t70.5 257.5t92.5 253t98.5 195q23 38 57.5 76t81.5 48q47 9 124 -3t115 -44
q67 -36 139.5 -162.5t134 -278t105.5 -296.5t54 -218q10 -72 3 -121q-7 -41 -30 -61q-29 -28 -59.5 -45.5t-67.5 -27.5q-54 -15 -92.5 -5.5t-52.5 77.5q-23 91 -58 205zM375 439q173 -3 361 43q-86 228 -196 434q-94 -220 -165 -477zM461 1605q141 -92 242 -183
q11 -10 2 -26q-31 -50 -74 -71q-30 -16 -43 -11q-66 23 -131.5 45.5t-126.5 51.5q-30 14 -21 38q40 96 95 155q21 23 57 1z" />
    <glyph glyph-name="Aacute" unicode="&#xc1;" 
d="M768 314q-87 -28 -208.5 -44.5t-195.5 -12.5q-19 -89 -29 -162q-10 -69 -47.5 -81.5t-92.5 -2.5q-38 7 -70 24.5t-63 42.5q-25 21 -34 59q-8 28 -9 60t1 61q4 81 32.5 206.5t70.5 257.5t92.5 253t98.5 195q23 38 57.5 76t81.5 48q47 9 124 -3t115 -44
q67 -36 139.5 -162.5t134 -278t105.5 -296.5t54 -218q10 -72 3 -121q-7 -41 -30 -61q-29 -28 -59.5 -45.5t-67.5 -27.5q-54 -15 -92.5 -5.5t-52.5 77.5q-23 91 -58 205zM375 439q173 -3 361 43q-86 228 -196 434q-94 -220 -165 -477zM782 1362q-160 -56 -293 -80
q-14 -2 -22 14q-21 56 -10 103q5 33 18 41q58 37 115.5 75.5t117.5 68.5q30 15 44 -7q51 -91 64 -170q5 -30 -34 -45z" />
    <glyph glyph-name="Acircumflex" unicode="&#xc2;" 
d="M768 314q-87 -28 -208.5 -44.5t-195.5 -12.5q-19 -89 -29 -162q-10 -69 -47.5 -81.5t-92.5 -2.5q-38 7 -70 24.5t-63 42.5q-25 21 -34 59q-8 28 -9 60t1 61q4 81 32.5 206.5t70.5 257.5t92.5 253t98.5 195q23 38 57.5 76t81.5 48q47 9 124 -3t115 -44
q67 -36 139.5 -162.5t134 -278t105.5 -296.5t54 -218q10 -72 3 -121q-7 -41 -30 -61q-29 -28 -59.5 -45.5t-67.5 -27.5q-54 -15 -92.5 -5.5t-52.5 77.5q-23 91 -58 205zM375 439q173 -3 361 43q-86 228 -196 434q-94 -220 -165 -477zM617 1593q2 -2 14 -8q20 -13 36.5 -29.5
t33.5 -32.5q6 -6 18 -19q12 -12 17 -18q16 -18 17 -19q3 -5 7 -10t8 -9l15 -21q7 -10 15 -22q7 -14 12 -23q6 -13 7 -22q4 -18 -8 -28q-26 -21 -58 -30q-6 -1 -14 -1q-6 0 -10 3q-5 1 -7 5q-2 2 -7 9q-28 47 -84 105q-16 14 -33 32t-34 35q-11 -13 -29 -39
q-21 -30 -46.5 -65.5t-35.5 -66.5q-1 -3 -2 -5.5t-2 -4.5q-6 -11 -4 -9q-8 -9 -25 -7q-14 1 -36 9q-19 7 -33 19q-16 12 -17 23q-2 15 5 36q8 20 20 38.5t26 37.5q4 4 7.5 9.5t6.5 10.5q8 11 16 20q3 4 7 9l8 10q5 7 17 20t18 19q13 14 20 20q12 11 22 18q12 9 24 16
q20 10 36 5q30 -5 52 -20z" />
    <glyph glyph-name="Atilde" unicode="&#xc3;" 
d="M768 314q-87 -28 -208.5 -44.5t-195.5 -12.5q-19 -89 -29 -162q-10 -69 -47.5 -81.5t-92.5 -2.5q-38 7 -70 24.5t-63 42.5q-25 21 -34 59q-8 28 -9 60t1 61q4 81 32.5 206.5t70.5 257.5t92.5 253t98.5 195q23 38 57.5 76t81.5 48q47 9 124 -3t115 -44
q67 -36 139.5 -162.5t134 -278t105.5 -296.5t54 -218q10 -72 3 -121q-7 -41 -30 -61q-29 -28 -59.5 -45.5t-67.5 -27.5q-54 -15 -92.5 -5.5t-52.5 77.5q-23 91 -58 205zM375 439q173 -3 361 43q-86 228 -196 434q-94 -220 -165 -477zM865 1409q-17 -27 -42 -47
q-32 -26 -72 -39q-38 -14 -83 -14q-28 0 -57 14q-30 15 -57 43q-29 28 -53 43q-25 14 -42 14q-23 0 -43 -7q-19 -7 -35 -23q-15 -15 -20 -25q-17 -28 -22 -39t-40 17l-30 25q-15 10 -6.5 46t13.5 45q14 28 44 52q28 25 62 38q32 13 69 13q19 0 45 -14q25 -15 53 -42
q30 -31 53 -43q33 -20 71.5 -11.5t69.5 28.5q39 24 50 52t59 -18l25 -23q22 -3 7 -41t-19 -44z" />
    <glyph glyph-name="Adieresis" unicode="&#xc4;" 
d="M768 314q-87 -28 -208.5 -44.5t-195.5 -12.5q-19 -89 -29 -162q-10 -69 -47.5 -81.5t-92.5 -2.5q-38 7 -70 24.5t-63 42.5q-25 21 -34 59q-8 28 -9 60t1 61q4 81 32.5 206.5t70.5 257.5t92.5 253t98.5 195q23 38 57.5 76t81.5 48q47 9 124 -3t115 -44
q67 -36 139.5 -162.5t134 -278t105.5 -296.5t54 -218q10 -72 3 -121q-7 -41 -30 -61q-29 -28 -59.5 -45.5t-67.5 -27.5q-54 -15 -92.5 -5.5t-52.5 77.5q-23 91 -58 205zM375 439q173 -3 361 43q-86 228 -196 434q-94 -220 -165 -477zM441 1527q47 0 76 -33q28 -32 28 -74
q0 -52 -34 -82q-30 -25 -70 -25q-43 0 -73 30q-30 31 -30 77q0 49 35 80q31 27 68 27zM707 1532q48 0 77 -34q27 -30 27 -73q0 -51 -34 -81q-29 -26 -69 -26q-43 0 -74 30q-30 28 -30 76q0 51 35 81q31 27 68 27z" />
    <glyph glyph-name="Aring" unicode="&#xc5;" 
d="M768 314q-87 -28 -208.5 -44.5t-195.5 -12.5q-19 -89 -29 -162q-10 -69 -47.5 -81.5t-92.5 -2.5q-38 7 -70 24.5t-63 42.5q-25 21 -34 59q-8 28 -9 60t1 61q4 81 32.5 206.5t70.5 257.5t92.5 253t98.5 195q23 38 57.5 76t81.5 48q47 9 124 -3t115 -44
q67 -36 139.5 -162.5t134 -278t105.5 -296.5t54 -218q10 -72 3 -121q-7 -41 -30 -61q-29 -28 -59.5 -45.5t-67.5 -27.5q-54 -15 -92.5 -5.5t-52.5 77.5q-23 91 -58 205zM375 439q173 -3 361 43q-86 228 -196 434q-94 -220 -165 -477zM454 1445q17 33 38 53q7 7 10 9
q32 29 73 39q35 9 68 0q16 -4 31 -16t23 -26q9 -17 11 -41q3 -37 -7 -66q-5 -18 -17 -34.5t-24 -30.5q-18 -19 -42 -33t-51 -17q-29 -1 -54 7q-20 7 -36.5 18.5t-25.5 30.5t-10 43q-2 35 13 64zM511 1418q-12 -32 12 -66.5t68 -16.5q28 12 41 33t14 43q3 52 -54 62.5
t-81 -55.5z" />
    <glyph glyph-name="AE" unicode="&#xc6;" horiz-adv-x="1916" 
d="M375 439q173 -3 361 43q-86 228 -196 434q-94 -220 -165 -477zM956 33q-44 -10 -77 -1q-39 9 -53 77q-23 91 -58 205q-87 -28 -208.5 -44.5t-195.5 -12.5q-19 -89 -29 -162q-10 -69 -47.5 -81.5t-92.5 -2.5q-38 7 -70 24.5t-63 42.5q-25 21 -34 59q-8 28 -9 60t1 61
q4 81 32.5 206.5t70.5 257.5t92.5 253t98.5 195q23 38 57.5 76t81.5 48q47 9 124 -3t115 -44q50 -27 104 -105q16 23 41 35q19 8 40 13.5t42 12.5q134 45 323.5 71.5t340.5 5.5q38 -6 80 -18.5t67 -42.5q27 -34 44.5 -127.5t-59.5 -98.5q-21 -2 -43 2t-42 7
q-196 21 -317 16.5t-250 -27.5q-4 -167 3 -261q109 13 209 23t137 9q89 -2 85.5 -75t-37.5 -102q-27 -37 -139.5 -58t-224.5 -30q24 -159 47 -237q19 1 42.5 3t53.5 5q117 9 256 29t234 50q10 2 20.5 6t20.5 8q24 6 42 8q39 2 56 -30.5t21 -76.5q5 -40 -24 -91
q-17 -29 -59 -52q-28 -15 -77 -29q-74 -22 -187 -37t-233 -21q-73 -5 -190 -11q-105 -6 -163 12z" />
    <glyph glyph-name="Ccedilla" unicode="&#xc7;" horiz-adv-x="1265" 
d="M979 1228q79 -18 125 -45q54 -33 54 -78q0 -52 -3 -83t-29 -77q-38 -66 -73 -66q-32 0 -63 10.5t-60 20.5q-61 20 -167 16.5t-199 -45.5t-169 -133.5t0 -310.5q37 -107 151 -154t232 -36q90 9 169 115t259 -4q63 -42 -12.5 -134.5t-119.5 -124.5q-31 -22 -62 -38
q-83 -44 -167.5 -51.5t-168.5 0.5q-111 10 -213 51q-82 32 -156 85t-130 130q-105 141 -140 314q-57 267 129 445q93 91 210.5 136t227.5 63q92 14 188 14t187 -20zM782 -160q0 -87 -90 -160q-45 -37 -123.5 -66t-43.5 60q14 38 14 76l-1 19q-27 5 -44 32q-17 25 -17 62
q0 53 43 92q45 37 106 37q65 0 107 -38q49 -42 49 -114z" />
    <glyph glyph-name="Egrave" unicode="&#xc8;" horiz-adv-x="1178" 
d="M119 1170q19 8 40 13.5t42 12.5q134 45 323.5 71.5t340.5 5.5q38 -6 80 -18.5t67 -42.5q27 -34 44.5 -127.5t-59.5 -98.5q-21 -2 -43 2t-42 7q-196 21 -317 16.5t-250 -27.5q-4 -167 3 -261q109 13 209 23t137 9q89 -2 85.5 -75t-37.5 -102q-27 -37 -139.5 -58
t-224.5 -30q24 -159 47 -237q19 1 42.5 3t53.5 5q117 9 256 29t234 50q10 2 20.5 6t20.5 8q24 6 42 8q39 2 56 -30.5t21 -76.5q5 -40 -24 -91q-17 -29 -59 -52q-28 -15 -77 -29q-74 -22 -187 -37t-233 -21q-73 -5 -190 -11.5t-176 17.5q-43 17 -67.5 57t-39.5 78
q-30 73 -51.5 188.5t-33 239t-11.5 238.5t15 188q13 65 35 105q17 31 47 45zM483 1605q141 -92 242 -183q11 -10 2 -26q-31 -50 -74 -71q-30 -16 -43 -11q-66 23 -131.5 45.5t-126.5 51.5q-30 14 -21 38q40 96 95 155q21 23 57 1z" />
    <glyph glyph-name="Eacute" unicode="&#xc9;" horiz-adv-x="1178" 
d="M119 1170q19 8 40 13.5t42 12.5q134 45 323.5 71.5t340.5 5.5q38 -6 80 -18.5t67 -42.5q27 -34 44.5 -127.5t-59.5 -98.5q-21 -2 -43 2t-42 7q-196 21 -317 16.5t-250 -27.5q-4 -167 3 -261q109 13 209 23t137 9q89 -2 85.5 -75t-37.5 -102q-27 -37 -139.5 -58
t-224.5 -30q24 -159 47 -237q19 1 42.5 3t53.5 5q117 9 256 29t234 50q10 2 20.5 6t20.5 8q24 6 42 8q39 2 56 -30.5t21 -76.5q5 -40 -24 -91q-17 -29 -59 -52q-28 -15 -77 -29q-74 -22 -187 -37t-233 -21q-73 -5 -190 -11.5t-176 17.5q-43 17 -67.5 57t-39.5 78
q-30 73 -51.5 188.5t-33 239t-11.5 238.5t15 188q13 65 35 105q17 31 47 45zM805 1362q-160 -56 -293 -80q-14 -2 -22 14q-21 56 -10 103q5 33 18 41q58 37 115.5 75.5t117.5 68.5q30 15 44 -7q51 -91 64 -170q5 -30 -34 -45z" />
    <glyph glyph-name="Ecircumflex" unicode="&#xca;" horiz-adv-x="1178" 
d="M119 1170q19 8 40 13.5t42 12.5q134 45 323.5 71.5t340.5 5.5q38 -6 80 -18.5t67 -42.5q27 -34 44.5 -127.5t-59.5 -98.5q-21 -2 -43 2t-42 7q-196 21 -317 16.5t-250 -27.5q-4 -167 3 -261q109 13 209 23t137 9q89 -2 85.5 -75t-37.5 -102q-27 -37 -139.5 -58
t-224.5 -30q24 -159 47 -237q19 1 42.5 3t53.5 5q117 9 256 29t234 50q10 2 20.5 6t20.5 8q24 6 42 8q39 2 56 -30.5t21 -76.5q5 -40 -24 -91q-17 -29 -59 -52q-28 -15 -77 -29q-74 -22 -187 -37t-233 -21q-73 -5 -190 -11.5t-176 17.5q-43 17 -67.5 57t-39.5 78
q-30 73 -51.5 188.5t-33 239t-11.5 238.5t15 188q13 65 35 105q17 31 47 45zM639 1593q2 -2 14 -8q20 -13 36.5 -29.5t33.5 -32.5q6 -6 18 -19q12 -12 17 -18q16 -18 17 -19q3 -5 7 -10t8 -9l15 -21q7 -10 15 -22q7 -14 12 -23q6 -13 7 -22q4 -18 -8 -28q-26 -21 -58 -30
q-6 -1 -14 -1q-6 0 -10 3q-5 1 -7 5q-2 2 -7 9q-28 47 -84 105q-16 14 -33 32t-34 35q-11 -13 -29 -39q-21 -30 -46.5 -65.5t-35.5 -66.5q-1 -3 -2 -5.5t-2 -4.5q-6 -11 -4 -9q-8 -9 -25 -7q-14 1 -36 9q-19 7 -33 19q-16 12 -17 23q-2 15 5 36q8 20 20 38.5t26 37.5
q4 4 7.5 9.5t6.5 10.5q8 11 16 20q3 4 7 9l8 10q5 7 17 20t18 19q13 14 20 20q12 11 22 18q12 9 24 16q20 10 36 5q30 -5 52 -20z" />
    <glyph glyph-name="Edieresis" unicode="&#xcb;" horiz-adv-x="1178" 
d="M119 1170q19 8 40 13.5t42 12.5q134 45 323.5 71.5t340.5 5.5q38 -6 80 -18.5t67 -42.5q27 -34 44.5 -127.5t-59.5 -98.5q-21 -2 -43 2t-42 7q-196 21 -317 16.5t-250 -27.5q-4 -167 3 -261q109 13 209 23t137 9q89 -2 85.5 -75t-37.5 -102q-27 -37 -139.5 -58
t-224.5 -30q24 -159 47 -237q19 1 42.5 3t53.5 5q117 9 256 29t234 50q10 2 20.5 6t20.5 8q24 6 42 8q39 2 56 -30.5t21 -76.5q5 -40 -24 -91q-17 -29 -59 -52q-28 -15 -77 -29q-74 -22 -187 -37t-233 -21q-73 -5 -190 -11.5t-176 17.5q-43 17 -67.5 57t-39.5 78
q-30 73 -51.5 188.5t-33 239t-11.5 238.5t15 188q13 65 35 105q17 31 47 45zM464 1527q47 0 76 -33q28 -32 28 -74q0 -52 -34 -82q-30 -25 -70 -25q-43 0 -73 30q-30 31 -30 77q0 49 35 80q31 27 68 27zM730 1532q48 0 77 -34q27 -30 27 -73q0 -51 -34 -81q-29 -26 -69 -26
q-43 0 -74 30q-30 28 -30 76q0 51 35 81q31 27 68 27z" />
    <glyph glyph-name="Igrave" unicode="&#xcc;" horiz-adv-x="653" 
d="M5 184q1 63 65 63q8 0 39.5 -1.5t42.5 -1.5q-5 72 -8 222q0 72 5 179q6 94 15 179q20 170 40 228q-44 4 -53 5q-10 1 -69 6q-7 0 -20 2q-3 0 -16 3q-31 6 -43 40q-11 28 7 73t32 63q21 24 90 34q65 8 147 5q81 -3 153 -12q66 -9 107 -17q7 -1 22 -8q8 -4 21 -12l20 -15
q5 -4 19 -16q6 -6 30 -98q-2 -54 -40 -59t-76 -4q-20 0 -70 2q-17 -157 -23 -232q-7 -73 -11 -173q-4 -87 0 -171q5 -154 13 -227q46 -7 62 -9q11 -1 22.5 -2t20.5 -1q15 -2 36 -4q8 -1 14 -2.5t11 -1.5q30 -7 44 -41l-10 -88q-12 -38 -24 -52q-20 -24 -90 -34
q-32 -5 -70 -5.5t-77 0.5q-72 1 -154 12q-62 7 -107 16q-15 5 -21 9q-6 2 -22 12q-7 5 -20 15q1 -1 -18 15q-6 4 -21.5 48t-14.5 56zM212 1605q141 -92 242 -183q11 -10 2 -26q-31 -50 -74 -71q-30 -16 -43 -11q-66 23 -131.5 45.5t-126.5 51.5q-30 14 -21 38q40 96 95 155
q21 23 57 1z" />
    <glyph glyph-name="Iacute" unicode="&#xcd;" horiz-adv-x="653" 
d="M5 184q1 63 65 63q8 0 39.5 -1.5t42.5 -1.5q-5 72 -8 222q0 72 5 179q6 94 15 179q20 170 40 228q-44 4 -53 5q-10 1 -69 6q-7 0 -20 2q-3 0 -16 3q-31 6 -43 40q-11 28 7 73t32 63q21 24 90 34q65 8 147 5q81 -3 153 -12q66 -9 107 -17q7 -1 22 -8q8 -4 21 -12l20 -15
q5 -4 19 -16q6 -6 30 -98q-2 -54 -40 -59t-76 -4q-20 0 -70 2q-17 -157 -23 -232q-7 -73 -11 -173q-4 -87 0 -171q5 -154 13 -227q46 -7 62 -9q11 -1 22.5 -2t20.5 -1q15 -2 36 -4q8 -1 14 -2.5t11 -1.5q30 -7 44 -41l-10 -88q-12 -38 -24 -52q-20 -24 -90 -34
q-32 -5 -70 -5.5t-77 0.5q-72 1 -154 12q-62 7 -107 16q-15 5 -21 9q-6 2 -22 12q-7 5 -20 15q1 -1 -18 15q-6 4 -21.5 48t-14.5 56zM534 1362q-160 -56 -293 -80q-14 -2 -22 14q-21 56 -10 103q5 33 18 41q58 37 115.5 75.5t117.5 68.5q30 15 44 -7q51 -91 64 -170
q5 -30 -34 -45z" />
    <glyph glyph-name="Icircumflex" unicode="&#xce;" horiz-adv-x="653" 
d="M5 184q1 63 65 63q8 0 39.5 -1.5t42.5 -1.5q-5 72 -8 222q0 72 5 179q6 94 15 179q20 170 40 228q-44 4 -53 5q-10 1 -69 6q-7 0 -20 2q-3 0 -16 3q-31 6 -43 40q-11 28 7 73t32 63q21 24 90 34q65 8 147 5q81 -3 153 -12q66 -9 107 -17q7 -1 22 -8q8 -4 21 -12l20 -15
q5 -4 19 -16q6 -6 30 -98q-2 -54 -40 -59t-76 -4q-20 0 -70 2q-17 -157 -23 -232q-7 -73 -11 -173q-4 -87 0 -171q5 -154 13 -227q46 -7 62 -9q11 -1 22.5 -2t20.5 -1q15 -2 36 -4q8 -1 14 -2.5t11 -1.5q30 -7 44 -41l-10 -88q-12 -38 -24 -52q-20 -24 -90 -34
q-32 -5 -70 -5.5t-77 0.5q-72 1 -154 12q-62 7 -107 16q-15 5 -21 9q-6 2 -22 12q-7 5 -20 15q1 -1 -18 15q-6 4 -21.5 48t-14.5 56zM369 1593q2 -2 14 -8q20 -13 36.5 -29.5t33.5 -32.5q6 -6 18 -19q12 -12 17 -18q16 -18 17 -19q3 -5 7 -10t8 -9l15 -21q7 -10 15 -22
q7 -14 12 -23q6 -13 7 -22q4 -18 -8 -28q-26 -21 -58 -30q-6 -1 -14 -1q-6 0 -10 3q-5 1 -7 5q-2 2 -7 9q-28 47 -84 105q-16 14 -33 32t-34 35q-11 -13 -29 -39q-21 -30 -46.5 -65.5t-35.5 -66.5q-1 -3 -2 -5.5t-2 -4.5q-6 -11 -4 -9q-8 -9 -25 -7q-14 1 -36 9
q-19 7 -33 19q-16 12 -17 23q-2 15 5 36q8 20 20 38.5t26 37.5q4 4 7.5 9.5t6.5 10.5q8 11 16 20q3 4 7 9l8 10q5 7 17 20t18 19q13 14 20 20q12 11 22 18q12 9 24 16q20 10 36 5q30 -5 52 -20z" />
    <glyph glyph-name="Idieresis" unicode="&#xcf;" horiz-adv-x="653" 
d="M5 184q1 63 65 63q8 0 39.5 -1.5t42.5 -1.5q-5 72 -8 222q0 72 5 179q6 94 15 179q20 170 40 228q-44 4 -53 5q-10 1 -69 6q-7 0 -20 2q-3 0 -16 3q-31 6 -43 40q-11 28 7 73t32 63q21 24 90 34q65 8 147 5q81 -3 153 -12q66 -9 107 -17q7 -1 22 -8q8 -4 21 -12l20 -15
q5 -4 19 -16q6 -6 30 -98q-2 -54 -40 -59t-76 -4q-20 0 -70 2q-17 -157 -23 -232q-7 -73 -11 -173q-4 -87 0 -171q5 -154 13 -227q46 -7 62 -9q11 -1 22.5 -2t20.5 -1q15 -2 36 -4q8 -1 14 -2.5t11 -1.5q30 -7 44 -41l-10 -88q-12 -38 -24 -52q-20 -24 -90 -34
q-32 -5 -70 -5.5t-77 0.5q-72 1 -154 12q-62 7 -107 16q-15 5 -21 9q-6 2 -22 12q-7 5 -20 15q1 -1 -18 15q-6 4 -21.5 48t-14.5 56zM193 1527q47 0 76 -33q28 -32 28 -74q0 -52 -34 -82q-30 -25 -70 -25q-43 0 -73 30q-30 31 -30 77q0 49 35 80q31 27 68 27zM459 1532
q48 0 77 -34q27 -30 27 -73q0 -51 -34 -81q-29 -26 -69 -26q-43 0 -74 30q-30 28 -30 76q0 51 35 81q31 27 68 27z" />
    <glyph glyph-name="Eth" unicode="&#xd0;" horiz-adv-x="1489" 
d="M339 1166q20 63 74 67q160 8 319.5 -7.5t318.5 -98.5q179 -95 286 -244q91 -128 116 -281q16 -109 -38.5 -215t-118.5 -177q-75 -81 -168 -129q-94 -49 -207 -67q-142 -23 -291 -8.5t-297 34.5q-46 5 -61 27t-16 54q-8 223 6.5 534.5t76.5 510.5zM1146 602q-6 77 -89 144
q-31 23 -71 46q-116 60 -238 76q-32 5 -61 4q-33 -3 -56 -24q-11 -10 -21 -76t-17 -144.5t-9 -146.5t4 -80q3 -8 8 -12q51 -27 114 -41q62 -13 121 -10q78 3 169.5 30.5t121.5 102.5q26 64 24 131zM836 495q-81 17 -164.5 24t-165.5 8q-91 0 -198 2t-191 -15q-10 -2 -28 -5
q-9 -1 -24 -1q-26 0 -40 31q-15 28 -18 69q-2 41 9 76q11 38 37 53q31 20 88 30q54 9 109.5 9h110.5q16 0 31.5 -0.5t31.5 -0.5q14 0 29.5 -1t31.5 -1q15 -2 30.5 -2.5t30.5 -1.5l63 -7q44 -5 63 -8q44 -6 65 -11q38 -7 65 -15q32 -10 60 -22q44 -21 53 -53q18 -73 -1 -127
q-5 -14 -12 -22t-16 -10q-7 -2 -22 -2q-8 0 -28 3z" />
    <glyph glyph-name="Ntilde" unicode="&#xd1;" horiz-adv-x="1194" 
d="M527 1075q113 -142 309 -546q12 327 29 397t36 118q24 59 52 95q22 27 50 35q34 8 51 7t50 -9q49 -12 74 -36.5t8 -83.5q-60 -206 -86 -457.5t6 -452.5q3 -22 7 -44.5t3 -42.5q-4 -39 -44.5 -50.5t-91 -7t-98.5 19.5t-67 30q-32 23 -46 63.5t-19 78.5v0v0
q-78 157 -158.5 307t-253.5 377q-29 -165 -35.5 -336t15.5 -313q3 -22 7.5 -44.5t2.5 -43.5q-9 -79 -106 -62.5t-135 46.5q-35 25 -48.5 69t-18.5 83q-11 77 -6.5 193.5t19.5 239.5t38.5 235.5t50.5 180.5q21 59 51 96q22 27 51 34q33 9 85.5 -3t123.5 -79.5t94 -93.5z
M893 1409q-17 -27 -43 -47q-31 -26 -71 -39q-38 -14 -83 -14q-28 0 -57 14q-30 15 -57 43q-30 28 -53 43q-25 14 -42 14q-23 0 -43 -7q-19 -7 -35 -23q-15 -15 -21 -25q-16 -28 -21.5 -39t-39.5 17l-30 25q-15 10 -7 46t13 45q15 28 45 52q28 25 62 38q32 13 69 13
q19 0 45 -14q25 -15 53 -42q30 -31 52 -43q34 -20 72.5 -11.5t69.5 28.5q39 24 50 52t59 -18l25 -23q22 -3 7 -41t-19 -44z" />
    <glyph glyph-name="Ograve" unicode="&#xd2;" horiz-adv-x="1194" 
d="M64 730q32 64 71.5 123.5t92.5 110.5q22 23 45 43q141 126 321 174q155 42 297 1q69 -20 136 -73t102 -117q22 -42 32 -89.5t15 -93.5q13 -162 -29 -293q-27 -79 -77 -153.5t-104 -133.5q-81 -89 -185 -149.5t-224 -72.5q-121 -10 -234 29q-86 30 -160.5 83.5
t-114.5 136.5q-38 81 -43 189q-6 156 59 285zM325 592q-15 -100 80 -224.5t219 -85.5q80 26 105.5 88.5t14.5 137.5q-13 84 -74 147t-132 83.5t-134 -11.5t-79 -135zM478 1605q141 -92 242 -183q11 -10 2 -26q-31 -50 -74 -71q-30 -16 -43 -11q-66 23 -131.5 45.5
t-126.5 51.5q-30 14 -21 38q40 96 95 155q21 23 57 1z" />
    <glyph glyph-name="Oacute" unicode="&#xd3;" horiz-adv-x="1194" 
d="M64 730q32 64 71.5 123.5t92.5 110.5q22 23 45 43q141 126 321 174q155 42 297 1q69 -20 136 -73t102 -117q22 -42 32 -89.5t15 -93.5q13 -162 -29 -293q-27 -79 -77 -153.5t-104 -133.5q-81 -89 -185 -149.5t-224 -72.5q-121 -10 -234 29q-86 30 -160.5 83.5
t-114.5 136.5q-38 81 -43 189q-6 156 59 285zM325 592q-15 -100 80 -224.5t219 -85.5q80 26 105.5 88.5t14.5 137.5q-13 84 -74 147t-132 83.5t-134 -11.5t-79 -135zM799 1362q-160 -56 -293 -80q-14 -2 -22 14q-21 56 -10 103q5 33 18 41q58 37 115.5 75.5t117.5 68.5
q30 15 44 -7q51 -91 64 -170q5 -30 -34 -45z" />
    <glyph glyph-name="Ocircumflex" unicode="&#xd4;" horiz-adv-x="1194" 
d="M64 730q32 64 71.5 123.5t92.5 110.5q22 23 45 43q141 126 321 174q155 42 297 1q69 -20 136 -73t102 -117q22 -42 32 -89.5t15 -93.5q13 -162 -29 -293q-27 -79 -77 -153.5t-104 -133.5q-81 -89 -185 -149.5t-224 -72.5q-121 -10 -234 29q-86 30 -160.5 83.5
t-114.5 136.5q-38 81 -43 189q-6 156 59 285zM325 592q-15 -100 80 -224.5t219 -85.5q80 26 105.5 88.5t14.5 137.5q-13 84 -74 147t-132 83.5t-134 -11.5t-79 -135zM634 1593q2 -2 14 -8q20 -13 36.5 -29.5t33.5 -32.5q6 -6 18 -19q12 -12 17 -18q16 -18 17 -19q3 -5 7 -10
t8 -9l15 -21q7 -10 15 -22q7 -14 12 -23q6 -13 7 -22q4 -18 -8 -28q-26 -21 -58 -30q-6 -1 -14 -1q-6 0 -10 3q-5 1 -7 5q-2 2 -7 9q-28 47 -84 105q-16 14 -33 32t-34 35q-11 -13 -29 -39q-21 -30 -46.5 -65.5t-35.5 -66.5q-1 -3 -2 -5.5t-2 -4.5q-6 -11 -4 -9
q-8 -9 -25 -7q-14 1 -36 9q-19 7 -33 19q-16 12 -17 23q-2 15 5 36q8 20 20 38.5t26 37.5q4 4 7.5 9.5t6.5 10.5q8 11 16 20q3 4 7 9l8 10q5 7 17 20t18 19q13 14 20 20q12 11 22 18q12 9 24 16q20 10 36 5q30 -5 52 -20z" />
    <glyph glyph-name="Otilde" unicode="&#xd5;" horiz-adv-x="1194" 
d="M64 730q32 64 71.5 123.5t92.5 110.5q22 23 45 43q141 126 321 174q155 42 297 1q69 -20 136 -73t102 -117q22 -42 32 -89.5t15 -93.5q13 -162 -29 -293q-27 -79 -77 -153.5t-104 -133.5q-81 -89 -185 -149.5t-224 -72.5q-121 -10 -234 29q-86 30 -160.5 83.5
t-114.5 136.5q-38 81 -43 189q-6 156 59 285zM325 592q-15 -100 80 -224.5t219 -85.5q80 26 105.5 88.5t14.5 137.5q-13 84 -74 147t-132 83.5t-134 -11.5t-79 -135zM882 1409q-17 -27 -42 -47q-32 -26 -72 -39q-38 -14 -83 -14q-28 0 -57 14q-30 15 -57 43q-29 28 -53 43
q-25 14 -42 14q-23 0 -43 -7q-19 -7 -35 -23q-15 -15 -20 -25q-17 -28 -22 -39t-40 17l-30 25q-15 10 -6.5 46t13.5 45q14 28 44 52q28 25 62 38q32 13 69 13q19 0 45 -14q25 -15 53 -42q30 -31 53 -43q33 -20 71.5 -11.5t69.5 28.5q39 24 50 52t59 -18l25 -23q22 -3 7 -41
t-19 -44z" />
    <glyph glyph-name="Odieresis" unicode="&#xd6;" horiz-adv-x="1194" 
d="M64 730q32 64 71.5 123.5t92.5 110.5q22 23 45 43q141 126 321 174q155 42 297 1q69 -20 136 -73t102 -117q22 -42 32 -89.5t15 -93.5q13 -162 -29 -293q-27 -79 -77 -153.5t-104 -133.5q-81 -89 -185 -149.5t-224 -72.5q-121 -10 -234 29q-86 30 -160.5 83.5
t-114.5 136.5q-38 81 -43 189q-6 156 59 285zM325 592q-15 -100 80 -224.5t219 -85.5q80 26 105.5 88.5t14.5 137.5q-13 84 -74 147t-132 83.5t-134 -11.5t-79 -135zM458 1527q47 0 76 -33q28 -32 28 -74q0 -52 -34 -82q-30 -25 -70 -25q-43 0 -73 30q-30 31 -30 77
q0 49 35 80q31 27 68 27zM724 1532q48 0 77 -34q27 -30 27 -73q0 -51 -34 -81q-29 -26 -69 -26q-43 0 -74 30q-30 28 -30 76q0 51 35 81q31 27 68 27z" />
    <glyph glyph-name="multiply" unicode="&#xd7;" horiz-adv-x="980" 
d="M866 460q14 -9 22 -17q9 -8 13 -18q5 -7 4 -21q-1 -10 -9 -27q-30 -60 -98 -106q-29 -19 -78 -3q-30 9 -58 26q-30 17 -58 35q-18 12 -53 40q-8 6 -15 12t-14 11q-49 -59 -95 -100q-44 -36 -85 -51q-29 -8 -72 6q-41 14 -76 42q-39 31 -55 59q-18 32 -3 52q5 6 18 18
q6 6 22 19q36 29 71.5 67t68.5 80q-39 41 -76 82.5t-67 87.5q-31 53 -39 91q-4 32 17 71q21 37 54 69q37 35 65 45q34 14 53 -5q7 -7 15 -18q5 -8 15 -26q24 -42 60 -86t76 -86q78 108 128 211q6 14 13 24q8 13 16 16q8 6 21 7q11 1 28 -5q63 -19 119 -82q24 -26 15 -76
q-5 -26 -17 -61q-9 -23 -27 -62q-10 -20 -31 -59q-15 -25 -34 -56q-7 -12 -16 -25.5t-17 -26.5q-1 -2 -3 -4q93 -90 182 -150z" />
    <glyph glyph-name="Oslash" unicode="&#xd8;" horiz-adv-x="1194" 
d="M64 730q32 64 71.5 123.5t92.5 110.5q22 23 45 43q141 126 321 174q155 42 297 1q69 -20 136 -73t102 -117q22 -42 32 -89.5t15 -93.5q13 -162 -29 -293q-27 -79 -77 -153.5t-104 -133.5q-81 -89 -185 -149.5t-224 -72.5q-121 -10 -234 29q-86 30 -160.5 83.5
t-114.5 136.5q-38 81 -43 189q-6 156 59 285zM325 592q-15 -100 80 -224.5t219 -85.5q80 26 105.5 88.5t14.5 137.5q-13 84 -74 147t-132 83.5t-134 -11.5t-79 -135zM726 1194q12 29 18 42q11 20 19 30q9 12 23 18q16 5 30 5q65 -4 112 -74q20 -32 3 -109q-8 -35 -29 -101
q-11 -34 -39 -103q-21 -52 -43 -102q-12 -25 -23 -49.5t-22 -48.5q-12 -23 -23 -46.5t-21 -47.5q-13 -23 -24.5 -46t-22.5 -46q-22 -43 -48 -91q-19 -36 -50 -92q-44 -81 -89.5 -161.5t-96.5 -153.5q-57 -78 -99 -113q-33 -27 -77 -22q-38 5 -73 33q-36 28 -48 65
q-13 43 6 79q6 11 21 34q16 23 27 38q84 113 169.5 270.5t157.5 289.5q66 121 128 246t114 256z" />
    <glyph glyph-name="Ugrave" unicode="&#xd9;" horiz-adv-x="1106" 
d="M36 709q4 34 15 108.5t30 150.5t48 134t70 60q61 4 144.5 -11.5t124.5 -67.5q14 -20 -5.5 -79.5t-26.5 -84.5q-31 -91 -46 -240t3 -246q23 -119 116.5 -118t180.5 133q39 56 64 142q12 85 27 223.5t3 230.5q-3 25 -5.5 53.5t8.5 52.5q6 17 20 29q32 32 93.5 57t118.5 16
q32 -5 46 -40q41 -99 22 -284t-41 -289q-33 -149 -102.5 -297t-196.5 -240q-118 -86 -265 -94q-113 -6 -225.5 38.5t-172.5 146.5q-64 108 -63 253t15 263zM443 1605q141 -92 242 -183q11 -10 2 -26q-31 -50 -74 -71q-30 -16 -43 -11q-66 23 -131.5 45.5t-126.5 51.5
q-30 14 -21 38q40 96 95 155q21 23 57 1z" />
    <glyph glyph-name="Uacute" unicode="&#xda;" horiz-adv-x="1106" 
d="M36 709q4 34 15 108.5t30 150.5t48 134t70 60q61 4 144.5 -11.5t124.5 -67.5q14 -20 -5.5 -79.5t-26.5 -84.5q-31 -91 -46 -240t3 -246q23 -119 116.5 -118t180.5 133q39 56 64 142q12 85 27 223.5t3 230.5q-3 25 -5.5 53.5t8.5 52.5q6 17 20 29q32 32 93.5 57t118.5 16
q32 -5 46 -40q41 -99 22 -284t-41 -289q-33 -149 -102.5 -297t-196.5 -240q-118 -86 -265 -94q-113 -6 -225.5 38.5t-172.5 146.5q-64 108 -63 253t15 263zM765 1362q-160 -56 -293 -80q-14 -2 -22 14q-21 56 -10 103q5 33 18 41q58 37 115.5 75.5t117.5 68.5q30 15 44 -7
q51 -91 64 -170q5 -30 -34 -45z" />
    <glyph glyph-name="Ucircumflex" unicode="&#xdb;" horiz-adv-x="1106" 
d="M36 709q4 34 15 108.5t30 150.5t48 134t70 60q61 4 144.5 -11.5t124.5 -67.5q14 -20 -5.5 -79.5t-26.5 -84.5q-31 -91 -46 -240t3 -246q23 -119 116.5 -118t180.5 133q39 56 64 142q12 85 27 223.5t3 230.5q-3 25 -5.5 53.5t8.5 52.5q6 17 20 29q32 32 93.5 57t118.5 16
q32 -5 46 -40q41 -99 22 -284t-41 -289q-33 -149 -102.5 -297t-196.5 -240q-118 -86 -265 -94q-113 -6 -225.5 38.5t-172.5 146.5q-64 108 -63 253t15 263zM599 1593q2 -2 14 -8q20 -13 36.5 -29.5t33.5 -32.5q6 -6 18 -19q12 -12 17 -18q16 -18 17 -19q3 -5 7 -10t8 -9
l15 -21q7 -10 15 -22q7 -14 12 -23q6 -13 7 -22q4 -18 -8 -28q-26 -21 -58 -30q-6 -1 -14 -1q-6 0 -10 3q-5 1 -7 5q-2 2 -7 9q-28 47 -84 105q-16 14 -33 32t-34 35q-11 -13 -29 -39q-21 -30 -46.5 -65.5t-35.5 -66.5q-1 -3 -2 -5.5t-2 -4.5q-6 -11 -4 -9q-8 -9 -25 -7
q-14 1 -36 9q-19 7 -33 19q-16 12 -17 23q-2 15 5 36q8 20 20 38.5t26 37.5q4 4 7.5 9.5t6.5 10.5q8 11 16 20q3 4 7 9l8 10q5 7 17 20t18 19q13 14 20 20q12 11 22 18q12 9 24 16q20 10 36 5q30 -5 52 -20z" />
    <glyph glyph-name="Udieresis" unicode="&#xdc;" horiz-adv-x="1106" 
d="M36 709q4 34 15 108.5t30 150.5t48 134t70 60q61 4 144.5 -11.5t124.5 -67.5q14 -20 -5.5 -79.5t-26.5 -84.5q-31 -91 -46 -240t3 -246q23 -119 116.5 -118t180.5 133q39 56 64 142q12 85 27 223.5t3 230.5q-3 25 -5.5 53.5t8.5 52.5q6 17 20 29q32 32 93.5 57t118.5 16
q32 -5 46 -40q41 -99 22 -284t-41 -289q-33 -149 -102.5 -297t-196.5 -240q-118 -86 -265 -94q-113 -6 -225.5 38.5t-172.5 146.5q-64 108 -63 253t15 263zM424 1527q47 0 76 -33q28 -32 28 -74q0 -52 -34 -82q-30 -25 -70 -25q-43 0 -73 30q-30 31 -30 77q0 49 35 80
q31 27 68 27zM690 1532q48 0 77 -34q27 -30 27 -73q0 -51 -34 -81q-29 -26 -69 -26q-43 0 -74 30q-30 28 -30 76q0 51 35 81q31 27 68 27z" />
    <glyph glyph-name="Yacute" unicode="&#xdd;" horiz-adv-x="1069" 
d="M49 1070q33 42 58.5 61t72.5 49q51 18 103 -24q75 -61 126 -174t120 -181q22 -23 47 -8.5t43 31.5q50 47 97.5 132t80.5 145q20 37 44 53.5t71 -0.5q44 -18 74 -45.5t59 -64.5q32 -41 16 -109q-21 -87 -73 -172t-102 -158q-50 -75 -106.5 -144t-115.5 -137
q-53 -60 -107.5 -120t-118.5 -108q-68 -51 -125 -66q-44 -11 -102.5 14.5t-81.5 55t-46.5 62.5t1.5 63q20 24 59 48.5t66 53.5q24 25 47.5 41.5t63.5 71.5q78 86 -3 176q-32 45 -90.5 109.5t-93.5 105.5q-25 29 -49.5 60.5t-41.5 66.5q-17 31 -17.5 55.5t24.5 56.5z
M753 1362q-160 -56 -293 -80q-14 -2 -22 14q-21 56 -10 103q5 33 18 41q58 37 115.5 75.5t117.5 68.5q30 15 44 -7q51 -91 64 -170q5 -30 -34 -45z" />
    <glyph glyph-name="germandbls" unicode="&#xdf;" horiz-adv-x="1037" 
d="M153 1155l1 1l2 1l1 1v1l1 1l1 1l2 1h1l1 1v1l2 1v1l2 1h1l1 1v1l2 1l1 1h1l2 1v1l2 1v1l2 1h1l1 1v1l2 1l1 1h1l1 1l1 1l1 1l1 1l2 1h1v0l1 1l2 1l1 1l1 1h1l1 1l1 1h1l2 1l1 1v1h2l1 1l1 1h2v1l1 1h1l2 1h1l1 1l1 1l1 1l2 1v0h2l1 1v1l2 1h1l2 1v0l1 1h2l4 4l5 2l5 3
l6 2l4 2l5 3l5 2l4 3l6 2l5 2l6 2l4 3l5 2l5 2l4 2l6 2l6 2l4 2l5 2l5 1l5 3l4 1l6 2l6 2l4 1l5 2l6 2l4 1l5 1l5 2l6 1l5 1l5 2l5 1l5 1l5 1l5 1l5 2h6l5 1l4 1l5 1l6 1h4l5 1h6l5 1l5 1h5l6 1h4l5 1h6h5h5h5h5h5h5h5h6h5h5h4h6l5 -1h4l6 -1h6l4 -1l5 -1h5l5 -1h5l5 -1
l6 -1l4 -2h5l6 -1l4 -1l5 -2l5 -1l5 -1l5 -1l5 -2l6 -1l4 -1l5 -2l5 -1l5 -2l5 -2l5 -1l5 -2l4 -2l6 -2l5 -2l5 -2l4 -3l5 -1l5 -3l5 -1l4 -3l5 -2l5 -3l5 -2l5 -3l5 -2l4 -2l5 -3l4 -3l5 -3l5 -3l5 -2l5 -4l4 -3l5 -2l5 -4l5 -3l4 -3l4 -4l5 -3l5 -3l4 -4l5 -3l4 -4l5 -4
l4 -3l5 -4h1l1 -1v-1l1 -1h1l1 -1h1v-1l1 -1l1 -1l1 -1v0h1l1 -1l1 -1l1 -1l1 -1v0l1 -1v0l1 -1l1 -1l1 -1l1 -1h1l1 -1v-1v0l1 -1l1 -1l1 -1h1v-1l2 -1v-1h1l1 -1v0l1 -1l1 -1l1 -1l1 -1v-1v0h1l1 -1l1 -1l1 -1v-1h1l1 -1v-1l1 -1v-1l1 -1h1h1l1 -1v-1v-1l1 -1h1l1 -1l1 -1
l1 -2l2 -1l1 -3l2 -1l2 -2l1 -2l2 -2l1 -2l2 -1l2 -2l1 -3l2 -1l1 -2l2 -2l2 -2l1 -2l1 -2l1 -2l2 -2l2 -2l1 -1l1 -3l2 -1l1 -3l1 -2l2 -2l1 -2l2 -2l1 -2l1 -2l2 -2l1 -2l1 -3l1 -1l1 -3l2 -2l2 -2l1 -2v-2l2 -3l2 -1v-3l2 -2l1 -2v-2l2 -3l1 -1l2 -3v-2l1 -3l2 -1v-3
l2 -2l1 -3l1 -1v-3l1 -2l2 -3l1 -2v-2l1 -2l1 -3l1 -2l1 -3l1 -2l1 -3v-1l1 -3l1 -2l1 -3l1 -2l1 -2l1 -3v-2v-3l1 -2l1 -3l1 -2v-3l1 -2l1 -3l1 -2v-2v-3l1 -2v-3l1 -2v-3l1 -2l1 -3v-2l1 -3v-2v-3l1 -2v-3v-3v-2v-3l1 -2v-3l1 -2v-3v-3l1 -2v-3v-2v-3v-3v-2v-3v-2v-3v-3
v-2v-3v-2v-3v-3v-3v-2v-3v-3v-2l-1 -3v-2v-3l-1 -3v-2l-1 -3v-1v-3v-2v-2v-2l-1 -3v-1v-3v-2l-1 -2v-2l-1 -2v-3l-1 -1l-1 -2v-2v-2l-1 -2v-2v-2l-1 -1v-3l-1 -1l-1 -2v-2v-2l-1 -2l-1 -1l-1 -2v-2v-1v-2l-1 -2l-1 -1l-1 -2l-1 -2l-1 -1v-2l-1 -1v-2l-1 -2l-1 -1l-1 -2
l-1 -2l-1 -1v-1l-1 -2v-1l-2 -2l-1 -1l-1 -1v-2l-1 -1l-1 -2l-1 -1l-1 -1l-1 -2l-1 -1l-1 -1v-2l-1 -1l-2 -1l-1 -1l-1 -2h-1l-1 -2l-1 -1v-2h-2l-1 -2l-1 -1l-1 -2h-1l-2 -1l-1 -2l-1 -1v0l-2 -2l-1 -1l-1 -1l-2 -1v-1l-1 -1l-2 -2h-1l-1 -1l-1 -1l-2 -2v-1h-2l-1 -2l-1 -1
l-1 -1h-2l-1 -2l-1 -1l-1 -1l-1 -1l-2 -1l-2 -1v-1l-2 -1l-1 -1l-1 -1l-2 -1l-1 -2h-1l-2 -1l-2 -1v-2h-2l-2 -2l-1 -1l-1 -1l-1 -1l-2 -1l-2 -1l-1 -2h-1l-2 -1l-1 -2l-3 -2l-1 -1l-3 -2v-1h-1l-2 -1l-1 -1l-1 -1l-1 -1l-1 -1h-1h-1h-1l-2 -1v0v-1h-2v-1v0l1 -1h1v-1v0v-1
l1 -1l1 -1l1 -1v0l1 -1v-1l1 -1l1 -1v-1l2 -3l3 -3l1 -3l3 -4l2 -3l2 -4l2 -3l2 -4l2 -3l3 -4l1 -3l2 -3l2 -5l2 -3l1 -4l2 -3l1 -4l2 -4l2 -4l1 -4l2 -4l1 -4l1 -3l2 -4l1 -4l1 -5l1 -4l1 -4l1 -4l1 -4l1 -4l1 -4l1 -1v-1v-1v0v-1v-1v-1v-1v0v-1v-1v-2v-1h1v-1v-1v-1v-1v-1
h1v-1v-1v-1v-1v0l1 -2v-1v-1v-1v0v-1v-1v-3v-4v-2l1 -3v-4v-3v-2v-4v-3l1 -2v-4l-1 -3v-3v-3v-3v-3v-3l-1 -3v-2v-4v-3v-2l-1 -4v-3l-1 -2v-4l-1 -2v-3v-3v-3l-1 -3l-1 -3v-3l-1 -3l-1 -3l-1 -2v-4l-1 -2v-2l-1 -4l-1 -2v-3l-1 -3l-2 -3l-1 -3v-2v-3l-2 -3l-1 -3l-1 -3
l-1 -2l-1 -3l-1 -3l-1 -2l-1 -4l-1 -2l-2 -2v-3l-1 -2l-2 -4l-1 -2l-1 -3l-1 -2l-1 -2l-1 -4l-2 -2l-2 -3v-2l-2 -3l-1 -2l-1 -2l-1 -4l-2 -2l-1 -3l-2 -2l-1 -3l-1 -2l-2 -3l-1 -2l-2 -2l-2 -3l-1 -2l-2 -3l-1 -1l-1 -3l-2 -2l-2 -3l-1 -2l-1 -3l-2 -2l-3 -3v-1l-2 -3
l-2 -2l-2 -3l-1 -1l-2 -3l-2 -2l-1 -3l-2 -2l-2 -2l-1 -2l-2 -3l-2 -1l-2 -3l-1 -2l-2 -2l-2 -2l-2 -2l-1 -2l-3 -2l-1 -3l-2 -1l-2 -3l-2 -1l-1 -3l-3 -1l-1 -3l-2 -1l-2 -3l-2 -2l-1 -1l-3 -3l-2 -1l-1 -2l-2 -2l-2 -2l-2 -2l-3 -2l-2 -3l-3 -3l-3 -2l-2 -3l-3 -2l-3 -2
l-3 -3l-2 -2l-4 -2l-2 -3l-3 -2l-2 -2l-4 -2l-1 -3l-4 -2l-2 -2l-3 -2l-3 -2l-2 -2l-4 -2l-2 -2l-4 -2l-2 -3l-4 -1l-2 -2l-3 -2l-2 -2l-5 -2l-2 -2l-3 -2l-2 -1l-4 -2l-3 -2l-3 -1l-2 -2l-4 -1l-3 -2l-3 -2l-2 -1l-4 -2l-3 -2l-3 -1l-3 -2l-3 -2h-3l-3 -2l-3 -2l-3 -1
l-3 -1l-3 -2l-4 -1l-2 -1l-4 -1l-2 -2l-4 -1l-3 -1l-4 -1l-2 -2h-3l-3 -1l-4 -2l-3 -1l-3 -1h-3l-3 -1l-4 -2l-3 -1h-4l-2 -1l-4 -1l-3 -1l-3 -1l-4 -1h-3l-3 -1l-3 -1h-3l-3 -1l-4 -1h-3h-3l-4 -1l-3 -1h-3l-3 -1l-5 -1h-2l-3 -1h-4h-2h-4l-4 -1h-4h-3l-3 -1h-6h-7h-6h-7
h-6h-8h-6h-7h-6h-7h-7l-7 1h-7l-7 1h-6l-7 1l-7 1l-8 1l-6 2h-7l-6 2l-7 1l-7 1l-7 2l-6 2l-8 1l-6 2l-6 2l-7 2l-6 2l-6 2l-7 3h-1h-1h-1l-1 1h-1l-1 1h-2v1h-1l-1 1h-2v1h-1h-2v0l-1 1h-1l-2 1h-1l-1 1v1h-2l-1 1h-1h-1l-1 1v0l-2 1h-1l-1 1l-1 1h-1l-3 1l-3 3l-4 1l-4 2
l-3 2l-4 2l-2 3l-4 1l-3 3l-3 2l-4 3l-3 2l-3 2l-3 3l-2 2l-4 3l-3 3l-3 3l-2 2l-4 3l-2 3l-3 3l-2 3l-3 4l-2 3l-3 3l-3 3l-1 4l-3 4l-1 3l-4 4l-2 4v1l-1 2l-1 1v1l-1 2l-1 1l-1 1v2l-1 1v1v2l-1 1l-1 1l-1 2l-1 2v1l-1 1v2l-1 1v2l-1 1v2v1l-1 2l-1 1l-1 1v2l-1 2l-1 1v2
v1v2v1l-1 2v1l-1 2l-1 2v1l-1 2v1v2v2v1l-1 2v2l-1 1v2v2v1v2v1v2v2v1l-1 2v2v1v2v2v1v2v1v2l1 3v1v2v1v2v2v1l1 2v2v1l1 2v2v1l1 3v1l1 2l1 2l1 1v2v2v1l1 2l1 1l1 2l1 2l1 1l1 2v2h1l1 3l1 1l2 1l1 2v0v0v1v0v0v1v0v0v0h1v0v0v1h1v0v0v1v0h1v0v1v0v0h1v1v0v0l1 1l10 10
l9 9l10 8l8 8l10 6l9 6l9 6l8 4l9 3l8 3l9 1l8 2h8l8 -1l7 -1l8 -2l7 -3l6 -3l7 -4l5 -4l6 -5l4 -5l5 -6l5 -5l3 -7l3 -6l4 -6l2 -7l3 -6l2 -7l1 -7l2 -6l1 -3v-2l1 -2h1v-2l2 -1l2 -2h2l2 -2l4 -1l3 -1h3l6 -1h4l5 -1h5h5h6l6 1l5 1h7h6l6 1l6 1l6 2h7l5 1l7 1l5 1l7 1l5 1
h5l3 1h3l3 1h3l3 1h2l4 1l2 1h3h3l3 1l2 1l3 1l3 1h3l2 1l3 1l2 1l3 1l3 1h3l2 1l2 1l4 1l1 1l3 1l3 1l2 1l3 2h2l3 1l2 2l5 1l4 3l3 2l5 3l4 1l4 3l4 3l4 3l4 2l4 3l4 3l4 3l3 3l4 4l4 2l4 3l3 4l3 4l4 3l3 3l3 4l2 4l4 4l2 4l3 3l2 4l4 4l2 4l2 5l2 4l2 5l2 4l2 6l2 7l2 6
l2 6l2 7v6v6v6v6v6v6l-1 5l-2 6l-1 6l-2 5l-2 6l-2 5l-2 5l-4 6l-2 5l-4 5l-3 5l-4 5l-4 4l-4 5l-4 4l-5 5l-4 4l-5 5l-6 3l-5 4l-5 3l-3 2l-2 1l-1 1l-3 1l-2 1l-2 2h-2l-2 2l-2 1l-3 1l-1 1l-3 1l-2 1l-2 1l-3 1h-2l-2 1l-3 1l-1 1l-3 2h-3h-2l-3 1l-1 1l-4 1l-1 1h-3h-3
l-2 1l-3 1l-2 1h-3l-2 1l-3 1h-2h-3h-2h-2l-3 1h-2h-2h-2l-3 1h-1h-2h-2h-2h-2h-2h-2h-2h-2h-3h-3h-1l-3 -1h-2h-3l-3 -1h-2h-3h-2h-4l-4 -1h-4l-6 1l-5 1l-4 2l-5 1l-3 3l-5 2l-3 4l-3 3l-5 3l-2 3l-3 5l-2 3l-4 4l-1 4l-3 5l-3 5v4l-2 6l-2 5l-1 5v7l1 6l3 7l1 6l4 6l4 5
l6 5l4 3l7 4l5 1l6 2l4 1h2l4 1h3l3 1h3l3 1l3 1l4 1h3l2 1h4l3 1l4 1l3 1l4 1h2l4 1l2 1l4 1l3 1l3 1l3 1l2 1l5 1l2 1h3l2 2l3 1l3 1l2 1l3 1l1 1l4 2h2l2 2l3 1l1 2l3 1l3 1l1 2h3l1 2l3 2l2 1l3 1l2 2l2 1l2 1l2 2l2 2l1 1l3 2l2 1l2 2l1 2l3 1l1 1l2 2l2 2l2 1l2 2l1 1
l2 3l1 2l3 1l1 2l1 1l2 2l2 2l1 1l1 2l2 2l2 2l1 2l1 1l2 3l1 1l2 2l1 2l1 1l2 3l1 1l1 2v2l2 2l1 2l1 1l2 3v2v1l2 3l1 1l1 2l1 2v2l3 7l2 6l2 7l1 6l2 6l1 7v5v7v6v5l-1 6l-1 6l-2 6l-1 5l-1 6l-2 5l-2 6l-3 5l-3 5l-3 5l-3 5l-4 5l-3 5l-5 5l-4 5l-4 4l-4 5l-5 4l-5 4
l-6 4l-4 3l-6 4l-2 1l-2 2l-2 1l-3 1l-1 1l-3 1l-2 1l-2 1l-2 1l-2 1l-2 2l-2 1h-2l-3 1l-2 1l-2 1l-3 1l-2 1l-2 1l-3 1l-2 1h-2l-3 1h-2l-3 1l-2 1l-3 1l-2 1h-3h-2l-3 1h-2l-6 2l-5 1l-5 1h-5h-5l-5 1h-6l-4 1h-6h-6h-5h-5l-5 -1h-5h-6l-4 -1h-6l-5 -1l-6 -1l-5 -1l-6 -1
l-4 -1l-5 -1l-6 -1l-4 -2l-5 -1l-6 -2l-5 -2l-5 -1l-5 -3l-5 -1l-4 -2l-3 -1l-2 -1l-2 -1l-2 -1l-2 -1l-2 -1l-2 -1l-2 -1l-2 -2l-3 -1h-1l-3 -2l-2 -1l-2 -1l-2 -1l-2 -2l-1 -1l-3 -1l-2 -1l-1 -2l-2 -1l-3 -1l-1 -1l-2 -2l-1 -1l-3 -1l-1 -2l-2 -1l-2 -1l-1 -2l-2 -2h-2
l-2 -2l-2 -2l-2 -1l-1 -2l-3 -2l-2 -1l-2 -2l-1 -2l-3 -1l-1 -1l-2 -2l-1 -1l-2 -2l-1 -1l-2 -1l-2 -2l-1 -1l-1 -1l-1 -1l-2 -2v-1l-1 -1l-1 -1l-1 -1v-2v0v-1l-1 -1v-1l-1 -1v0v-1l-2 -9l-1 -7l-2 -7l-43 -1182l-2 -6l-2 -7l-2 -6l-2 -6l-3 -6l-3 -6l-2 -4l-4 -5l-3 -5
l-4 -4l-4 -4l-4 -4l-5 -3l-4 -3l-6 -2l-5 -2h-5l-5 -1l-5 -1h-5l-5 -1l-5 1h-5h-6l-6 1l-6 1h-6l-6 1v0v0h-1h-1v0h-1h-1v0h-1v0l-1 1v0h-1v0h-1v0l-3 1l-4 1l-3 1l-3 1l-2 2l-4 1l-3 1l-3 2l-2 2l-4 1l-2 3l-2 1l-4 3l-1 1l-3 3l-2 2l-2 3l-3 2l-1 3l-3 3l-2 2l-1 4l-2 2
l-2 3l-1 3l-1 3l-2 3l-1 4l-2 3v3l-1 3l-1 4l-1 2v2l41 1176v1l-1 3l-1 1v2v2v2v2v1l-1 3v1v2v2v2v2v1v3v1v2v2v2v2v1v3v2v1v2v2v2v2v1l1 3v1v2v2v2v2l1 1v2l1 2v2l1 2v1v3l1 1v2l1 2v1v2v2v2l1 2v1l1 2l1 2v1v2l1 2l1 1v3h1v2v2l1 2v2l1 1l1 1v3l1 1l1 1v2l1 1v2v2l1 1l1 1
l1 2v1l1 2l1 2l1 1v1v2l1 2h1l1 2l1 2h1v2l1 2v1v1l1 2l1 1h1v0v0v1v0v0l1 1v0v1v0h1v1v0v1v0v0v0h1v1v0v0v1v0v1v0h1v1v0h1v0v0l1 1l1 1l1 2v1v1l1 1l1 1l1 1l1 1l1 2l1 1v1l1 1l1 1l1 2h1l1 2l1 1v1l1 1l1 1l1 1l1 2h1l1 1v2l1 1l1 1l1 1l2 1v1l1 1l1 1l1 1v1l2 1l1 1l1 1
v1l1 1l2 1l1 1v1l1 1l1 1l1 1l1 1l1 1l2 1v1l1 1l1 1l1 1l2 1v1h1l1 1z" />
    <glyph glyph-name="agrave" unicode="&#xe0;" horiz-adv-x="898" 
d="M222 357q-27 -55 14 -140t130 -81q56 3 83.5 35t33.5 76q6 50 -23.5 94.5t-72.5 67t-90.5 13.5t-74.5 -65zM440 686q-46 21 -122 9q-59 -8 -101.5 -42t-164.5 14q-43 19 2 71.5t72 70.5q18 13 38 23q51 26 106 34t109 7q73 0 141 -17q55 -14 105 -39t85.5 -97t24 -171.5
t-18.5 -235.5q-9 -150 21 -267q2 -13 6 -26.5t3 -25.5q-1 -23 -28.5 -31.5t-53.5 -8.5t-59 7t-47 15q-23 15 -34 40q-8 18 -13 35q-26 -15 -56 -27q-66 -28 -139 -29q-76 1 -142 26q-51 20 -93 52t-62 77t-17 102q4 83 50 148q24 32 44.5 58t87 73t159 55.5t180.5 -19.5
q3 5 -2.5 47t-80.5 72zM290 1195q141 -92 242 -183q11 -10 2 -26q-31 -50 -74 -71q-30 -16 -43 -11q-66 23 -131.5 45.5t-126.5 51.5q-30 14 -21 38q40 96 95 155q21 23 57 1z" />
    <glyph glyph-name="aacute" unicode="&#xe1;" horiz-adv-x="898" 
d="M222 357q-27 -55 14 -140t130 -81q56 3 83.5 35t33.5 76q6 50 -23.5 94.5t-72.5 67t-90.5 13.5t-74.5 -65zM440 686q-46 21 -122 9q-59 -8 -101.5 -42t-164.5 14q-43 19 2 71.5t72 70.5q18 13 38 23q51 26 106 34t109 7q73 0 141 -17q55 -14 105 -39t85.5 -97t24 -171.5
t-18.5 -235.5q-9 -150 21 -267q2 -13 6 -26.5t3 -25.5q-1 -23 -28.5 -31.5t-53.5 -8.5t-59 7t-47 15q-23 15 -34 40q-8 18 -13 35q-26 -15 -56 -27q-66 -28 -139 -29q-76 1 -142 26q-51 20 -93 52t-62 77t-17 102q4 83 50 148q24 32 44.5 58t87 73t159 55.5t180.5 -19.5
q3 5 -2.5 47t-80.5 72zM612 952q-160 -56 -293 -80q-14 -2 -22 14q-21 56 -10 103q5 33 18 41q58 37 115.5 75.5t117.5 68.5q30 15 44 -7q51 -91 64 -170q5 -30 -34 -45z" />
    <glyph glyph-name="acircumflex" unicode="&#xe2;" horiz-adv-x="898" 
d="M222 357q-27 -55 14 -140t130 -81q56 3 83.5 35t33.5 76q6 50 -23.5 94.5t-72.5 67t-90.5 13.5t-74.5 -65zM440 686q-46 21 -122 9q-59 -8 -101.5 -42t-164.5 14q-43 19 2 71.5t72 70.5q18 13 38 23q51 26 106 34t109 7q73 0 141 -17q55 -14 105 -39t85.5 -97t24 -171.5
t-18.5 -235.5q-9 -150 21 -267q2 -13 6 -26.5t3 -25.5q-1 -23 -28.5 -31.5t-53.5 -8.5t-59 7t-47 15q-23 15 -34 40q-8 18 -13 35q-26 -15 -56 -27q-66 -28 -139 -29q-76 1 -142 26q-51 20 -93 52t-62 77t-17 102q4 83 50 148q24 32 44.5 58t87 73t159 55.5t180.5 -19.5
q3 5 -2.5 47t-80.5 72zM446 1183q2 -2 14 -8q20 -13 36.5 -29.5t33.5 -32.5q6 -6 18 -19q12 -12 17 -18q16 -18 17 -19q3 -5 7 -10t8 -9l15 -21q7 -10 15 -22q7 -14 12 -23q6 -13 7 -22q4 -18 -8 -28q-26 -21 -58 -30q-6 -1 -14 -1q-6 0 -10 3q-5 1 -7 5q-2 2 -7 9
q-28 47 -84 105q-16 14 -33 32t-34 35q-11 -13 -29 -39q-21 -30 -46.5 -65.5t-35.5 -66.5q-1 -3 -2 -5.5t-2 -4.5q-6 -11 -4 -9q-8 -9 -25 -7q-14 1 -36 9q-19 7 -33 19q-16 12 -17 23q-2 15 5 36q8 20 20 38.5t26 37.5q4 4 7.5 9.5t6.5 10.5q8 11 16 20q3 4 7 9l8 10
q5 7 17 20t18 19q13 14 20 20q12 11 22 18q12 9 24 16q20 10 36 5q30 -5 52 -20z" />
    <glyph glyph-name="atilde" unicode="&#xe3;" horiz-adv-x="898" 
d="M222 357q-27 -55 14 -140t130 -81q56 3 83.5 35t33.5 76q6 50 -23.5 94.5t-72.5 67t-90.5 13.5t-74.5 -65zM440 686q-46 21 -122 9q-59 -8 -101.5 -42t-164.5 14q-43 19 2 71.5t72 70.5q18 13 38 23q51 26 106 34t109 7q73 0 141 -17q55 -14 105 -39t85.5 -97t24 -171.5
t-18.5 -235.5q-9 -150 21 -267q2 -13 6 -26.5t3 -25.5q-1 -23 -28.5 -31.5t-53.5 -8.5t-59 7t-47 15q-23 15 -34 40q-8 18 -13 35q-26 -15 -56 -27q-66 -28 -139 -29q-76 1 -142 26q-51 20 -93 52t-62 77t-17 102q4 83 50 148q24 32 44.5 58t87 73t159 55.5t180.5 -19.5
q3 5 -2.5 47t-80.5 72zM695 999q-18 -27 -43 -47q-32 -26 -71 -39q-39 -14 -84 -14q-28 0 -56 14q-31 15 -58 43q-29 28 -53 43q-25 14 -42 14q-23 0 -42 -7q-20 -7 -36 -23q-14 -15 -20 -25q-16 -28 -21.5 -39t-40.5 17l-30 25q-15 10 -6.5 46t13.5 45q14 28 44 52
q29 25 62 38q32 13 69 13q20 0 45 -14q25 -15 53 -42q31 -31 53 -43q33 -20 71.5 -11.5t69.5 28.5q39 24 50 52t59 -18l25 -23q22 -3 7.5 -41t-18.5 -44z" />
    <glyph glyph-name="adieresis" unicode="&#xe4;" horiz-adv-x="898" 
d="M222 357q-27 -55 14 -140t130 -81q56 3 83.5 35t33.5 76q6 50 -23.5 94.5t-72.5 67t-90.5 13.5t-74.5 -65zM440 686q-46 21 -122 9q-59 -8 -101.5 -42t-164.5 14q-43 19 2 71.5t72 70.5q18 13 38 23q51 26 106 34t109 7q73 0 141 -17q55 -14 105 -39t85.5 -97t24 -171.5
t-18.5 -235.5q-9 -150 21 -267q2 -13 6 -26.5t3 -25.5q-1 -23 -28.5 -31.5t-53.5 -8.5t-59 7t-47 15q-23 15 -34 40q-8 18 -13 35q-26 -15 -56 -27q-66 -28 -139 -29q-76 1 -142 26q-51 20 -93 52t-62 77t-17 102q4 83 50 148q24 32 44.5 58t87 73t159 55.5t180.5 -19.5
q3 5 -2.5 47t-80.5 72zM271 1117q47 0 76 -33q28 -32 28 -74q0 -52 -34 -82q-30 -25 -70 -25q-43 0 -73 30q-30 31 -30 77q0 49 35 80q31 27 68 27zM537 1122q48 0 77 -34q27 -30 27 -73q0 -51 -34 -81q-29 -26 -69 -26q-43 0 -74 30q-30 28 -30 76q0 51 35 81q31 27 68 27z
" />
    <glyph glyph-name="aring" unicode="&#xe5;" horiz-adv-x="898" 
d="M222 357q-27 -55 14 -140t130 -81q56 3 83.5 35t33.5 76q6 50 -23.5 94.5t-72.5 67t-90.5 13.5t-74.5 -65zM440 686q-46 21 -122 9q-59 -8 -101.5 -42t-164.5 14q-43 19 2 71.5t72 70.5q18 13 38 23q51 26 106 34t109 7q73 0 141 -17q55 -14 105 -39t85.5 -97t24 -171.5
t-18.5 -235.5q-9 -150 21 -267q2 -13 6 -26.5t3 -25.5q-1 -23 -28.5 -31.5t-53.5 -8.5t-59 7t-47 15q-23 15 -34 40q-8 18 -13 35q-26 -15 -56 -27q-66 -28 -139 -29q-76 1 -142 26q-51 20 -93 52t-62 77t-17 102q4 83 50 148q24 32 44.5 58t87 73t159 55.5t180.5 -19.5
q3 5 -2.5 47t-80.5 72zM283 1035q17 33 38 53q7 7 10 9q32 29 73 39q35 9 68 0q16 -4 31 -16t24 -26q8 -17 10 -41q3 -37 -6 -66q-6 -18 -18 -34.5t-24 -30.5q-18 -19 -42 -33t-51 -17q-28 -1 -54 7q-19 7 -36 18.5t-26 30.5t-10 43q-2 35 13 64zM341 1008q-13 -32 11 -66.5
t68 -16.5q28 12 41 33t14 43q3 52 -54 62.5t-80 -55.5z" />
    <glyph glyph-name="ae" unicode="&#xe6;" horiz-adv-x="1466" 
d="M222 357q-27 -55 14 -140t130 -81q56 3 83.5 35t33.5 76q6 50 -23.5 94.5t-72.5 67t-90.5 13.5t-74.5 -65zM440 686q-46 21 -122 9q-59 -8 -101.5 -42t-164.5 14q-43 19 2 71.5t72 70.5q18 13 38 23q51 26 106 34t109 7q73 0 141 -17q55 -14 105 -39t85.5 -97t24 -171.5
t-18.5 -235.5q-9 -150 21 -267q2 -13 6 -26.5t3 -25.5q-1 -23 -28.5 -31.5t-53.5 -8.5t-59 7t-47 15q-23 15 -34 40q-8 18 -13 35q-26 -15 -56 -27q-66 -28 -139 -29q-76 1 -142 26q-51 20 -93 52t-62 77t-17 102q4 83 50 148q24 32 44.5 58t87 73t159 55.5t180.5 -19.5
q3 5 -2.5 47t-80.5 72zM791 345q3 -10 7 -22q26 -73 115.5 -111t170.5 -29q64 5 128.5 72t166.5 -8q45 -29 -8 -92t-84 -85q-21 -15 -43 -26q-58 -30 -117 -35.5t-116 0.5q-78 7 -150 35q-56 22 -107.5 58t-90.5 89q-73 97 -98 215q-39 182 90 304q65 62 146.5 92.5
t194.5 45.5t229.5 -45.5t144.5 -174.5t10 -159t-61.5 -57t-527.5 -67zM1061 637.5q-110 -6.5 -171 -28.5t-90 -96q-3 -5 -5 -9l418 48q-42 92 -152 85.5z" />
    <glyph glyph-name="ccedilla" unicode="&#xe7;" horiz-adv-x="880" 
d="M687 855q55 -12 87 -31q38 -23 38 -54q0 -37 -2.5 -58.5t-20.5 -53.5q-26 -46 -51 -46q-22 0 -43 7.5t-42 14.5q-43 14 -116 11.5t-138 -31.5t-117.5 -92.5t0.5 -215.5q25 -75 104 -107.5t161 -24.5q63 6 118 79.5t180 -2.5q44 -29 -8.5 -93.5t-83.5 -86.5
q-22 -16 -43 -26q-58 -31 -116.5 -36t-116.5 0q-78 7 -149 36q-56 22 -107.5 58.5t-90.5 90.5q-73 98 -98 218q-39 185 90 309q65 63 146.5 94.5t158.5 43.5q63 10 130 10t130 -14zM597 -160q0 -87 -90 -160q-45 -37 -123.5 -66t-43.5 60q14 38 14 76l-1 19q-27 5 -44 32
q-17 25 -17 62q0 53 43 92q45 37 106 37q65 0 107 -38q49 -42 49 -114z" />
    <glyph glyph-name="egrave" unicode="&#xe8;" horiz-adv-x="870" 
d="M242 345q3 -10 7 -22q26 -73 115.5 -111t170.5 -29q64 5 128.5 72t166.5 -8q45 -29 -8 -92t-84 -85q-21 -15 -43 -26q-58 -30 -117 -35.5t-116 0.5q-78 7 -150 35q-56 22 -107.5 58t-90.5 89q-73 97 -98 215q-39 182 90 304q65 62 146.5 92.5t194.5 45.5t229.5 -45.5
t144.5 -174.5t10 -159t-61.5 -57t-527.5 -67zM512 637.5q-110 -6.5 -171 -28.5t-90 -96q-3 -5 -5 -9l418 48q-42 92 -152 85.5zM315 1195q141 -92 242 -183q11 -10 2 -26q-31 -50 -74 -71q-30 -16 -43 -11q-66 23 -131.5 45.5t-126.5 51.5q-30 14 -21 38q40 96 95 155
q21 23 57 1z" />
    <glyph glyph-name="eacute" unicode="&#xe9;" horiz-adv-x="870" 
d="M242 345q3 -10 7 -22q26 -73 115.5 -111t170.5 -29q64 5 128.5 72t166.5 -8q45 -29 -8 -92t-84 -85q-21 -15 -43 -26q-58 -30 -117 -35.5t-116 0.5q-78 7 -150 35q-56 22 -107.5 58t-90.5 89q-73 97 -98 215q-39 182 90 304q65 62 146.5 92.5t194.5 45.5t229.5 -45.5
t144.5 -174.5t10 -159t-61.5 -57t-527.5 -67zM512 637.5q-110 -6.5 -171 -28.5t-90 -96q-3 -5 -5 -9l418 48q-42 92 -152 85.5zM636 952q-160 -56 -293 -80q-14 -2 -22 14q-21 56 -10 103q5 33 18 41q58 37 115.5 75.5t117.5 68.5q30 15 44 -7q51 -91 64 -170q5 -30 -34 -45
z" />
    <glyph glyph-name="ecircumflex" unicode="&#xea;" horiz-adv-x="870" 
d="M242 345q3 -10 7 -22q26 -73 115.5 -111t170.5 -29q64 5 128.5 72t166.5 -8q45 -29 -8 -92t-84 -85q-21 -15 -43 -26q-58 -30 -117 -35.5t-116 0.5q-78 7 -150 35q-56 22 -107.5 58t-90.5 89q-73 97 -98 215q-39 182 90 304q65 62 146.5 92.5t194.5 45.5t229.5 -45.5
t144.5 -174.5t10 -159t-61.5 -57t-527.5 -67zM512 637.5q-110 -6.5 -171 -28.5t-90 -96q-3 -5 -5 -9l418 48q-42 92 -152 85.5zM471 1183q2 -2 14 -8q20 -13 36.5 -29.5t33.5 -32.5q6 -6 18 -19q12 -12 17 -18q16 -18 17 -19q3 -5 7 -10t8 -9l15 -21q7 -10 15 -22
q7 -14 12 -23q6 -13 7 -22q4 -18 -8 -28q-26 -21 -58 -30q-6 -1 -14 -1q-6 0 -10 3q-5 1 -7 5q-2 2 -7 9q-28 47 -84 105q-16 14 -33 32t-34 35q-11 -13 -29 -39q-21 -30 -46.5 -65.5t-35.5 -66.5q-1 -3 -2 -5.5t-2 -4.5q-6 -11 -4 -9q-8 -9 -25 -7q-14 1 -36 9
q-19 7 -33 19q-16 12 -17 23q-2 15 5 36q8 20 20 38.5t26 37.5q4 4 7.5 9.5t6.5 10.5q8 11 16 20q3 4 7 9l8 10q5 7 17 20t18 19q13 14 20 20q12 11 22 18q12 9 24 16q20 10 36 5q30 -5 52 -20z" />
    <glyph glyph-name="edieresis" unicode="&#xeb;" horiz-adv-x="870" 
d="M242 345q3 -10 7 -22q26 -73 115.5 -111t170.5 -29q64 5 128.5 72t166.5 -8q45 -29 -8 -92t-84 -85q-21 -15 -43 -26q-58 -30 -117 -35.5t-116 0.5q-78 7 -150 35q-56 22 -107.5 58t-90.5 89q-73 97 -98 215q-39 182 90 304q65 62 146.5 92.5t194.5 45.5t229.5 -45.5
t144.5 -174.5t10 -159t-61.5 -57t-527.5 -67zM512 637.5q-110 -6.5 -171 -28.5t-90 -96q-3 -5 -5 -9l418 48q-42 92 -152 85.5zM295 1117q47 0 76 -33q28 -32 28 -74q0 -52 -34 -82q-30 -25 -70 -25q-43 0 -73 30q-30 31 -30 77q0 49 35 80q31 27 68 27zM561 1122
q48 0 77 -34q27 -30 27 -73q0 -51 -34 -81q-29 -26 -69 -26q-43 0 -74 30q-30 28 -30 76q0 51 35 81q31 27 68 27z" />
    <glyph glyph-name="igrave" unicode="&#xec;" horiz-adv-x="394" 
d="M32.5 549q15.5 154 49 211.5t66.5 54.5q33 -2 63 -7q27 -6 43 -11q4 -1 10 -5q3 -2 8 -8l9 -9q2 -2 7 -10q3 -4 5 -12l4 -20q0 -2 3 -19q1 -12 -12.5 -189.5t16.5 -412.5q-1 -25 -6 -49t-10 -33q-9 -14 -37 -21q-13 -3 -28.5 -3.5t-31.5 0.5q-30 1 -64 7q-25 4 -44 11
q-5 3 -8 5q-3 1 -9 8q-3 2 -8 9q0 -1 -7 10q-3 2 -5 12q-2 7 -5 20q-1 10 -12.5 158.5t4 302.5zM41 1184q141 -92 242 -183q11 -10 2 -26q-31 -50 -74 -71q-30 -16 -43 -11q-66 23 -131.5 45.5t-126.5 51.5q-30 14 -21 38q40 96 95 155q21 23 57 1z" />
    <glyph glyph-name="iacute" unicode="&#xed;" horiz-adv-x="394" 
d="M32.5 549q15.5 154 49 211.5t66.5 54.5q33 -2 63 -7q27 -6 43 -11q4 -1 10 -5q3 -2 8 -8l9 -9q2 -2 7 -10q3 -4 5 -12l4 -20q0 -2 3 -19q1 -12 -12.5 -189.5t16.5 -412.5q-1 -25 -6 -49t-10 -33q-9 -14 -37 -21q-13 -3 -28.5 -3.5t-31.5 0.5q-30 1 -64 7q-25 4 -44 11
q-5 3 -8 5q-3 1 -9 8q-3 2 -8 9q0 -1 -7 10q-3 2 -5 12q-2 7 -5 20q-1 10 -12.5 158.5t4 302.5zM374 986q-160 -56 -293 -80q-14 -2 -22 14q-21 56 -10 103q5 33 18 41q58 37 115.5 75.5t117.5 68.5q30 15 44 -7q51 -91 64 -170q5 -30 -34 -45z" />
    <glyph glyph-name="icircumflex" unicode="&#xee;" horiz-adv-x="394" 
d="M32.5 549q15.5 154 49 211.5t66.5 54.5q33 -2 63 -7q27 -6 43 -11q4 -1 10 -5q3 -2 8 -8l9 -9q2 -2 7 -10q3 -4 5 -12l4 -20q0 -2 3 -19q1 -12 -12.5 -189.5t16.5 -412.5q-1 -25 -6 -49t-10 -33q-9 -14 -37 -21q-13 -3 -28.5 -3.5t-31.5 0.5q-30 1 -64 7q-25 4 -44 11
q-5 3 -8 5q-3 1 -9 8q-3 2 -8 9q0 -1 -7 10q-3 2 -5 12q-2 7 -5 20q-1 10 -12.5 158.5t4 302.5zM213 1174q2 -2 14 -8q20 -13 36.5 -29.5t33.5 -32.5q6 -6 18 -19q12 -12 17 -18q16 -18 17 -19q3 -5 7 -10t8 -9l15 -21q7 -10 15 -22q7 -14 12 -23q6 -13 7 -22q4 -18 -8 -28
q-26 -21 -58 -30q-6 -1 -14 -1q-6 0 -10 3q-5 1 -7 5q-2 2 -7 9q-28 47 -84 105q-16 14 -33 32t-34 35q-11 -13 -29 -39q-21 -30 -46.5 -65.5t-35.5 -66.5q-1 -3 -2 -5.5t-2 -4.5q-6 -11 -4 -9q-8 -9 -25 -7q-14 1 -36 9q-19 7 -33 19q-16 12 -17 23q-2 15 5 36
q8 20 20 38.5t26 37.5q4 4 7.5 9.5t6.5 10.5q8 11 16 20q3 4 7 9l8 10q5 7 17 20t18 19q13 14 20 20q12 11 22 18q12 9 24 16q20 10 36 5q30 -5 52 -20z" />
    <glyph glyph-name="idieresis" unicode="&#xef;" horiz-adv-x="394" 
d="M32.5 549q15.5 154 49 211.5t66.5 54.5q33 -2 63 -7q27 -6 43 -11q4 -1 10 -5q3 -2 8 -8l9 -9q2 -2 7 -10q3 -4 5 -12l4 -20q0 -2 3 -19q1 -12 -12.5 -189.5t16.5 -412.5q-1 -25 -6 -49t-10 -33q-9 -14 -37 -21q-13 -3 -28.5 -3.5t-31.5 0.5q-30 1 -64 7q-25 4 -44 11
q-5 3 -8 5q-3 1 -9 8q-3 2 -8 9q0 -1 -7 10q-3 2 -5 12q-2 7 -5 20q-1 10 -12.5 158.5t4 302.5zM47 1120q47 0 76 -33q28 -32 28 -74q0 -52 -34 -82q-30 -25 -70 -25q-43 0 -73 30q-30 31 -30 77q0 49 35 80q31 27 68 27zM313 1125q48 0 77 -34q27 -30 27 -73q0 -51 -34 -81
q-29 -26 -69 -26q-43 0 -74 30q-30 28 -30 76q0 51 35 81q31 27 68 27z" />
    <glyph glyph-name="ntilde" unicode="&#xf1;" horiz-adv-x="807" 
d="M122 14q-15 5 -24 11q-29 21 -42 61.5t-18 79.5q-11 74 -12 189t7.5 237.5t48.5 171.5q17 30 41 41q26 13 62 15.5t64 -0.5q41 -5 62.5 -26t11.5 -77q83 63 131 59q75 -4 155 -63q84 -63 124.5 -163.5t54.5 -201.5q10 -70 9 -164t-37 -161q-13 -23 -36 -26
q-40 -6 -83 11.5t-64 39.5q-9 8 -12 20q-6 16 -2.5 35t6.5 36q15 62 16 124.5t-2 120.5q-12 59 -37 96q-53 90 -120.5 92t-90.5 -79q-19 -65 -18 -166v-7q6 -84 19 -160q3 -17 12 -52q10 -41 -1 -54l-6 -6q-9 -19 -30 -30q-33 -17 -74 -19q-31 -1 -61 3q-14 -1 -27 0
q-15 1 -27 12zM702 999q-17 -27 -43 -47q-31 -26 -71 -39q-38 -14 -83 -14q-28 0 -57 14q-30 15 -57 43q-30 28 -53 43q-25 14 -42 14q-23 0 -43 -7t-35 -23q-15 -15 -21 -25q-16 -28 -21.5 -39t-39.5 17l-30 25q-15 10 -7 46t13 45q15 28 44 52q29 25 63 38q32 13 69 13
q19 0 45 -14q25 -15 53 -42q30 -31 52 -43q34 -20 72.5 -11.5t69.5 28.5q38 24 49.5 52t59.5 -18l25 -23q22 -3 7 -41t-19 -44z" />
    <glyph glyph-name="ograve" unicode="&#xf2;" horiz-adv-x="800" 
d="M43 477q50 96 109 153q23 22 30 28q94 83 214 114q101 27 197 1q45 -14 90 -48.5t68 -76.5q25 -48 31 -120q9 -106 -19 -191q-18 -52 -51.5 -100.5t-69.5 -87.5q-54 -57 -122.5 -97.5t-148.5 -47.5q-83 -6 -156 19q-58 20 -106.5 54.5t-74.5 89.5q-27 53 -30 124
q-4 101 39 186zM227 404q-25 -76 34.5 -157t162.5 -38q64 27 93 76.5t30 103.5q2 123 -133 148t-187 -133zM280 1195q141 -92 242 -183q11 -10 2 -26q-31 -50 -74 -71q-30 -16 -43 -11q-66 23 -131.5 45.5t-126.5 51.5q-30 14 -21 38q40 96 95 155q21 23 57 1z" />
    <glyph glyph-name="oacute" unicode="&#xf3;" horiz-adv-x="800" 
d="M43 477q50 96 109 153q23 22 30 28q94 83 214 114q101 27 197 1q45 -14 90 -48.5t68 -76.5q25 -48 31 -120q9 -106 -19 -191q-18 -52 -51.5 -100.5t-69.5 -87.5q-54 -57 -122.5 -97.5t-148.5 -47.5q-83 -6 -156 19q-58 20 -106.5 54.5t-74.5 89.5q-27 53 -30 124
q-4 101 39 186zM227 404q-25 -76 34.5 -157t162.5 -38q64 27 93 76.5t30 103.5q2 123 -133 148t-187 -133zM602 952q-160 -56 -293 -80q-14 -2 -22 14q-21 56 -10 103q5 33 18 41q58 37 115.5 75.5t117.5 68.5q30 15 44 -7q51 -91 64 -170q5 -30 -34 -45z" />
    <glyph glyph-name="ocircumflex" unicode="&#xf4;" horiz-adv-x="800" 
d="M43 477q50 96 109 153q23 22 30 28q94 83 214 114q101 27 197 1q45 -14 90 -48.5t68 -76.5q25 -48 31 -120q9 -106 -19 -191q-18 -52 -51.5 -100.5t-69.5 -87.5q-54 -57 -122.5 -97.5t-148.5 -47.5q-83 -6 -156 19q-58 20 -106.5 54.5t-74.5 89.5q-27 53 -30 124
q-4 101 39 186zM227 404q-25 -76 34.5 -157t162.5 -38q64 27 93 76.5t30 103.5q2 123 -133 148t-187 -133zM436 1183q2 -2 14 -8q20 -13 36.5 -29.5t33.5 -32.5q6 -6 18 -19q12 -12 17 -18q16 -18 17 -19q3 -5 7 -10t8 -9l15 -21q7 -10 15 -22q7 -14 12 -23q6 -13 7 -22
q4 -18 -8 -28q-26 -21 -58 -30q-6 -1 -14 -1q-6 0 -10 3q-5 1 -7 5q-2 2 -7 9q-28 47 -84 105q-16 14 -33 32t-34 35q-11 -13 -29 -39q-21 -30 -46.5 -65.5t-35.5 -66.5q-1 -3 -2 -5.5t-2 -4.5q-6 -11 -4 -9q-8 -9 -25 -7q-14 1 -36 9q-19 7 -33 19q-16 12 -17 23
q-2 15 5 36q8 20 20 38.5t26 37.5q4 4 7.5 9.5t6.5 10.5q8 11 16 20q3 4 7 9l8 10q5 7 17 20t18 19q13 14 20 20q12 11 22 18q12 9 24 16q20 10 36 5q30 -5 52 -20z" />
    <glyph glyph-name="otilde" unicode="&#xf5;" horiz-adv-x="800" 
d="M43 477q50 96 109 153q23 22 30 28q94 83 214 114q101 27 197 1q45 -14 90 -48.5t68 -76.5q25 -48 31 -120q9 -106 -19 -191q-18 -52 -51.5 -100.5t-69.5 -87.5q-54 -57 -122.5 -97.5t-148.5 -47.5q-83 -6 -156 19q-58 20 -106.5 54.5t-74.5 89.5q-27 53 -30 124
q-4 101 39 186zM233 379q0 -65 73.5 -134.5t149.5 -32.5q48 23 58.5 65.5t-3.5 88.5q-33 105 -155.5 126.5t-122.5 -113.5zM684 999q-17 -27 -42 -47q-32 -26 -71 -39q-39 -14 -84 -14q-28 0 -56 14q-31 15 -58 43q-29 28 -53 43q-25 14 -42 14q-23 0 -42 -7q-20 -7 -36 -23
q-14 -15 -20 -25q-17 -28 -22 -39t-40 17l-30 25q-15 10 -6.5 46t13.5 45q14 28 44 52q29 25 62 38q32 13 69 13q20 0 45 -14q25 -15 53 -42q31 -31 53 -43q33 -20 71.5 -11.5t69.5 28.5q39 24 50 52t59 -18l25 -23q22 -3 7.5 -41t-19.5 -44z" />
    <glyph glyph-name="odieresis" unicode="&#xf6;" horiz-adv-x="800" 
d="M43 477q50 96 109 153q23 22 30 28q94 83 214 114q101 27 197 1q45 -14 90 -48.5t68 -76.5q25 -48 31 -120q9 -106 -19 -191q-18 -52 -51.5 -100.5t-69.5 -87.5q-54 -57 -122.5 -97.5t-148.5 -47.5q-83 -6 -156 19q-58 20 -106.5 54.5t-74.5 89.5q-27 53 -30 124
q-4 101 39 186zM227 404q-25 -76 34.5 -157t162.5 -38q64 27 93 76.5t30 103.5q2 123 -133 148t-187 -133zM261 1117q47 0 76 -33q28 -32 28 -74q0 -52 -34 -82q-30 -25 -70 -25q-43 0 -73 30q-30 31 -30 77q0 49 35 80q31 27 68 27zM527 1122q48 0 77 -34q27 -30 27 -73
q0 -51 -34 -81q-29 -26 -69 -26q-43 0 -74 30q-30 28 -30 76q0 51 35 81q31 27 68 27z" />
    <glyph glyph-name="oslash" unicode="&#xf8;" horiz-adv-x="800" 
d="M43 477q50 96 109 153q23 22 30 28q94 83 214 114q101 27 197 1q45 -14 90 -48.5t68 -76.5q25 -48 31 -120q9 -106 -19 -191q-18 -52 -51.5 -100.5t-69.5 -87.5q-54 -57 -122.5 -97.5t-148.5 -47.5q-83 -6 -156 19q-58 20 -106.5 54.5t-74.5 89.5q-27 53 -30 124
q-4 101 39 186zM233 379q0 -65 73.5 -134.5t149.5 -32.5q48 23 58.5 65.5t-3.5 88.5q-33 105 -155.5 126.5t-122.5 -113.5zM507 802q9 19 14 28q9 13 16 20q7 8 18 12q13 3 24 3q53 -2 91 -49q16 -21 2 -73q-6 -23 -23 -67q-9 -23 -32 -69q-17 -34 -34 -67
q-10 -17 -19 -33.5t-18 -32.5q-9 -15 -18 -31t-17 -31q-11 -15 -20 -30.5t-18 -30.5q-18 -30 -39 -61q-15 -24 -40 -61q-36 -55 -72.5 -108.5t-78.5 -101.5q-46 -52 -80 -76q-26 -17 -62 -14q-30 3 -59 22q-29 18 -38 43q-11 29 4 53q5 7 17 22q13 16 22 25q68 76 137 181
t127 193q54 80 104 163.5t92 170.5z" />
    <glyph glyph-name="ugrave" unicode="&#xf9;" horiz-adv-x="806" 
d="M690 771q16 -5 24 -11q30 -21 42.5 -61.5t18.5 -79.5q11 -74 12 -189t-7.5 -237.5t-48.5 -171.5q-17 -30 -41 -41q-26 -13 -62.5 -15.5t-64.5 0.5q-40 5 -62 26t-12 77q-82 -63 -130 -59q-76 4 -155 63q-85 63 -125.5 163.5t-54.5 201.5q-9 70 -8 164t36 161q13 23 37 26
q40 6 82.5 -11.5t63.5 -39.5q10 -8 13 -20q6 -16 2.5 -35t-7.5 -36q-15 -62 -16 -124.5t2 -120.5q13 -59 38 -96q53 -90 120 -92t91 79q19 65 18 166v7q-6 84 -19 160q-4 17 -12 53q-10 40 1 53l6 6q9 19 29 30q33 17 75 19q31 1 61 -3q14 1 26 0q15 -1 27 -12zM287 1195
q141 -92 242 -183q11 -10 2 -26q-31 -50 -74 -71q-30 -16 -43 -11q-66 23 -131.5 45.5t-126.5 51.5q-30 14 -21 38q40 96 95 155q21 23 57 1z" />
    <glyph glyph-name="uacute" unicode="&#xfa;" horiz-adv-x="806" 
d="M690 771q16 -5 24 -11q30 -21 42.5 -61.5t18.5 -79.5q11 -74 12 -189t-7.5 -237.5t-48.5 -171.5q-17 -30 -41 -41q-26 -13 -62.5 -15.5t-64.5 0.5q-40 5 -62 26t-12 77q-82 -63 -130 -59q-76 4 -155 63q-85 63 -125.5 163.5t-54.5 201.5q-9 70 -8 164t36 161q13 23 37 26
q40 6 82.5 -11.5t63.5 -39.5q10 -8 13 -20q6 -16 2.5 -35t-7.5 -36q-15 -62 -16 -124.5t2 -120.5q13 -59 38 -96q53 -90 120 -92t91 79q19 65 18 166v7q-6 84 -19 160q-4 17 -12 53q-10 40 1 53l6 6q9 19 29 30q33 17 75 19q31 1 61 -3q14 1 26 0q15 -1 27 -12zM609 952
q-160 -56 -293 -80q-14 -2 -22 14q-21 56 -10 103q5 33 18 41q58 37 115.5 75.5t117.5 68.5q30 15 44 -7q51 -91 64 -170q5 -30 -34 -45z" />
    <glyph glyph-name="ucircumflex" unicode="&#xfb;" horiz-adv-x="806" 
d="M690 771q16 -5 24 -11q30 -21 42.5 -61.5t18.5 -79.5q11 -74 12 -189t-7.5 -237.5t-48.5 -171.5q-17 -30 -41 -41q-26 -13 -62.5 -15.5t-64.5 0.5q-40 5 -62 26t-12 77q-82 -63 -130 -59q-76 4 -155 63q-85 63 -125.5 163.5t-54.5 201.5q-9 70 -8 164t36 161q13 23 37 26
q40 6 82.5 -11.5t63.5 -39.5q10 -8 13 -20q6 -16 2.5 -35t-7.5 -36q-15 -62 -16 -124.5t2 -120.5q13 -59 38 -96q53 -90 120 -92t91 79q19 65 18 166v7q-6 84 -19 160q-4 17 -12 53q-10 40 1 53l6 6q9 19 29 30q33 17 75 19q31 1 61 -3q14 1 26 0q15 -1 27 -12zM444 1183
q2 -2 14 -8q20 -13 36.5 -29.5t33.5 -32.5q6 -6 18 -19q12 -12 17 -18q16 -18 17 -19q3 -5 7 -10t8 -9l15 -21q7 -10 15 -22q7 -14 12 -23q6 -13 7 -22q4 -18 -8 -28q-26 -21 -58 -30q-6 -1 -14 -1q-6 0 -10 3q-5 1 -7 5q-2 2 -7 9q-28 47 -84 105q-16 14 -33 32t-34 35
q-11 -13 -29 -39q-21 -30 -46.5 -65.5t-35.5 -66.5q-1 -3 -2 -5.5t-2 -4.5q-6 -11 -4 -9q-8 -9 -25 -7q-14 1 -36 9q-19 7 -33 19q-16 12 -17 23q-2 15 5 36q8 20 20 38.5t26 37.5q4 4 7.5 9.5t6.5 10.5q8 11 16 20q3 4 7 9l8 10q5 7 17 20t18 19q13 14 20 20q12 11 22 18
q12 9 24 16q20 10 36 5q30 -5 52 -20z" />
    <glyph glyph-name="udieresis" unicode="&#xfc;" horiz-adv-x="806" 
d="M690 771q16 -5 24 -11q30 -21 42.5 -61.5t18.5 -79.5q11 -74 12 -189t-7.5 -237.5t-48.5 -171.5q-17 -30 -41 -41q-26 -13 -62.5 -15.5t-64.5 0.5q-40 5 -62 26t-12 77q-82 -63 -130 -59q-76 4 -155 63q-85 63 -125.5 163.5t-54.5 201.5q-9 70 -8 164t36 161q13 23 37 26
q40 6 82.5 -11.5t63.5 -39.5q10 -8 13 -20q6 -16 2.5 -35t-7.5 -36q-15 -62 -16 -124.5t2 -120.5q13 -59 38 -96q53 -90 120 -92t91 79q19 65 18 166v7q-6 84 -19 160q-4 17 -12 53q-10 40 1 53l6 6q9 19 29 30q33 17 75 19q31 1 61 -3q14 1 26 0q15 -1 27 -12zM268 1117
q47 0 76 -33q28 -32 28 -74q0 -52 -34 -82q-30 -25 -70 -25q-43 0 -73 30q-30 31 -30 77q0 49 35 80q31 27 68 27zM534 1122q48 0 77 -34q27 -30 27 -73q0 -51 -34 -81q-29 -26 -69 -26q-43 0 -74 30q-30 28 -30 76q0 51 35 81q31 27 68 27z" />
    <glyph glyph-name="yacute" unicode="&#xfd;" horiz-adv-x="870" 
d="M44 702q27 42 47.5 61t58.5 49q42 18 84 -24q61 -61 102.5 -174t97.5 -181q17 -23 37.5 -8.5t34.5 31.5q41 47 79.5 132t65.5 145q16 37 35.5 53.5t57.5 -0.5q36 -18 60.5 -45.5t47.5 -64.5q26 -41 13 -109q-17 -87 -59.5 -172t-81.5 -158q-42 -75 -87.5 -144t-92.5 -137
l-88 -120t-96 -108q-55 -51 -102 -66q-35 -11 -82.5 14.5t-66.5 55t-37.5 62.5t1.5 63q16 24 47.5 48.5t53.5 53.5q20 25 38.5 41.5t51.5 71.5q63 86 -2 176q-26 45 -73.5 109.5t-76.5 105.5q-20 29 -39.5 60.5t-33.5 66.5q-14 31 -14.5 55.5t19.5 56.5zM655 952
q-160 -56 -293 -80q-14 -2 -22 14q-21 56 -10 103q5 33 18 41q58 37 115.5 75.5t117.5 68.5q30 15 44 -7q51 -91 64 -170q5 -30 -34 -45z" />
    <glyph glyph-name="ydieresis" unicode="&#xff;" horiz-adv-x="870" 
d="M44 702q27 42 47.5 61t58.5 49q42 18 84 -24q61 -61 102.5 -174t97.5 -181q17 -23 37.5 -8.5t34.5 31.5q41 47 79.5 132t65.5 145q16 37 35.5 53.5t57.5 -0.5q36 -18 60.5 -45.5t47.5 -64.5q26 -41 13 -109q-17 -87 -59.5 -172t-81.5 -158q-42 -75 -87.5 -144t-92.5 -137
l-88 -120t-96 -108q-55 -51 -102 -66q-35 -11 -82.5 14.5t-66.5 55t-37.5 62.5t1.5 63q16 24 47.5 48.5t53.5 53.5q20 25 38.5 41.5t51.5 71.5q63 86 -2 176q-26 45 -73.5 109.5t-76.5 105.5q-20 29 -39.5 60.5t-33.5 66.5q-14 31 -14.5 55.5t19.5 56.5zM314 1117
q47 0 76 -33q28 -32 28 -74q0 -52 -34 -82q-30 -25 -70 -25q-43 0 -73 30q-30 31 -30 77q0 49 35 80q31 27 68 27zM580 1122q48 0 77 -34q27 -30 27 -73q0 -51 -34 -81q-29 -26 -69 -26q-43 0 -74 30q-30 28 -30 76q0 51 35 81q31 27 68 27z" />
    <glyph glyph-name="Cacute" unicode="&#x106;" horiz-adv-x="1265" 
d="M979 1228q79 -18 125 -45q54 -33 54 -78q0 -52 -3 -83t-29 -77q-38 -66 -73 -66q-32 0 -63 10.5t-60 20.5q-61 20 -167 16.5t-199 -45.5t-169 -133.5t0 -310.5q37 -107 151 -154t232 -36q90 9 169 115t259 -4q63 -42 -12.5 -134.5t-119.5 -124.5q-31 -22 -62 -38
q-83 -44 -167.5 -51.5t-168.5 0.5q-111 10 -213 51q-82 32 -156 85t-130 130q-105 141 -140 314q-57 267 129 445q93 91 210.5 136t227.5 63q92 14 188 14t187 -20zM837 1362q-160 -56 -293 -80q-14 -2 -22 14q-21 56 -10 103q5 33 18 41q58 37 115.5 75.5t117.5 68.5
q30 15 44 -7q51 -91 64 -170q5 -30 -34 -45z" />
    <glyph glyph-name="cacute" unicode="&#x107;" horiz-adv-x="880" 
d="M687 855q55 -12 87 -31q38 -23 38 -54q0 -37 -2.5 -58.5t-20.5 -53.5q-26 -46 -51 -46q-22 0 -43 7.5t-42 14.5q-43 14 -116 11.5t-138 -31.5t-117.5 -92.5t0.5 -215.5q25 -75 104 -107.5t161 -24.5q63 6 118 79.5t180 -2.5q44 -29 -8.5 -93.5t-83.5 -86.5
q-22 -16 -43 -26q-58 -31 -116.5 -36t-116.5 0q-78 7 -149 36q-56 22 -107.5 58.5t-90.5 90.5q-73 98 -98 218q-39 185 90 309q65 63 146.5 94.5t158.5 43.5q63 10 130 10t130 -14zM652 952q-160 -56 -293 -80q-14 -2 -22 14q-21 56 -10 103q5 33 18 41q58 37 115.5 75.5
t117.5 68.5q30 15 44 -7q51 -91 64 -170q5 -30 -34 -45z" />
    <glyph glyph-name="Ccircumflex" unicode="&#x108;" horiz-adv-x="1265" 
d="M979 1228q79 -18 125 -45q54 -33 54 -78q0 -52 -3 -83t-29 -77q-38 -66 -73 -66q-32 0 -63 10.5t-60 20.5q-61 20 -167 16.5t-199 -45.5t-169 -133.5t0 -310.5q37 -107 151 -154t232 -36q90 9 169 115t259 -4q63 -42 -12.5 -134.5t-119.5 -124.5q-31 -22 -62 -38
q-83 -44 -167.5 -51.5t-168.5 0.5q-111 10 -213 51q-82 32 -156 85t-130 130q-105 141 -140 314q-57 267 129 445q93 91 210.5 136t227.5 63q92 14 188 14t187 -20zM671 1593q2 -2 14 -8q20 -13 36.5 -29.5t33.5 -32.5q6 -6 18 -19q12 -12 17 -18q16 -18 17 -19q3 -5 7 -10
t8 -9l15 -21q7 -10 15 -22q7 -14 12 -23q6 -13 7 -22q4 -18 -8 -28q-26 -21 -58 -30q-6 -1 -14 -1q-6 0 -10 3q-5 1 -7 5q-2 2 -7 9q-28 47 -84 105q-16 14 -33 32t-34 35q-11 -13 -29 -39q-21 -30 -46.5 -65.5t-35.5 -66.5q-1 -3 -2 -5.5t-2 -4.5q-6 -11 -4 -9
q-8 -9 -25 -7q-14 1 -36 9q-19 7 -33 19q-16 12 -17 23q-2 15 5 36q8 20 20 38.5t26 37.5q4 4 7.5 9.5t6.5 10.5q8 11 16 20q3 4 7 9l8 10q5 7 17 20t18 19q13 14 20 20q12 11 22 18q12 9 24 16q20 10 36 5q30 -5 52 -20z" />
    <glyph glyph-name="ccircumflex" unicode="&#x109;" horiz-adv-x="880" 
d="M687 855q55 -12 87 -31q38 -23 38 -54q0 -37 -2.5 -58.5t-20.5 -53.5q-26 -46 -51 -46q-22 0 -43 7.5t-42 14.5q-43 14 -116 11.5t-138 -31.5t-117.5 -92.5t0.5 -215.5q25 -75 104 -107.5t161 -24.5q63 6 118 79.5t180 -2.5q44 -29 -8.5 -93.5t-83.5 -86.5
q-22 -16 -43 -26q-58 -31 -116.5 -36t-116.5 0q-78 7 -149 36q-56 22 -107.5 58.5t-90.5 90.5q-73 98 -98 218q-39 185 90 309q65 63 146.5 94.5t158.5 43.5q63 10 130 10t130 -14zM486 1183q2 -2 14 -8q20 -13 36.5 -29.5t33.5 -32.5q6 -6 18 -19q12 -12 17 -18
q16 -18 17 -19q3 -5 7 -10t8 -9l15 -21q7 -10 15 -22q7 -14 12 -23q6 -13 7 -22q4 -18 -8 -28q-26 -21 -58 -30q-6 -1 -14 -1q-6 0 -10 3q-5 1 -7 5q-2 2 -7 9q-28 47 -84 105q-16 14 -33 32t-34 35q-11 -13 -29 -39q-21 -30 -46.5 -65.5t-35.5 -66.5q-1 -3 -2 -5.5t-2 -4.5
q-6 -11 -4 -9q-8 -9 -25 -7q-14 1 -36 9q-19 7 -33 19q-16 12 -17 23q-2 15 5 36q8 20 20 38.5t26 37.5q4 4 7.5 9.5t6.5 10.5q8 11 16 20q3 4 7 9l8 10q5 7 17 20t18 19q13 14 20 20q12 11 22 18q12 9 24 16q20 10 36 5q30 -5 52 -20z" />
    <glyph glyph-name="Ccaron" unicode="&#x10c;" horiz-adv-x="1265" 
d="M979 1228q79 -18 125 -45q54 -33 54 -78q0 -52 -3 -83t-29 -77q-38 -66 -73 -66q-32 0 -63 10.5t-60 20.5q-61 20 -167 16.5t-199 -45.5t-169 -133.5t0 -310.5q37 -107 151 -154t232 -36q90 9 169 115t259 -4q63 -42 -12.5 -134.5t-119.5 -124.5q-31 -22 -62 -38
q-83 -44 -167.5 -51.5t-168.5 0.5q-111 10 -213 51q-82 32 -156 85t-130 130q-105 141 -140 314q-57 267 129 445q93 91 210.5 136t227.5 63q92 14 188 14t187 -20zM573 1281l-15 10q-21 15 -38.5 33t-34.5 35q-7 8 -19 22q-12 13 -18 20q-17 21 -17 22q-4 5 -8.5 10.5
t-8.5 10.5q-5 7 -15 23q-8 10 -15 24q-8 14 -12 24q-6 15 -8 25q-3 19 10 30q30 21 65 29h15q8 0 11 -3q5 -1 7 -6q2 -2 7 -10q29 -51 88 -115q17 -17 34.5 -36.5t35.5 -39.5q12 14 34 41q23 31 52.5 68t42.5 70q1 4 2 6.5t2 5.5q6 10 5 8q9 9 27 7q15 -1 39 -11
q21 -9 35 -22q17 -14 18 -26q1 -17 -8 -39q-9 -20 -23 -39.5t-29 -39.5q-4 -4 -8.5 -9.5t-8.5 -11.5q-10 -12 -18 -20q-3 -5 -8 -10t-9 -11q-6 -6 -20 -19q-13 -14 -20 -21q-15 -13 -22 -20q-13 -11 -25 -18q-13 -9 -27 -16q-23 -10 -40 -6q-32 8 -55 25z" />
    <glyph glyph-name="ccaron" unicode="&#x10d;" horiz-adv-x="880" 
d="M687 855q55 -12 87 -31q38 -23 38 -54q0 -37 -2.5 -58.5t-20.5 -53.5q-26 -46 -51 -46q-22 0 -43 7.5t-42 14.5q-43 14 -116 11.5t-138 -31.5t-117.5 -92.5t0.5 -215.5q25 -75 104 -107.5t161 -24.5q63 6 118 79.5t180 -2.5q44 -29 -8.5 -93.5t-83.5 -86.5
q-22 -16 -43 -26q-58 -31 -116.5 -36t-116.5 0q-78 7 -149 36q-56 22 -107.5 58.5t-90.5 90.5q-73 98 -98 218q-39 185 90 309q65 63 146.5 94.5t158.5 43.5q63 10 130 10t130 -14zM388 871l-15 10q-21 15 -38.5 33t-34.5 35q-7 8 -19 22q-12 13 -18 20q-17 21 -17 22
q-4 5 -8.5 10.5t-8.5 10.5q-5 7 -15 23q-8 10 -15 24q-8 14 -12 24q-6 15 -8 25q-3 19 10 30q30 21 65 29h15q8 0 11 -3q5 -1 7 -6q2 -2 7 -10q29 -51 88 -115q17 -17 34.5 -36.5t35.5 -39.5q12 14 34 41q23 31 52.5 68t42.5 70q1 4 2 6.5t2 5.5q6 10 5 8q9 9 27 7
q15 -1 39 -11q21 -9 35 -22q17 -14 18 -26q1 -17 -8 -39q-9 -20 -23 -39.5t-29 -39.5q-4 -4 -8.5 -9.5t-8.5 -11.5q-10 -12 -18 -20q-3 -5 -8 -10t-9 -11q-6 -6 -20 -19q-13 -14 -20 -21q-15 -13 -22 -20q-13 -11 -25 -18q-13 -9 -27 -16q-23 -10 -40 -6q-32 8 -55 25z" />
    <glyph glyph-name="Dcaron" unicode="&#x10e;" horiz-adv-x="1229" 
d="M93 1182q20 63 74 67q160 8 319.5 -7.5t318.5 -98.5q179 -95 286 -244q91 -128 116 -281q16 -109 -38.5 -215t-118.5 -177q-75 -81 -168 -129q-94 -49 -207 -67q-142 -23 -291 -8.5t-297 34.5q-46 5 -61 27t-16 54q-8 223 6.5 534.5t76.5 510.5zM900 618q-6 77 -89 144
q-31 23 -71 46q-116 60 -238 76q-32 5 -61 4q-33 -3 -56 -24q-11 -10 -21 -76t-17 -144.5t-9 -146.5t4 -80q3 -8 8 -12q51 -27 114 -41q62 -13 121 -10q78 3 169.5 30.5t121.5 102.5q26 64 24 131zM553 1281l-15 10q-21 15 -38.5 33t-34.5 35q-7 8 -19 22q-12 13 -18 20
q-17 21 -17 22q-4 5 -8.5 10.5t-8.5 10.5q-5 7 -15 23q-8 10 -15 24q-8 14 -12 24q-6 15 -8 25q-3 19 10 30q30 21 65 29h15q8 0 11 -3q5 -1 7 -6q2 -2 7 -10q29 -51 88 -115q17 -17 34.5 -36.5t35.5 -39.5q12 14 34 41q23 31 52.5 68t42.5 70q1 4 2 6.5t2 5.5q6 10 5 8
q9 9 27 7q15 -1 39 -11q21 -9 35 -22q17 -14 18 -26q1 -17 -8 -39q-9 -20 -23 -39.5t-29 -39.5q-4 -4 -8.5 -9.5t-8.5 -11.5q-10 -12 -18 -20q-3 -5 -8 -10t-9 -11q-6 -6 -20 -19q-13 -14 -20 -21q-15 -13 -22 -20q-13 -11 -25 -18q-13 -9 -27 -16q-23 -10 -40 -6
q-32 8 -55 25z" />
    <glyph glyph-name="Dcroat" unicode="&#x110;" horiz-adv-x="1229" 
d="M339 1166q20 63 74 67q160 8 319.5 -7.5t318.5 -98.5q179 -95 286 -244q91 -128 116 -281q16 -109 -38.5 -215t-118.5 -177q-75 -81 -168 -129q-94 -49 -207 -67q-142 -23 -291 -8.5t-297 34.5q-46 5 -61 27t-16 54q-8 223 6.5 534.5t76.5 510.5zM1146 602q-6 77 -89 144
q-31 23 -71 46q-116 60 -238 76q-32 5 -61 4q-33 -3 -56 -24q-11 -10 -21 -76t-17 -144.5t-9 -146.5t4 -80q3 -8 8 -12q51 -27 114 -41q62 -13 121 -10q78 3 169.5 30.5t121.5 102.5q26 64 24 131zM836 495q-81 17 -164.5 24t-165.5 8q-91 0 -198 2t-191 -15q-10 -2 -28 -5
q-9 -1 -24 -1q-26 0 -40 31q-15 28 -18 69q-2 41 9 76q11 38 37 53q31 20 88 30q54 9 109.5 9h110.5q16 0 31.5 -0.5t31.5 -0.5q14 0 29.5 -1t31.5 -1q15 -2 30.5 -2.5t30.5 -1.5l63 -7q44 -5 63 -8q44 -6 65 -11q38 -7 65 -15q32 -10 60 -22q44 -21 53 -53q18 -73 -1 -127
q-5 -14 -12 -22t-16 -10q-7 -2 -22 -2q-8 0 -28 3z" />
    <glyph glyph-name="dcroat" unicode="&#x111;" horiz-adv-x="896" 
d="M330.5 555q58.5 26 112 9.5t88.5 -68t26 -119.5q-10 -61 -45 -112t-107 -72q-109 -32 -157.5 69.5t-12.5 182.5q37 84 95.5 110zM637 62q14 -32 40 -48q15 -9 49.5 -15.5t70.5 -4.5t62.5 15t26.5 43q-1 17 -6 34t-10 32q-41 151 -47.5 346t30.5 630q6 47 -14 63t-55 20
q-24 3 -54 1t-52 -12q-19 -9 -32 -32q-25 -290 -33 -318q-6 2 -11 3q-98 29 -206 0q-124 -34 -222 -121q-15 -13 -31 -29q-36 -36 -63.5 -77t-49.5 -85q-44 -89 -40 -197q3 -74 30 -130q27 -57 78.5 -94t110.5 -58q78 -27 162 -20q84 8 155 50q49 28 90 66q8 -30 21 -62z
M984 837q12 0 18 2q7 1 13 8q5 6 9 17q15 43 1 101q-7 26 -42 43q-22 9 -48 17q-21 6 -52 12q-16 4 -51 9q-15 2 -50 6q-36 4 -51 6q-12 0 -24 0.5t-24 2.5q-13 0 -25.5 0.5t-23.5 0.5q-12 0 -24.5 0.5t-25.5 0.5h-88t-87 -7q-45 -8 -70 -24q-21 -12 -29 -42q-9 -28 -8 -60
q3 -33 15 -55q11 -25 32 -25q12 0 19 1q14 2 22 4q67 13 152 11.5t158 -1.5q65 -1 131.5 -6.5t130.5 -18.5q16 -3 22 -3z" />
    <glyph glyph-name="Ecaron" unicode="&#x11a;" horiz-adv-x="1178" 
d="M119 1170q19 8 40 13.5t42 12.5q134 45 323.5 71.5t340.5 5.5q38 -6 80 -18.5t67 -42.5q27 -34 44.5 -127.5t-59.5 -98.5q-21 -2 -43 2t-42 7q-196 21 -317 16.5t-250 -27.5q-4 -167 3 -261q109 13 209 23t137 9q89 -2 85.5 -75t-37.5 -102q-27 -37 -139.5 -58
t-224.5 -30q24 -159 47 -237q19 1 42.5 3t53.5 5q117 9 256 29t234 50q10 2 20.5 6t20.5 8q24 6 42 8q39 2 56 -30.5t21 -76.5q5 -40 -24 -91q-17 -29 -59 -52q-28 -15 -77 -29q-74 -22 -187 -37t-233 -21q-73 -5 -190 -11.5t-176 17.5q-43 17 -67.5 57t-39.5 78
q-30 73 -51.5 188.5t-33 239t-11.5 238.5t15 188q13 65 35 105q17 31 47 45zM541 1281l-15 10q-21 15 -38.5 33t-34.5 35q-7 8 -19 22q-12 13 -18 20q-17 21 -17 22q-4 5 -8.5 10.5t-8.5 10.5q-5 7 -15 23q-8 10 -15 24q-8 14 -12 24q-6 15 -8 25q-3 19 10 30q30 21 65 29
h15q8 0 11 -3q5 -1 7 -6q2 -2 7 -10q29 -51 88 -115q17 -17 34.5 -36.5t35.5 -39.5q12 14 34 41q23 31 52.5 68t42.5 70q1 4 2 6.5t2 5.5q6 10 5 8q9 9 27 7q15 -1 39 -11q21 -9 35 -22q17 -14 18 -26q1 -17 -8 -39q-9 -20 -23 -39.5t-29 -39.5q-4 -4 -8.5 -9.5t-8.5 -11.5
q-10 -12 -18 -20q-3 -5 -8 -10t-9 -11q-6 -6 -20 -19q-13 -14 -20 -21q-15 -13 -22 -20q-13 -11 -25 -18q-13 -9 -27 -16q-23 -10 -40 -6q-32 8 -55 25z" />
    <glyph glyph-name="ecaron" unicode="&#x11b;" horiz-adv-x="870" 
d="M242 345q3 -10 7 -22q26 -73 115.5 -111t170.5 -29q64 5 128.5 72t166.5 -8q45 -29 -8 -92t-84 -85q-21 -15 -43 -26q-58 -30 -117 -35.5t-116 0.5q-78 7 -150 35q-56 22 -107.5 58t-90.5 89q-73 97 -98 215q-39 182 90 304q65 62 146.5 92.5t194.5 45.5t229.5 -45.5
t144.5 -174.5t10 -159t-61.5 -57t-527.5 -67zM512 637.5q-110 -6.5 -171 -28.5t-90 -96q-3 -5 -5 -9l418 48q-42 92 -152 85.5zM373 871l-15 10q-21 15 -38.5 33t-34.5 35q-7 8 -19 22q-12 13 -18 20q-17 21 -17 22q-4 5 -8.5 10.5t-8.5 10.5q-5 7 -15 23q-8 10 -15 24
q-8 14 -12 24q-6 15 -8 25q-3 19 10 30q30 21 65 29h15q8 0 11 -3q5 -1 7 -6q2 -2 7 -10q29 -51 88 -115q17 -17 34.5 -36.5t35.5 -39.5q12 14 34 41q23 31 52.5 68t42.5 70q1 4 2 6.5t2 5.5q6 10 5 8q9 9 27 7q15 -1 39 -11q21 -9 35 -22q17 -14 18 -26q1 -17 -8 -39
q-9 -20 -23 -39.5t-29 -39.5q-4 -4 -8.5 -9.5t-8.5 -11.5q-10 -12 -18 -20q-3 -5 -8 -10t-9 -11q-6 -6 -20 -19q-13 -14 -20 -21q-15 -13 -22 -20q-13 -11 -25 -18q-13 -9 -27 -16q-23 -10 -40 -6q-32 8 -55 25z" />
    <glyph glyph-name="Gcircumflex" unicode="&#x11c;" horiz-adv-x="1248" 
d="M979 1228q79 -18 125 -45q54 -33 54 -78q0 -52 -9 -77.5t-35 -71.5q-38 -66 -73 -66q-32 0 -63 10.5t-60 20.5q-61 20 -167 16.5t-199 -45.5t-159 -131t-10 -295q35 -121 154.5 -184t340.5 -12q-138 43 -155 54q-23 16 -36 35q-11 15 -15 35q-9 54 8 112q13 48 87.5 36.5
t163.5 -47t169 -78.5t106 -59q63 -42 -12.5 -134.5t-119.5 -124.5q-31 -22 -62 -38q-83 -44 -167.5 -51.5t-168.5 0.5q-111 10 -213 51q-82 32 -156 85t-130 130q-105 141 -140 314q-57 267 129 445q93 91 210.5 136t227.5 63q92 14 188 14t187 -20zM671 1593q2 -2 14 -8
q20 -13 36.5 -29.5t33.5 -32.5q6 -6 18 -19q12 -12 17 -18q16 -18 17 -19q3 -5 7 -10t8 -9l15 -21q7 -10 15 -22q7 -14 12 -23q6 -13 7 -22q4 -18 -8 -28q-26 -21 -58 -30q-6 -1 -14 -1q-6 0 -10 3q-5 1 -7 5q-2 2 -7 9q-28 47 -84 105q-16 14 -33 32t-34 35
q-11 -13 -29 -39q-21 -30 -46.5 -65.5t-35.5 -66.5q-1 -3 -2 -5.5t-2 -4.5q-6 -11 -4 -9q-8 -9 -25 -7q-14 1 -36 9q-19 7 -33 19q-16 12 -17 23q-2 15 5 36q8 20 20 38.5t26 37.5q4 4 7.5 9.5t6.5 10.5q8 11 16 20q3 4 7 9l8 10q5 7 17 20t18 19q13 14 20 20q12 11 22 18
q12 9 24 16q20 10 36 5q30 -5 52 -20z" />
    <glyph glyph-name="gcircumflex" unicode="&#x11d;" horiz-adv-x="865" 
d="M475.5 304q47.5 27 74.5 86t12 127q-15 61 -53.5 106t-105.5 54q-107 13 -141 -99.5t7 -190.5q43 -78 101 -94t105.5 11zM603 102q-134 -27 -236 -9.5t-172 83t-91 101t-44 78.5q-46 87 -44 194q2 74 28 130q26 57 75.5 95t108.5 59q76 28 160 23q82 -6 153 -47
q32 -18 60 -39q7 21 17 44q15 31 42 49q16 9 53.5 16t66.5 4.5t59 -15t29 -42.5q0 -16 -5.5 -33t-9.5 -33q-43 -149 -46 -343q-4 -175 0.5 -304t-41.5 -219.5t-104 -119t-120 -41.5q-77 -17 -159 -12q-60 3 -120.5 17t-115.5 52q-21 14 -40 32q-29 26 -74.5 96.5t4.5 92.5
q140 53 183 -13.5t108 -81.5q83 -21 170 0q86 33 97 106t8 80zM482 1183q2 -2 14 -8q20 -13 36.5 -29.5t33.5 -32.5q6 -6 18 -19q12 -12 17 -18q16 -18 17 -19q3 -5 7 -10t8 -9l15 -21q7 -10 15 -22q7 -14 12 -23q6 -13 7 -22q4 -18 -8 -28q-26 -21 -58 -30q-6 -1 -14 -1
q-6 0 -10 3q-5 1 -7 5q-2 2 -7 9q-28 47 -84 105q-16 14 -33 32t-34 35q-11 -13 -29 -39q-21 -30 -46.5 -65.5t-35.5 -66.5q-1 -3 -2 -5.5t-2 -4.5q-6 -11 -4 -9q-8 -9 -25 -7q-14 1 -36 9q-19 7 -33 19q-16 12 -17 23q-2 15 5 36q8 20 20 38.5t26 37.5q4 4 7.5 9.5
t6.5 10.5q8 11 16 20q3 4 7 9l8 10q5 7 17 20t18 19q13 14 20 20q12 11 22 18q12 9 24 16q20 10 36 5q30 -5 52 -20z" />
    <glyph glyph-name="Hcircumflex" unicode="&#x124;" horiz-adv-x="1224" 
d="M394 462q42 -176 82 -268q8 -21 18 -43.5t14 -44.5q5 -41 -34 -62.5t-92.5 -29.5t-88 -3t-57.5 16q-42 17 -67 59t-40 82q-31 77 -55 198t-39 251.5t-18.5 252t7.5 198.5q9 66 30 112q14 31 43 48q32 17 52.5 22.5t57.5 5.5q54 -1 85.5 -19.5t28.5 -84.5
q-10 -220 32 -460q131 17 255.5 33t195.5 23q-5 107 -2.5 204.5t14.5 165.5q7 42 23 87.5t54 71.5q20 14 71.5 28t87 17t77.5 -11t46 -55q0 -23 -5 -47t-9 -46q-44 -211 -27 -479.5t72 -487.5q15 -64 -12.5 -89t-79.5 -35q-36 -7 -63 -9t-62 9q-31 9 -52 39q-29 40 -51 104
q-31 89 -66 304q-75 -24 -213 -38.5t-213 -18.5zM656 1593q2 -2 14 -8q20 -13 36.5 -29.5t33.5 -32.5q6 -6 18 -19q12 -12 17 -18q16 -18 17 -19q3 -5 7 -10t8 -9l15 -21q7 -10 15 -22q7 -14 12 -23q6 -13 7 -22q4 -18 -8 -28q-26 -21 -58 -30q-6 -1 -14 -1q-6 0 -10 3
q-5 1 -7 5q-2 2 -7 9q-28 47 -84 105q-16 14 -33 32t-34 35q-11 -13 -29 -39q-21 -30 -46.5 -65.5t-35.5 -66.5q-1 -3 -2 -5.5t-2 -4.5q-6 -11 -4 -9q-8 -9 -25 -7q-14 1 -36 9q-19 7 -33 19q-16 12 -17 23q-2 15 5 36q8 20 20 38.5t26 37.5q4 4 7.5 9.5t6.5 10.5
q8 11 16 20q3 4 7 9l8 10q5 7 17 20t18 19q13 14 20 20q12 11 22 18q12 9 24 16q20 10 36 5q30 -5 52 -20z" />
    <glyph glyph-name="hcircumflex" unicode="&#x125;" horiz-adv-x="847" 
d="M153 9q-16 5 -25 11q-31 21 -47 61.5t-25 79.5q-17 74 -27 189t-11.5 237.5t4.5 235.5t21 183q13 65 31 101q15 30 38 41q25 13 61 15.5t64 -0.5q41 -5 64.5 -26t15.5 -81q-17 -135 -20 -287q49 9 97 5q105 -7 189 -66q90 -63 138.5 -163.5t70.5 -201.5q15 -70 27 -195
t-18 -192q-11 -23 -34 -26q-40 -6 -84 11.5t-67 39.5q-10 8 -14 20q-7 16 -5 35t4 36q10 62 0.5 155.5t-17.5 151.5q-17 59 -45 96q-60 90 -127.5 92t-84.5 -79q-14 -65 -5 -166q0 -3 1 -7q12 -84 32 -160q5 -17 16 -52q13 -41 3 -54q-3 -3 -5 -6q-8 -19 -27 -30
q-32 -17 -73 -19q-31 -1 -62 3q-13 -1 -26 0q-15 1 -28 12zM261 1470q2 -2 14 -8q20 -13 36.5 -29.5t33.5 -32.5q6 -6 18 -19q12 -12 17 -18q16 -18 17 -19q3 -5 7 -10t8 -9l15 -21q7 -10 15 -22q7 -14 12 -23q6 -13 7 -22q4 -18 -8 -28q-26 -21 -58 -30q-6 -1 -14 -1
q-6 0 -10 3q-5 1 -7 5q-2 2 -7 9q-28 47 -84 105q-16 14 -33 32t-34 35q-11 -13 -29 -39q-21 -30 -46.5 -65.5t-35.5 -66.5q-1 -3 -2 -5.5t-2 -4.5q-6 -11 -4 -9q-8 -9 -25 -7q-14 1 -36 9q-19 7 -33 19q-16 12 -17 23q-2 15 5 36q8 20 20 38.5t26 37.5q4 4 7.5 9.5
t6.5 10.5q8 11 16 20q3 4 7 9l8 10q5 7 17 20t18 19q13 14 20 20q12 11 22 18q12 9 24 16q20 10 36 5q30 -5 52 -20z" />
    <glyph glyph-name="Hbar" unicode="&#x126;" horiz-adv-x="1224" 
d="M394 462q42 -176 82 -268q8 -21 18 -43.5t14 -44.5q5 -41 -34 -62.5t-92.5 -29.5t-88 -3t-57.5 16q-42 17 -67 59t-40 82q-31 77 -55 198t-39 251.5t-18.5 252t7.5 198.5q9 66 30 112q14 31 43 48q32 17 52.5 22.5t57.5 5.5q54 -1 85.5 -19.5t28.5 -84.5
q-10 -220 32 -460q131 17 255.5 33t195.5 23q-5 107 -2.5 204.5t14.5 165.5q7 42 23 87.5t54 71.5q20 14 71.5 28t87 17t77.5 -11t46 -55q0 -23 -5 -47t-9 -46q-44 -211 -27 -479.5t72 -487.5q15 -64 -12.5 -89t-79.5 -35q-36 -7 -63 -9t-62 9q-31 9 -52 39q-29 40 -51 104
q-31 89 -66 304q-75 -24 -213 -38.5t-213 -18.5zM1186 844q-131 17 -266.5 24t-268.5 8q-148 0 -321.5 2t-309.5 -15q-16 -2 -46 -5q-14 -1 -39 -1q-42 0 -65 31q-24 28 -29 69q-3 41 15 76q18 38 60 53q50 20 143 30q87 9 177 9h180q26 0 51 -0.5t51 -0.5q23 0 48 -1t51 -1
q24 -2 49.5 -2.5t49.5 -1.5q29 -2 102 -7q71 -5 102 -8q72 -6 106 -11q61 -7 105 -15q52 -10 98 -22q71 -21 86 -53q29 -73 -2 -127q-8 -14 -19 -22q-12 -8 -26 -10q-12 -2 -36 -2q-13 0 -46 3z" />
    <glyph glyph-name="hbar" unicode="&#x127;" horiz-adv-x="847" 
d="M153 9q-16 5 -25 11q-31 21 -47 61.5t-25 79.5q-17 74 -27 189t-11.5 237.5t4.5 235.5t21 183q13 65 31 101q15 30 38 41q25 13 61 15.5t64 -0.5q41 -5 64.5 -26t15.5 -81q-17 -135 -20 -287q49 9 97 5q105 -7 189 -66q90 -63 138.5 -163.5t70.5 -201.5q15 -70 27 -195
t-18 -192q-11 -23 -34 -26q-40 -6 -84 11.5t-67 39.5q-10 8 -14 20q-7 16 -5 35t4 36q10 62 0.5 155.5t-17.5 151.5q-17 59 -45 96q-60 90 -127.5 92t-84.5 -79q-14 -65 -5 -166q0 -3 1 -7q12 -84 32 -160q5 -17 16 -52q13 -41 3 -54q-3 -3 -5 -6q-8 -19 -27 -30
q-32 -17 -73 -19q-31 -1 -62 3q-13 -1 -26 0q-15 1 -28 12zM647 776q-81 17 -164.5 24t-165.5 8q-91 0 -198 2t-191 -15q-10 -2 -28 -5q-9 -1 -24 -1q-26 0 -40 31q-15 28 -18 69q-2 41 9 76q11 38 37 53q31 20 88 30q54 9 109.5 9h110.5q16 0 31.5 -0.5t31.5 -0.5
q14 0 29.5 -1t31.5 -1q15 -2 30.5 -2.5t30.5 -1.5l63 -7q44 -5 63 -8q44 -6 65 -11q38 -7 65 -15q32 -10 60 -22q44 -21 53 -53q18 -73 -1 -127q-5 -14 -12 -22t-16 -10q-7 -2 -22 -2q-8 0 -28 3z" />
    <glyph glyph-name="dotlessi" unicode="&#x131;" horiz-adv-x="337" 
d="M32.5 549q15.5 154 49 211.5t66.5 54.5q33 -2 63 -7q27 -6 43 -11q4 -1 10 -5q3 -2 8 -8l9 -9q2 -2 7 -10q3 -4 5 -12l4 -20q0 -2 3 -19q1 -12 -12.5 -189.5t16.5 -412.5q-1 -25 -6 -49t-10 -33q-9 -14 -37 -21q-13 -3 -28.5 -3.5t-31.5 0.5q-30 1 -64 7q-25 4 -44 11
q-5 3 -8 5q-3 1 -9 8q-3 2 -8 9q0 -1 -7 10q-3 2 -5 12q-2 7 -5 20q-1 10 -12.5 158.5t4 302.5z" />
    <glyph glyph-name="IJ" unicode="&#x132;" horiz-adv-x="1889" 
d="M5 184q1 63 65 63q8 0 39.5 -1.5t42.5 -1.5q-5 72 -8 222q0 72 5 179q6 94 15 179q20 170 40 228q-44 4 -53 5q-10 1 -69 6q-7 0 -20 2q-3 0 -16 3q-31 6 -43 40q-11 28 7 73t32 63q21 24 90 34q65 8 147 5q81 -3 153 -12q66 -9 107 -17q7 -1 22 -8q8 -4 21 -12l20 -15
q5 -4 19 -16q6 -6 30 -98q-2 -54 -40 -59t-76 -4q-20 0 -70 2q-17 -157 -23 -232q-7 -73 -11 -173q-4 -87 0 -171q5 -154 13 -227q46 -7 62 -9q11 -1 22.5 -2t20.5 -1q15 -2 36 -4q8 -1 14 -2.5t11 -1.5q30 -7 44 -41l-10 -88q-12 -38 -24 -52q-20 -24 -90 -34
q-32 -5 -70 -5.5t-77 0.5q-72 1 -154 12q-62 7 -107 16q-15 5 -21 9q-6 2 -22 12q-7 5 -20 15q1 -1 -18 15q-6 4 -21.5 48t-14.5 56zM1296 1052q-57 -9 -64 57q-4 36 12 72q6 16 23 27q21 12 60 22q84 20 199.5 25t204.5 -19q22 -6 69 -18t60 -33q13 -25 14.5 -91.5
t-45.5 -64.5q-5 0 -32.5 1t-32.5 3q7 -55 14 -153q4 -107 -1 -248q-7 -136 -22 -250q-18 -126 -42 -198q-7 -22 -15 -42q-11 -28 -19 -41q-29 -49 -73 -68.5t-99 -26.5q-48 -7 -123 -4q-63 3 -126 16q-60 11 -114 30q-104 35 -196 96.5t-156 150.5q-35 47 -58.5 96.5
t-42.5 100.5q-29 81 7 104.5t94 17.5q40 -5 59 -4t58 -11q25 -9 47 -26q10 -10 40 -42q34 -39 70.5 -127.5t84.5 -112.5q37 -20 94.5 -25.5t161.5 66.5q38 40 56 127t23 191t-1.5 219.5t-13.5 195.5q-41 -4 -175 -13z" />
    <glyph glyph-name="ij" unicode="&#x133;" horiz-adv-x="999" 
d="M32.5 549q15.5 154 49 211.5t66.5 54.5q33 -2 63 -7q27 -6 43 -11q4 -1 10 -5q3 -2 8 -8l9 -9q2 -2 7 -10q3 -4 5 -12l4 -20q0 -2 3 -19q1 -12 -12.5 -189.5t16.5 -412.5q-1 -25 -6 -49t-10 -33q-9 -14 -37 -21q-13 -3 -28.5 -3.5t-31.5 0.5q-30 1 -64 7q-25 4 -44 11
q-5 3 -8 5q-3 1 -9 8q-3 2 -8 9q0 -1 -7 10q-3 2 -5 12q-2 7 -5 20q-1 10 -12.5 158.5t4 302.5zM267.5 1116q37.5 -36 37.5 -88q0 -51 -37.5 -87.5t-91.5 -36.5q-52 0 -89.5 36.5t-37.5 87.5q0 52 37.5 88t89.5 36q54 0 91.5 -36zM976 1041q0 -50 -37 -85t-90 -35t-90.5 35
t-37.5 85t37.5 84.5t90.5 34.5t90 -34.5t37 -84.5zM718 585q2 215 9 225q12 16 51.5 27t74.5 0.5t58 -15.5q4 0 11 -4l12 -9l10 -9q4 -2 10 -9q4 -5 7 -13q2 -10 4 -19q2 -3 5 -20q1 -12 -3.5 -53.5t-4 -353.5t-73.5 -425q-42 -52 -84 -85.5t-102 -54.5
q-75 -29 -180.5 -38.5t-135.5 46.5t-13 109t175 84t162.5 216.5t6.5 400.5z" />
    <glyph glyph-name="kgreenlandic" unicode="&#x138;" horiz-adv-x="805" 
d="M226 558q96 136 142 188.5t102 87.5q23 15 51.5 28t55.5 9q30 -5 85.5 -50.5t16.5 -83.5q-10 -10 -24 -18t-26 -16q-73 -44 -124.5 -96t-101.5 -108q35 -24 94.5 -68t121 -90.5t112.5 -87.5t69 -59q42 -44 -21 -100t-95 -61q-31 -6 -76 26.5t-90.5 70.5t-91 82t-100.5 89
q-50 37 -73 43q35 -146 72 -228q6 -14 13.5 -29t9.5 -30q3 -28 -24.5 -42.5t-66 -19.5t-61.5 -2.5t-40 9.5q-30 11 -48 39.5t-29 54.5q-22 52 -39.5 133.5t-28 169t-13 199t5.5 163.5q8 46 22 74q11 23 31 32q23 12 41.5 15t44.5 3q38 -1 61 -13.5t22 -56.5q-5 -59 0 -257z
" />
    <glyph glyph-name="Lacute" unicode="&#x139;" horiz-adv-x="1003" 
d="M185 80q-34 6 -52 14q-29 12 -47 43q-24 39 -39 105q-18 73 -26 191.5t-6.5 246.5t14 248.5t35.5 198.5q10 40 30.5 82.5t59.5 64.5q21 11 55 18.5t86 5t92 -20t39 -57.5q-1 -22 -8.5 -45t-13.5 -43q-52 -168 -66.5 -381t1.5 -468q121 -15 250 -9.5t257 39.5q18 5 38 11
t40 6q71 0 63.5 -88t-29.5 -125q-20 -33 -58 -49t-73 -25q-137 -32 -313.5 -19.5t-303.5 49.5q-7 2 -13 3.5t-12 3.5zM709 1362q-160 -56 -293 -80q-14 -2 -22 14q-21 56 -10 103q5 33 18 41q58 37 115.5 75.5t117.5 68.5q30 15 44 -7q51 -91 64 -170q5 -30 -34 -45z" />
    <glyph glyph-name="lacute" unicode="&#x13a;" horiz-adv-x="322" 
d="M262 1048q-21 -206 -15 -452.5t46 -435.5q3 -20 8 -41.5t7 -42.5q0 -37 -26 -53.5t-60 -19t-67 5.5t-47 20q-26 20 -39 60t-20 78q-14 73 -21.5 186.5t-9 234.5t3.5 232t17 179q10 64 25 100q12 30 30 41q22 12 50.5 14.5t51.5 -1.5q33 -4 52.5 -24.5t13.5 -80.5z
M310 1470q-160 -56 -293 -80q-14 -2 -22 14q-21 56 -10 103q5 33 18 41q58 37 115.5 75.5t117.5 68.5q30 15 44 -7q51 -91 64 -170q5 -30 -34 -45z" />
    <glyph glyph-name="Lslash" unicode="&#x141;" horiz-adv-x="1003" 
d="M185 80q-34 6 -52 14q-29 12 -47 43q-24 39 -39 105q-18 73 -26 191.5t-6.5 246.5t14 248.5t35.5 198.5q10 40 30.5 82.5t59.5 64.5q21 11 55 18.5t86 5t92 -20t39 -57.5q-1 -22 -8.5 -45t-13.5 -43q-52 -168 -66.5 -381t1.5 -468q121 -15 250 -9.5t257 39.5q18 5 38 11
t40 6q71 0 63.5 -88t-29.5 -125q-20 -33 -58 -49t-73 -25q-137 -32 -313.5 -19.5t-303.5 49.5q-7 2 -13 3.5t-12 3.5zM507 720q-66 -23 -129.5 -54t-123.5 -66q-65 -39 -143.5 -84t-132.5 -94q-6 -6 -18 -16q-6 -4 -17 -11q-19 -11 -42 5q-23 14 -43 43q-19 28 -27 59
q-8 32 4 54q14 28 51 60q35 30 75.5 54t80.5 48q11 7 22.5 13t23.5 13q10 6 21.5 12t23.5 13q11 5 22.5 11.5t23.5 12.5q14 6 48 22q34 15 49 21q35 15 52 21q31 11 54 17q27 6 53 10q41 4 61 -16q45 -45 54 -92q3 -12 1 -21q-1 -9 -7 -14q-4 -5 -15 -11q-6 -4 -22 -10z" />
    <glyph glyph-name="lslash" unicode="&#x142;" horiz-adv-x="902" 
d="M551 1048q-21 -206 -15 -452.5t46 -435.5q3 -20 8 -41.5t7 -42.5q0 -37 -26 -53.5t-60 -19t-67 5.5t-47 20q-26 20 -39 60t-20 78q-14 73 -21.5 186.5t-9 234.5t3.5 232t17 179q10 64 25 100q12 30 30 41q22 12 50.5 14.5t51.5 -1.5q33 -4 52.5 -24.5t13.5 -80.5z
M846 615q-80 -20 -158.5 -50t-152.5 -64q-82 -40 -179 -85t-165 -96q-9 -7 -23 -17q-8 -5 -22 -11q-23 -12 -49 10q-26 19 -46 54q-20 36 -25 73q-7 39 10 64q19 31 66 65q45 31 95 55.5t99 48.5q15 7 29 13t28 13q13 6 27.5 12t28.5 13q15 5 29 11l28 12q17 6 60 21
q41 15 60 20q42 14 63 19q37 10 65 14q33 5 64 7q49 0 71 -25q48 -58 54 -115q1 -15 -1 -25q-3 -10 -10 -16q-6 -5 -19 -11q-8 -4 -27 -10z" />
    <glyph glyph-name="Nacute" unicode="&#x143;" horiz-adv-x="1194" 
d="M527 1075q113 -142 309 -546q12 327 29 397t36 118q24 59 52 95q22 27 50 35q34 8 51 7t50 -9q49 -12 74 -36.5t8 -83.5q-60 -206 -86 -457.5t6 -452.5q3 -22 7 -44.5t3 -42.5q-4 -39 -44.5 -50.5t-91 -7t-98.5 19.5t-67 30q-32 23 -46 63.5t-19 78.5v0v0
q-78 157 -158.5 307t-253.5 377q-29 -165 -35.5 -336t15.5 -313q3 -22 7.5 -44.5t2.5 -43.5q-9 -79 -106 -62.5t-135 46.5q-35 25 -48.5 69t-18.5 83q-11 77 -6.5 193.5t19.5 239.5t38.5 235.5t50.5 180.5q21 59 51 96q22 27 51 34q33 9 85.5 -3t123.5 -79.5t94 -93.5z
M810 1362q-160 -56 -293 -80q-14 -2 -22 14q-21 56 -10 103q5 33 18 41q58 37 115.5 75.5t117.5 68.5q30 15 44 -7q51 -91 64 -170q5 -30 -34 -45z" />
    <glyph glyph-name="nacute" unicode="&#x144;" horiz-adv-x="807" 
d="M122 14q-15 5 -24 11q-29 21 -42 61.5t-18 79.5q-11 74 -12 189t7.5 237.5t48.5 171.5q17 30 41 41q26 13 62 15.5t64 -0.5q41 -5 62.5 -26t11.5 -77q83 63 131 59q75 -4 155 -63q84 -63 124.5 -163.5t54.5 -201.5q10 -70 9 -164t-37 -161q-13 -23 -36 -26
q-40 -6 -83 11.5t-64 39.5q-9 8 -12 20q-6 16 -2.5 35t6.5 36q15 62 16 124.5t-2 120.5q-12 59 -37 96q-53 90 -120.5 92t-90.5 -79q-19 -65 -18 -166v-7q6 -84 19 -160q3 -17 12 -52q10 -41 -1 -54l-6 -6q-9 -19 -30 -30q-33 -17 -74 -19q-31 -1 -61 3q-14 -1 -27 0
q-15 1 -27 12zM619 952q-160 -56 -293 -80q-14 -2 -22 14q-21 56 -10 103q5 33 18 41q58 37 115.5 75.5t117.5 68.5q30 15 44 -7q51 -91 64 -170q5 -30 -34 -45z" />
    <glyph glyph-name="Ncaron" unicode="&#x147;" horiz-adv-x="1194" 
d="M527 1075q113 -142 309 -546q12 327 29 397t36 118q24 59 52 95q22 27 50 35q34 8 51 7t50 -9q49 -12 74 -36.5t8 -83.5q-60 -206 -86 -457.5t6 -452.5q3 -22 7 -44.5t3 -42.5q-4 -39 -44.5 -50.5t-91 -7t-98.5 19.5t-67 30q-32 23 -46 63.5t-19 78.5v0v0
q-78 157 -158.5 307t-253.5 377q-29 -165 -35.5 -336t15.5 -313q3 -22 7.5 -44.5t2.5 -43.5q-9 -79 -106 -62.5t-135 46.5q-35 25 -48.5 69t-18.5 83q-11 77 -6.5 193.5t19.5 239.5t38.5 235.5t50.5 180.5q21 59 51 96q22 27 51 34q33 9 85.5 -3t123.5 -79.5t94 -93.5z
M547 1281l-15 10q-21 15 -38.5 33t-34.5 35q-7 8 -19 22q-12 13 -18 20q-17 21 -17 22q-4 5 -8.5 10.5t-8.5 10.5q-5 7 -15 23q-8 10 -15 24q-8 14 -12 24q-6 15 -8 25q-3 19 10 30q30 21 65 29h15q8 0 11 -3q5 -1 7 -6q2 -2 7 -10q29 -51 88 -115q17 -17 34.5 -36.5
t35.5 -39.5q12 14 34 41q23 31 52.5 68t42.5 70q1 4 2 6.5t2 5.5q6 10 5 8q9 9 27 7q15 -1 39 -11q21 -9 35 -22q17 -14 18 -26q1 -17 -8 -39q-9 -20 -23 -39.5t-29 -39.5q-4 -4 -8.5 -9.5t-8.5 -11.5q-10 -12 -18 -20q-3 -5 -8 -10t-9 -11q-6 -6 -20 -19q-13 -14 -20 -21
q-15 -13 -22 -20q-13 -11 -25 -18q-13 -9 -27 -16q-23 -10 -40 -6q-32 8 -55 25z" />
    <glyph glyph-name="ncaron" unicode="&#x148;" horiz-adv-x="807" 
d="M122 14q-15 5 -24 11q-29 21 -42 61.5t-18 79.5q-11 74 -12 189t7.5 237.5t48.5 171.5q17 30 41 41q26 13 62 15.5t64 -0.5q41 -5 62.5 -26t11.5 -77q83 63 131 59q75 -4 155 -63q84 -63 124.5 -163.5t54.5 -201.5q10 -70 9 -164t-37 -161q-13 -23 -36 -26
q-40 -6 -83 11.5t-64 39.5q-9 8 -12 20q-6 16 -2.5 35t6.5 36q15 62 16 124.5t-2 120.5q-12 59 -37 96q-53 90 -120.5 92t-90.5 -79q-19 -65 -18 -166v-7q6 -84 19 -160q3 -17 12 -52q10 -41 -1 -54l-6 -6q-9 -19 -30 -30q-33 -17 -74 -19q-31 -1 -61 3q-14 -1 -27 0
q-15 1 -27 12zM356 871l-15 10q-21 15 -38.5 33t-34.5 35q-7 8 -19 22q-12 13 -18 20q-17 21 -17 22q-4 5 -8.5 10.5t-8.5 10.5q-5 7 -15 23q-8 10 -15 24q-8 14 -12 24q-6 15 -8 25q-3 19 10 30q30 21 65 29h15q8 0 11 -3q5 -1 7 -6q2 -2 7 -10q29 -51 88 -115
q17 -17 34.5 -36.5t35.5 -39.5q12 14 34 41q23 31 52.5 68t42.5 70q1 4 2 6.5t2 5.5q6 10 5 8q9 9 27 7q15 -1 39 -11q21 -9 35 -22q17 -14 18 -26q1 -17 -8 -39q-9 -20 -23 -39.5t-29 -39.5q-4 -4 -8.5 -9.5t-8.5 -11.5q-10 -12 -18 -20q-3 -5 -8 -10t-9 -11q-6 -6 -20 -19
q-13 -14 -20 -21q-15 -13 -22 -20q-13 -11 -25 -18q-13 -9 -27 -16q-23 -10 -40 -6q-32 8 -55 25z" />
    <glyph glyph-name="OE" unicode="&#x152;" horiz-adv-x="2048" 
d="M64 730q32 64 71.5 123.5t92.5 110.5q22 23 45 43q141 126 321 174q155 42 297 1q69 -20 136 -73t102 -117q22 -42 32 -89.5t15 -93.5q13 -162 -29 -293q-27 -79 -77 -153.5t-104 -133.5q-81 -89 -185 -149.5t-224 -72.5q-121 -10 -234 29q-86 30 -160.5 83.5
t-114.5 136.5q-38 81 -43 189q-6 156 59 285zM325 592q-15 -100 80 -224.5t219 -85.5q80 26 105.5 88.5t14.5 137.5q-13 84 -74 147t-132 83.5t-134 -11.5t-79 -135zM976 1176q19 8 40 13.5t42 12.5q134 45 323.5 71.5t340.5 5.5q38 -6 80 -18.5t67 -42.5
q27 -34 44.5 -127.5t-59.5 -98.5q-21 -2 -43 2t-42 7q-196 21 -317 16.5t-250 -27.5q-4 -167 3 -261q109 13 209 23t137 9q89 -2 85.5 -75t-37.5 -102q-27 -37 -139.5 -58t-224.5 -30q24 -159 47 -237q19 1 42.5 3t53.5 5q117 9 256 29t234 50q10 2 20.5 6t20.5 8q24 6 42 8
q39 2 56 -30.5t21 -76.5q5 -40 -24 -91q-17 -29 -59 -52q-28 -15 -77 -29q-74 -22 -187 -37t-233 -21q-73 -5 -190 -11.5t-176 17.5q-43 17 -67.5 57t-39.5 78q-30 73 -51.5 188.5t-33 239t-11.5 238.5t15 188q13 65 35 105q17 31 47 45z" />
    <glyph glyph-name="oe" unicode="&#x153;" horiz-adv-x="1478" 
d="M43 477q50 96 109 153q23 22 30 28q94 83 214 114q101 27 197 1q45 -14 90 -48.5t68 -76.5q25 -48 31 -120q9 -106 -19 -191q-18 -52 -51.5 -100.5t-69.5 -87.5q-54 -57 -122.5 -97.5t-148.5 -47.5q-83 -6 -156 19q-58 20 -106.5 54.5t-74.5 89.5q-27 53 -30 124
q-4 101 39 186zM227 404q-25 -76 34.5 -157t162.5 -38q64 27 93 76.5t30 103.5q2 123 -133 148t-187 -133zM850 345q3 -10 7 -22q26 -73 115.5 -111t170.5 -29q64 5 128.5 72t166.5 -8q45 -29 -8 -92t-84 -85q-21 -15 -43 -26q-58 -30 -117 -35.5t-116 0.5q-78 7 -150 35
q-56 22 -107.5 58t-90.5 89q-73 97 -98 215q-39 182 90 304q65 62 146.5 92.5t194.5 45.5t229.5 -45.5t144.5 -174.5t10 -159t-61.5 -57t-527.5 -67zM1120 637.5q-110 -6.5 -171 -28.5t-90 -96q-3 -5 -5 -9l418 48q-42 92 -152 85.5z" />
    <glyph glyph-name="Racute" unicode="&#x154;" horiz-adv-x="1241" 
d="M37 956q5 64 16.5 85.5t78.5 60.5q179 103 414.5 116.5t404.5 -134.5q78 -69 123.5 -177.5t-4.5 -207.5q-20 -42 -55.5 -68.5t-62.5 -61.5q-23 -32 -21 -68q1 -26 10 -49q7 -22 20 -42q12 -21 28 -37q18 -19 36 -33q15 -12 41 -30q14 -9 44 -27q10 -7 21.5 -13t22.5 -13
q29 -16 43 -24q43 -27 14 -68q-23 -34 -65 -72t-78 -60q-47 -30 -105 -6q-57 39 -152.5 147.5t-151.5 169.5q-33 32 -84 42.5t-91 -26.5q-43 -40 -34.5 -144.5t18.5 -156.5q5 -32 -7.5 -41.5t-39.5 -12.5q-31 -4 -61.5 -2t-55.5 -1q-22 2 -44.5 6.5t-38.5 22.5
q-33 35 -72.5 169.5t-50.5 185.5q-2 9 -4 18.5t-4 19.5q-26 121 -45 261.5t-8 270.5zM681 961q-118 34 -245 -11q-61 -23 -84 -82q-13 -35 -3.5 -108t32.5 -100q49 -55 138 -48q43 4 88.5 13.5t85.5 28.5q67 31 96.5 105t-19.5 141q-37 46 -89 61zM835 1362
q-160 -56 -293 -80q-14 -2 -22 14q-21 56 -10 103q5 33 18 41q58 37 115.5 75.5t117.5 68.5q30 15 44 -7q51 -91 64 -170q5 -30 -34 -45z" />
    <glyph glyph-name="racute" unicode="&#x155;" horiz-adv-x="663" 
d="M141 14q-15 5 -24 11q-29 21 -42 61.5t-18 79.5q-11 74 -12 189t7.5 237.5t48.5 171.5q17 30 41 41q26 13 62 15.5t64 -0.5q41 -5 62.5 -26t11.5 -77q83 63 214 38t113 -126t-155 -78t-160 -58q-19 -65 -18 -166v-7q6 -84 19 -160q3 -17 12 -52q10 -41 -1 -54l-6 -6
q-9 -19 -30 -30q-33 -17 -74 -19q-31 -1 -61 3q-14 -1 -27 0q-15 1 -27 12zM566 952q-160 -56 -293 -80q-14 -2 -22 14q-21 56 -10 103q5 33 18 41q58 37 115.5 75.5t117.5 68.5q30 15 44 -7q51 -91 64 -170q5 -30 -34 -45z" />
    <glyph glyph-name="Rcaron" unicode="&#x158;" horiz-adv-x="1241" 
d="M37 956q5 64 16.5 85.5t78.5 60.5q179 103 414.5 116.5t404.5 -134.5q78 -69 123.5 -177.5t-4.5 -207.5q-20 -42 -55.5 -68.5t-62.5 -61.5q-23 -32 -21 -68q1 -26 10 -49q7 -22 20 -42q12 -21 28 -37q18 -19 36 -33q15 -12 41 -30q14 -9 44 -27q10 -7 21.5 -13t22.5 -13
q29 -16 43 -24q43 -27 14 -68q-23 -34 -65 -72t-78 -60q-47 -30 -105 -6q-57 39 -152.5 147.5t-151.5 169.5q-33 32 -84 42.5t-91 -26.5q-43 -40 -34.5 -144.5t18.5 -156.5q5 -32 -7.5 -41.5t-39.5 -12.5q-31 -4 -61.5 -2t-55.5 -1q-22 2 -44.5 6.5t-38.5 22.5
q-33 35 -72.5 169.5t-50.5 185.5q-2 9 -4 18.5t-4 19.5q-26 121 -45 261.5t-8 270.5zM681 961q-118 34 -245 -11q-61 -23 -84 -82q-13 -35 -3.5 -108t32.5 -100q49 -55 138 -48q43 4 88.5 13.5t85.5 28.5q67 31 96.5 105t-19.5 141q-37 46 -89 61zM572 1281l-15 10
q-21 15 -38.5 33t-34.5 35q-7 8 -19 22q-12 13 -18 20q-17 21 -17 22q-4 5 -8.5 10.5t-8.5 10.5q-5 7 -15 23q-8 10 -15 24q-8 14 -12 24q-6 15 -8 25q-3 19 10 30q30 21 65 29h15q8 0 11 -3q5 -1 7 -6q2 -2 7 -10q29 -51 88 -115q17 -17 34.5 -36.5t35.5 -39.5q12 14 34 41
q23 31 52.5 68t42.5 70q1 4 2 6.5t2 5.5q6 10 5 8q9 9 27 7q15 -1 39 -11q21 -9 35 -22q17 -14 18 -26q1 -17 -8 -39q-9 -20 -23 -39.5t-29 -39.5q-4 -4 -8.5 -9.5t-8.5 -11.5q-10 -12 -18 -20q-3 -5 -8 -10t-9 -11q-6 -6 -20 -19q-13 -14 -20 -21q-15 -13 -22 -20
q-13 -11 -25 -18q-13 -9 -27 -16q-23 -10 -40 -6q-32 8 -55 25z" />
    <glyph glyph-name="rcaron" unicode="&#x159;" horiz-adv-x="663" 
d="M141 14q-15 5 -24 11q-29 21 -42 61.5t-18 79.5q-11 74 -12 189t7.5 237.5t48.5 171.5q17 30 41 41q26 13 62 15.5t64 -0.5q41 -5 62.5 -26t11.5 -77q83 63 214 38t113 -126t-155 -78t-160 -58q-19 -65 -18 -166v-7q6 -84 19 -160q3 -17 12 -52q10 -41 -1 -54l-6 -6
q-9 -19 -30 -30q-33 -17 -74 -19q-31 -1 -61 3q-14 -1 -27 0q-15 1 -27 12zM302 871l-15 10q-21 15 -38.5 33t-34.5 35q-7 8 -19 22q-12 13 -18 20q-17 21 -17 22q-4 5 -8.5 10.5t-8.5 10.5q-5 7 -15 23q-8 10 -15 24q-8 14 -12 24q-6 15 -8 25q-3 19 10 30q30 21 65 29h15
q8 0 11 -3q5 -1 7 -6q2 -2 7 -10q29 -51 88 -115q17 -17 34.5 -36.5t35.5 -39.5q12 14 34 41q23 31 52.5 68t42.5 70q1 4 2 6.5t2 5.5q6 10 5 8q9 9 27 7q15 -1 39 -11q21 -9 35 -22q17 -14 18 -26q1 -17 -8 -39q-9 -20 -23 -39.5t-29 -39.5q-4 -4 -8.5 -9.5t-8.5 -11.5
q-10 -12 -18 -20q-3 -5 -8 -10t-9 -11q-6 -6 -20 -19q-13 -14 -20 -21q-15 -13 -22 -20q-13 -11 -25 -18q-13 -9 -27 -16q-23 -10 -40 -6q-32 8 -55 25z" />
    <glyph glyph-name="Sacute" unicode="&#x15a;" horiz-adv-x="1022" 
d="M744 678l84 -58q4 -2 7 -4q101 -61 140.5 -145t0.5 -189q-40 -105 -144 -177q-68 -48 -165 -68.5t-201 -15.5l-1 -1v-1q-130 8 -124 18q-47 10 -80 20l-156 72q-46 29 -80 66q-1 2 -2.5 3t-1.5 4q-2 0 -3.5 2t-1.5 3q-18 21 -20 45v7q1 31 3.5 75t14.5 72
q13 32 38.5 20.5t42.5 -26.5q2 -3 4 -4t4 -3q43 -37 98 -64q123 -59 298 -56q6 3 18 10q39 22 18 61q-2 1 -3 3t-2 5q-11 13 -209 123q-189 130 -217 173q-67 100 -40 200.5t119 174.5q161 132 516 96q43 -13 77 -26q12 -5 37 -17q23 -13 55 -28q39 -17 32 -37q2 -3 5 -7
q21 -28 33 -76t-20 -76l-4 -4q-28 -21 -78 -9q-55 15 -107 25l-58 15q-112 14 -164 14q-105 -35 49 -135q13 -12 188 -80zM703 1362q-160 -56 -293 -80q-14 -2 -22 14q-21 56 -10 103q5 33 18 41q58 37 115.5 75.5t117.5 68.5q30 15 44 -7q51 -91 64 -170q5 -30 -34 -45z
" />
    <glyph glyph-name="sacute" unicode="&#x15b;" horiz-adv-x="752" 
d="M561 489l60 -41q3 -2 5 -3q72 -44 100.5 -104t0.5 -135q-29 -74 -103 -126q-49 -34 -118 -48.5t-143 -10.5v-2h-1q-92 6 -88 13q-33 7 -57 14l-111 52q-33 20 -57 46q-1 2 -2 2.5t-1 2.5q-2 1 -2.5 2t-1.5 2q-13 15 -14 32v5q1 22 2.5 53.5t10.5 51.5q9 23 27 14.5
t31 -19.5q1 -1 2.5 -2t3.5 -2q30 -27 69 -46q88 -42 213 -40q4 2 13 7q27 16 12 43q-1 2 -2 3.5t-1 2.5q-8 10 -149 88q-135 93 -155 123q-48 72 -28.5 143.5t84.5 124.5q115 94 368 68q31 -9 55 -18q9 -4 26 -12q17 -10 39 -21q29 -12 23 -26q2 -2 4 -5q15 -19 23.5 -53.5
t-13.5 -54.5q-3 -2 -4 -3q-19 -15 -55 -6q-39 11 -76 18l-42 10q-80 10 -117 10q-74 -25 36 -96q9 -8 133 -57zM592 952q-160 -56 -293 -80q-14 -2 -22 14q-21 56 -10 103q5 33 18 41q58 37 115.5 75.5t117.5 68.5q30 15 44 -7q51 -91 64 -170q5 -30 -34 -45z" />
    <glyph glyph-name="Scircumflex" unicode="&#x15c;" horiz-adv-x="1022" 
d="M744 678l84 -58q4 -2 7 -4q101 -61 140.5 -145t0.5 -189q-40 -105 -144 -177q-68 -48 -165 -68.5t-201 -15.5l-1 -1v-1q-130 8 -124 18q-47 10 -80 20l-156 72q-46 29 -80 66q-1 2 -2.5 3t-1.5 4q-2 0 -3.5 2t-1.5 3q-18 21 -20 45v7q1 31 3.5 75t14.5 72
q13 32 38.5 20.5t42.5 -26.5q2 -3 4 -4t4 -3q43 -37 98 -64q123 -59 298 -56q6 3 18 10q39 22 18 61q-2 1 -3 3t-2 5q-11 13 -209 123q-189 130 -217 173q-67 100 -40 200.5t119 174.5q161 132 516 96q43 -13 77 -26q12 -5 37 -17q23 -13 55 -28q39 -17 32 -37q2 -3 5 -7
q21 -28 33 -76t-20 -76l-4 -4q-28 -21 -78 -9q-55 15 -107 25l-58 15q-112 14 -164 14q-105 -35 49 -135q13 -12 188 -80zM538 1439q2 -2 14 -8q20 -13 36.5 -29.5t33.5 -32.5q6 -6 18 -19q12 -12 17 -18q16 -18 17 -19q3 -5 7 -10t8 -9l15 -21q7 -10 15 -22q7 -14 12 -23
q6 -13 7 -22q4 -18 -8 -28q-26 -21 -58 -30q-6 -1 -14 -1q-6 0 -10 3q-5 1 -7 5q-2 2 -7 9q-28 47 -84 105q-16 14 -33 32t-34 35q-11 -13 -29 -39q-21 -30 -46.5 -65.5t-35.5 -66.5q-1 -3 -2 -5.5t-2 -4.5q-6 -11 -4 -9q-8 -9 -25 -7q-14 1 -36 9q-19 7 -33 19
q-16 12 -17 23q-2 15 5 36q8 20 20 38.5t26 37.5q4 4 7.5 9.5t6.5 10.5q8 11 16 20q3 4 7 9l8 10q5 7 17 20t18 19q13 14 20 20q12 11 22 18q12 9 24 16q20 10 36 5q30 -5 52 -20z" />
    <glyph glyph-name="scircumflex" unicode="&#x15d;" horiz-adv-x="752" 
d="M561 489l60 -41q3 -2 5 -3q72 -44 100.5 -104t0.5 -135q-29 -74 -103 -126q-49 -34 -118 -48.5t-143 -10.5v-2h-1q-92 6 -88 13q-33 7 -57 14l-111 52q-33 20 -57 46q-1 2 -2 2.5t-1 2.5q-2 1 -2.5 2t-1.5 2q-13 15 -14 32v5q1 22 2.5 53.5t10.5 51.5q9 23 27 14.5
t31 -19.5q1 -1 2.5 -2t3.5 -2q30 -27 69 -46q88 -42 213 -40q4 2 13 7q27 16 12 43q-1 2 -2 3.5t-1 2.5q-8 10 -149 88q-135 93 -155 123q-48 72 -28.5 143.5t84.5 124.5q115 94 368 68q31 -9 55 -18q9 -4 26 -12q17 -10 39 -21q29 -12 23 -26q2 -2 4 -5q15 -19 23.5 -53.5
t-13.5 -54.5q-3 -2 -4 -3q-19 -15 -55 -6q-39 11 -76 18l-42 10q-80 10 -117 10q-74 -25 36 -96q9 -8 133 -57zM427 1183q2 -2 14 -8q20 -13 36.5 -29.5t33.5 -32.5q6 -6 18 -19q12 -12 17 -18q16 -18 17 -19q3 -5 7 -10t8 -9l15 -21q7 -10 15 -22q7 -14 12 -23q6 -13 7 -22
q4 -18 -8 -28q-26 -21 -58 -30q-6 -1 -14 -1q-6 0 -10 3q-5 1 -7 5q-2 2 -7 9q-28 47 -84 105q-16 14 -33 32t-34 35q-11 -13 -29 -39q-21 -30 -46.5 -65.5t-35.5 -66.5q-1 -3 -2 -5.5t-2 -4.5q-6 -11 -4 -9q-8 -9 -25 -7q-14 1 -36 9q-19 7 -33 19q-16 12 -17 23
q-2 15 5 36q8 20 20 38.5t26 37.5q4 4 7.5 9.5t6.5 10.5q8 11 16 20q3 4 7 9l8 10q5 7 17 20t18 19q13 14 20 20q12 11 22 18q12 9 24 16q20 10 36 5q30 -5 52 -20z" />
    <glyph glyph-name="Scedilla" unicode="&#x15e;" horiz-adv-x="1022" 
d="M744 678l84 -58q4 -2 7 -4q101 -61 140.5 -145t0.5 -189q-40 -105 -144 -177q-68 -48 -165 -68.5t-201 -15.5l-1 -1v-1q-130 8 -124 18q-47 10 -80 20l-156 72q-46 29 -80 66q-1 2 -2.5 3t-1.5 4q-2 0 -3.5 2t-1.5 3q-18 21 -20 45v7q1 31 3.5 75t14.5 72
q13 32 38.5 20.5t42.5 -26.5q2 -3 4 -4t4 -3q43 -37 98 -64q123 -59 298 -56q6 3 18 10q39 22 18 61q-2 1 -3 3t-2 5q-11 13 -209 123q-189 130 -217 173q-67 100 -40 200.5t119 174.5q161 132 516 96q43 -13 77 -26q12 -5 37 -17q23 -13 55 -28q39 -17 32 -37q2 -3 5 -7
q21 -28 33 -76t-20 -76l-4 -4q-28 -21 -78 -9q-55 15 -107 25l-58 15q-112 14 -164 14q-105 -35 49 -135q13 -12 188 -80zM648 -160q0 -87 -90 -160q-45 -37 -123.5 -66t-43.5 60q14 38 14 76l-1 19q-27 5 -44 32q-17 25 -17 62q0 53 43 92q45 37 106 37q65 0 107 -38
q49 -42 49 -114z" />
    <glyph glyph-name="scedilla" unicode="&#x15f;" horiz-adv-x="752" 
d="M561 489l60 -41q3 -2 5 -3q72 -44 100.5 -104t0.5 -135q-29 -74 -103 -126q-49 -34 -118 -48.5t-143 -10.5v-2h-1q-92 6 -88 13q-33 7 -57 14l-111 52q-33 20 -57 46q-1 2 -2 2.5t-1 2.5q-2 1 -2.5 2t-1.5 2q-13 15 -14 32v5q1 22 2.5 53.5t10.5 51.5q9 23 27 14.5
t31 -19.5q1 -1 2.5 -2t3.5 -2q30 -27 69 -46q88 -42 213 -40q4 2 13 7q27 16 12 43q-1 2 -2 3.5t-1 2.5q-8 10 -149 88q-135 93 -155 123q-48 72 -28.5 143.5t84.5 124.5q115 94 368 68q31 -9 55 -18q9 -4 26 -12q17 -10 39 -21q29 -12 23 -26q2 -2 4 -5q15 -19 23.5 -53.5
t-13.5 -54.5q-3 -2 -4 -3q-19 -15 -55 -6q-39 11 -76 18l-42 10q-80 10 -117 10q-74 -25 36 -96q9 -8 133 -57zM537 -160q0 -87 -90 -160q-45 -37 -123.5 -66t-43.5 60q14 38 14 76l-1 19q-27 5 -44 32q-17 25 -17 62q0 53 43 92q45 37 106 37q65 0 107 -38q49 -42 49 -114z
" />
    <glyph glyph-name="Scaron" unicode="&#x160;" horiz-adv-x="1022" 
d="M744 678l84 -58q4 -2 7 -4q101 -61 140.5 -145t0.5 -189q-40 -105 -144 -177q-68 -48 -165 -68.5t-201 -15.5l-1 -1v-1q-130 8 -124 18q-47 10 -80 20l-156 72q-46 29 -80 66q-1 2 -2.5 3t-1.5 4q-2 0 -3.5 2t-1.5 3q-18 21 -20 45v7q1 31 3.5 75t14.5 72
q13 32 38.5 20.5t42.5 -26.5q2 -3 4 -4t4 -3q43 -37 98 -64q123 -59 298 -56q6 3 18 10q39 22 18 61q-2 1 -3 3t-2 5q-11 13 -209 123q-189 130 -217 173q-67 100 -40 200.5t119 174.5q161 132 516 96q43 -13 77 -26q12 -5 37 -17q23 -13 55 -28q39 -17 32 -37q2 -3 5 -7
q21 -28 33 -76t-20 -76l-4 -4q-28 -21 -78 -9q-55 15 -107 25l-58 15q-112 14 -164 14q-105 -35 49 -135q13 -12 188 -80zM440 1281l-15 10q-21 15 -38.5 33t-34.5 35q-7 8 -19 22q-12 13 -18 20q-17 21 -17 22q-4 5 -8.5 10.5t-8.5 10.5q-5 7 -15 23q-8 10 -15 24
q-8 14 -12 24q-6 15 -8 25q-3 19 10 30q30 21 65 29h15q8 0 11 -3q5 -1 7 -6q2 -2 7 -10q29 -51 88 -115q17 -17 34.5 -36.5t35.5 -39.5q12 14 34 41q23 31 52.5 68t42.5 70q1 4 2 6.5t2 5.5q6 10 5 8q9 9 27 7q15 -1 39 -11q21 -9 35 -22q17 -14 18 -26q1 -17 -8 -39
q-9 -20 -23 -39.5t-29 -39.5q-4 -4 -8.5 -9.5t-8.5 -11.5q-10 -12 -18 -20q-3 -5 -8 -10t-9 -11q-6 -6 -20 -19q-13 -14 -20 -21q-15 -13 -22 -20q-13 -11 -25 -18q-13 -9 -27 -16q-23 -10 -40 -6q-32 8 -55 25z" />
    <glyph glyph-name="scaron" unicode="&#x161;" horiz-adv-x="752" 
d="M561 489l60 -41q3 -2 5 -3q72 -44 100.5 -104t0.5 -135q-29 -74 -103 -126q-49 -34 -118 -48.5t-143 -10.5v-2h-1q-92 6 -88 13q-33 7 -57 14l-111 52q-33 20 -57 46q-1 2 -2 2.5t-1 2.5q-2 1 -2.5 2t-1.5 2q-13 15 -14 32v5q1 22 2.5 53.5t10.5 51.5q9 23 27 14.5
t31 -19.5q1 -1 2.5 -2t3.5 -2q30 -27 69 -46q88 -42 213 -40q4 2 13 7q27 16 12 43q-1 2 -2 3.5t-1 2.5q-8 10 -149 88q-135 93 -155 123q-48 72 -28.5 143.5t84.5 124.5q115 94 368 68q31 -9 55 -18q9 -4 26 -12q17 -10 39 -21q29 -12 23 -26q2 -2 4 -5q15 -19 23.5 -53.5
t-13.5 -54.5q-3 -2 -4 -3q-19 -15 -55 -6q-39 11 -76 18l-42 10q-80 10 -117 10q-74 -25 36 -96q9 -8 133 -57zM328 871l-15 10q-21 15 -38.5 33t-34.5 35q-7 8 -19 22q-12 13 -18 20q-17 21 -17 22q-4 5 -8.5 10.5t-8.5 10.5q-5 7 -15 23q-8 10 -15 24q-8 14 -12 24
q-6 15 -8 25q-3 19 10 30q30 21 65 29h15q8 0 11 -3q5 -1 7 -6q2 -2 7 -10q29 -51 88 -115q17 -17 34.5 -36.5t35.5 -39.5q12 14 34 41q23 31 52.5 68t42.5 70q1 4 2 6.5t2 5.5q6 10 5 8q9 9 27 7q15 -1 39 -11q21 -9 35 -22q17 -14 18 -26q1 -17 -8 -39q-9 -20 -23 -39.5
t-29 -39.5q-4 -4 -8.5 -9.5t-8.5 -11.5q-10 -12 -18 -20q-3 -5 -8 -10t-9 -11q-6 -6 -20 -19q-13 -14 -20 -21q-15 -13 -22 -20q-13 -11 -25 -18q-13 -9 -27 -16q-23 -10 -40 -6q-32 8 -55 25z" />
    <glyph glyph-name="Tcommaaccent" unicode="&#x162;" 
d="M22 1081q18 20 67 13q67 -8 140 -8q153 0 303.5 29t299.5 59q50 10 98.5 27.5t98.5 24.5q57 7 85 -33q32 -47 43 -109.5t-11 -112.5q-15 -30 -51 -47.5t-65 -29.5q-38 -16 -95 -42.5t-83 -60.5q-27 -36 -15.5 -101t27.5 -192q9 -92 24.5 -193.5t12.5 -192.5
q-1 -49 -32 -71q-43 -31 -70.5 -37.5t-78.5 -6.5q-22 0 -47.5 6t-34.5 28q-17 39 -26 70q-31 100 -49 252.5t-43 254.5q-11 50 -33 107q-13 32 -82 41.5t-96 12.5q-53 4 -109.5 6t-103.5 24q-42 19 -52.5 49.5t-20.5 70.5q-18 142 -1 162zM986 -194q0 -87 -90 -160
q-45 -37 -123.5 -66t-43.5 60q14 38 14 76l-1 19q-27 5 -44 32q-17 25 -17 62q0 53 43 92q45 37 106 37q65 0 107 -38q49 -42 49 -114z" />
    <glyph glyph-name="tcommaaccent" unicode="&#x163;" horiz-adv-x="679" 
d="M176 808q5 90 16 149q12 61 28 95q13 29 31 39q24 12 68 16t69 1q35 -5 55.5 -24.5t14.5 -77.5q-10 -93 -15 -195q24 -1 48 -3q39 -4 78 -16q39 -11 63 -31q17 -15 26 -49q8 -30 6 -69q-3 -37 -12 -60q-11 -26 -28 -25q-8 0 -17 3q-7 1 -20 6q-60 20 -136 24h-10
q0 -10 1 -20q6 -237 48 -419q4 -19 9.5 -39.5t6.5 -40.5q0 -37 -27 -53t-63 -18t-85.5 4.5t-64.5 17.5q-27 19 -41 57.5t-21 75.5q-15 70 -23.5 179t-9.5 225q-1 19 -1 38h-5q-59 -1 -116 -11q-15 -3 -19 -3q-9 0 -17 3q-6 3 -12 11q-4 6 -8 20q-7 25 -6.5 56t6.5 57
q6 28 38 44q18 9 41 17q16 4 47 10q13 2 46 6h11zM478 -160q0 -87 -90 -160q-45 -37 -123.5 -66t-43.5 60q14 38 14 76l-1 19q-27 5 -44 32q-17 25 -17 62q0 53 43 92q45 37 106 37q65 0 107 -38q49 -42 49 -114z" />
    <glyph glyph-name="Tcaron" unicode="&#x164;" 
d="M22 1081q18 20 67 13q67 -8 140 -8q153 0 303.5 29t299.5 59q50 10 98.5 27.5t98.5 24.5q57 7 85 -33q32 -47 43 -109.5t-11 -112.5q-15 -30 -51 -47.5t-65 -29.5q-38 -16 -95 -42.5t-83 -60.5q-27 -36 -15.5 -101t27.5 -192q9 -92 24.5 -193.5t12.5 -192.5
q-1 -49 -32 -71q-43 -31 -70.5 -37.5t-78.5 -6.5q-22 0 -47.5 6t-34.5 28q-17 39 -26 70q-31 100 -49 252.5t-43 254.5q-11 50 -33 107q-13 32 -82 41.5t-96 12.5q-53 4 -109.5 6t-103.5 24q-42 19 -52.5 49.5t-20.5 70.5q-18 142 -1 162zM531 1281l-15 10q-21 15 -38.5 33
t-34.5 35q-7 8 -19 22q-12 13 -18 20q-17 21 -17 22q-4 5 -8.5 10.5t-8.5 10.5q-5 7 -15 23q-8 10 -15 24q-8 14 -12 24q-6 15 -8 25q-3 19 10 30q30 21 65 29h15q8 0 11 -3q5 -1 7 -6q2 -2 7 -10q29 -51 88 -115q17 -17 34.5 -36.5t35.5 -39.5q12 14 34 41q23 31 52.5 68
t42.5 70q1 4 2 6.5t2 5.5q6 10 5 8q9 9 27 7q15 -1 39 -11q21 -9 35 -22q17 -14 18 -26q1 -17 -8 -39q-9 -20 -23 -39.5t-29 -39.5q-4 -4 -8.5 -9.5t-8.5 -11.5q-10 -12 -18 -20q-3 -5 -8 -10t-9 -11q-6 -6 -20 -19q-13 -14 -20 -21q-15 -13 -22 -20q-13 -11 -25 -18
q-13 -9 -27 -16q-23 -10 -40 -6q-32 8 -55 25z" />
    <glyph glyph-name="Tbar" unicode="&#x166;" 
d="M22 1081q18 20 67 13q67 -8 140 -8q153 0 303.5 29t299.5 59q50 10 98.5 27.5t98.5 24.5q57 7 85 -33q32 -47 43 -109.5t-11 -112.5q-15 -30 -51 -47.5t-65 -29.5q-38 -16 -95 -42.5t-83 -60.5q-27 -36 -15.5 -101t27.5 -192q9 -92 24.5 -193.5t12.5 -192.5
q-1 -49 -32 -71q-43 -31 -70.5 -37.5t-78.5 -6.5q-22 0 -47.5 6t-34.5 28q-17 39 -26 70q-31 100 -49 252.5t-43 254.5q-11 50 -33 107q-13 32 -82 41.5t-96 12.5q-53 4 -109.5 6t-103.5 24q-42 19 -52.5 49.5t-20.5 70.5q-18 142 -1 162zM1067 272q-81 17 -164.5 24
t-165.5 8q-91 0 -198 2t-191 -15q-10 -2 -28 -5q-9 -1 -24 -1q-26 0 -40 31q-15 28 -18 69q-2 41 9 76q11 38 37 53q31 20 88 30q54 9 109.5 9h110.5q16 0 31.5 -0.5t31.5 -0.5q14 0 29.5 -1t31.5 -1q15 -2 30.5 -2.5t30.5 -1.5l63 -7q44 -5 63 -8q44 -6 65 -11
q38 -7 65 -15q32 -10 60 -22q44 -21 53 -53q18 -73 -1 -127q-5 -14 -12 -22t-16 -10q-7 -2 -22 -2q-8 0 -28 3z" />
    <glyph glyph-name="tbar" unicode="&#x167;" horiz-adv-x="679" 
d="M175 808q5 90 16 149q12 61 28 95q13 29 31 39q24 12 68 16t69 1q35 -5 55.5 -24.5t14.5 -77.5q-10 -93 -15 -195q24 -1 48 -3q39 -4 78 -16q39 -11 63 -31q17 -15 26 -49q8 -30 6 -69q-3 -37 -12 -60q-11 -26 -28 -25q-8 0 -17 3q-7 1 -20 6q-60 20 -136 24h-10
q0 -10 1 -20q6 -237 48 -419q4 -19 9.5 -39.5t6.5 -40.5q0 -37 -27 -53t-63 -18t-85.5 4.5t-64.5 17.5q-27 19 -41 57.5t-21 75.5q-15 70 -23.5 179t-9.5 225q-1 19 -1 38h-5q-59 -1 -116 -11q-15 -3 -19 -3q-9 0 -17 3q-6 3 -12 11q-4 6 -8 20q-7 25 -6.5 56t6.5 57
q6 28 38 44q18 9 41 17q16 4 47 10q13 2 46 6h11zM625 226q-64 14 -130.5 19.5t-131.5 6.5q-73 0 -158 1.5t-152 -11.5q-8 -2 -22 -4q-7 -1 -19 -1q-21 0 -32 24q-12 23 -14 55q-2 33 7 61q9 30 29 42q25 16 70 24q43 7 87.5 7h87.5q13 0 25.5 -0.5t24.5 -0.5t24 -0.5
t25 -0.5q12 -2 24.5 -2.5t24.5 -1.5q14 -1 50 -5q35 -4 50 -6q35 -5 52 -9q30 -6 51 -12q26 -8 48 -18q35 -16 42 -42q14 -58 -1 -101q-4 -11 -9 -17q-6 -7 -13 -8q-5 -2 -17 -2q-7 0 -23 2z" />
    <glyph glyph-name="Wcircumflex" unicode="&#x174;" horiz-adv-x="1490" 
d="M736 481q-82 -248 -129 -319q-18 -27 -37.5 -53t-40.5 -47q-11 -10 -22 -18q-15 -11 -54 -23q-33 -8 -59 -11.5t-59 5.5q-28 7 -53 34q-32 37 -60 96q-35 68 -70.5 180.5t-64.5 235t-47.5 239.5t-16.5 194q0 39 8 83t38 69q33 30 126 51.5t111 -56.5q4 -21 2.5 -44
t-1.5 -44q-5 -142 22 -313t87 -389q150 226 178.5 369t41.5 186.5t97.5 48.5t98.5 -39t47 -172q41 -164 169 -397q75 220 103 391.5t22 313.5q1 22 -1 44.5t3 43.5q18 79 117 60.5t134 -47.5q31 -25 39 -68.5t8 -83.5q2 -77 -17 -194t-49 -240t-67.5 -235.5t-72.5 -181.5
q-29 -59 -62 -96q-26 -28 -56 -35q-34 -9 -59.5 -8.5t-58.5 6.5q-40 12 -56 23q-12 7 -23 17q-21 22 -41.5 47.5t-40.5 51.5q-49 73 -134 325zM790 1593q2 -2 14 -8q20 -13 36.5 -29.5t33.5 -32.5q6 -6 18 -19q12 -12 17 -18q16 -18 17 -19q3 -5 7 -10t8 -9l15 -21
q7 -10 15 -22q7 -14 12 -23q6 -13 7 -22q4 -18 -8 -28q-26 -21 -58 -30q-6 -1 -14 -1q-6 0 -10 3q-5 1 -7 5q-2 2 -7 9q-28 47 -84 105q-16 14 -33 32t-34 35q-11 -13 -29 -39q-21 -30 -46.5 -65.5t-35.5 -66.5q-1 -3 -2 -5.5t-2 -4.5q-6 -11 -4 -9q-8 -9 -25 -7
q-14 1 -36 9q-19 7 -33 19q-16 12 -17 23q-2 15 5 36q8 20 20 38.5t26 37.5q4 4 7.5 9.5t6.5 10.5q8 11 16 20q3 4 7 9l8 10q5 7 17 20t18 19q13 14 20 20q12 11 22 18q12 9 24 16q20 10 36 5q30 -5 52 -20z" />
    <glyph glyph-name="wcircumflex" unicode="&#x175;" horiz-adv-x="1019" 
d="M511 325q-55 -166 -86 -214q-12 -18 -25.5 -35.5t-27.5 -31.5q-7 -7 -14 -11q-11 -8 -37 -16q-21 -5 -38.5 -7.5t-40.5 3.5q-19 5 -35 23q-22 24 -41 64q-23 46 -46.5 121t-43 157t-32 160.5t-10.5 129.5q0 27 5 56t25 46q22 20 84.5 35t74.5 -38q3 -14 2 -29.5t-1 -29.5
q-4 -95 14 -209.5t58 -260.5q101 151 120 246.5t27.5 125t65.5 33t66 -26t31 -115.5q28 -110 114 -266q50 148 68.5 262.5t15.5 210.5q0 14 -1.5 29t2.5 29q12 53 78 41t90 -32q21 -17 26.5 -46t5.5 -56q1 -51 -11.5 -129.5t-33 -161t-45.5 -158t-49 -121.5q-19 -39 -41 -64
q-17 -19 -38 -23q-23 -7 -39.5 -6.5t-39.5 4.5q-27 8 -37 16q-8 5 -15 11q-15 14 -28.5 31.5t-26.5 34.5q-33 49 -90 218zM562 1183q2 -2 14 -8q20 -13 36.5 -29.5t33.5 -32.5q6 -6 18 -19q12 -12 17 -18q16 -18 17 -19q3 -5 7 -10t8 -9l15 -21q7 -10 15 -22q7 -14 12 -23
q6 -13 7 -22q4 -18 -8 -28q-26 -21 -58 -30q-6 -1 -14 -1q-6 0 -10 3q-5 1 -7 5q-2 2 -7 9q-28 47 -84 105q-16 14 -33 32t-34 35q-11 -13 -29 -39q-21 -30 -46.5 -65.5t-35.5 -66.5q-1 -3 -2 -5.5t-2 -4.5q-6 -11 -4 -9q-8 -9 -25 -7q-14 1 -36 9q-19 7 -33 19
q-16 12 -17 23q-2 15 5 36q8 20 20 38.5t26 37.5q4 4 7.5 9.5t6.5 10.5q8 11 16 20q3 4 7 9l8 10q5 7 17 20t18 19q13 14 20 20q12 11 22 18q12 9 24 16q20 10 36 5q30 -5 52 -20z" />
    <glyph glyph-name="Ycircumflex" unicode="&#x176;" horiz-adv-x="1069" 
d="M49 1070q33 42 58.5 61t72.5 49q51 18 103 -24q75 -61 126 -174t120 -181q22 -23 47 -8.5t43 31.5q50 47 97.5 132t80.5 145q20 37 44 53.5t71 -0.5q44 -18 74 -45.5t59 -64.5q32 -41 16 -109q-21 -87 -73 -172t-102 -158q-50 -75 -106.5 -144t-115.5 -137
q-53 -60 -107.5 -120t-118.5 -108q-68 -51 -125 -66q-44 -11 -102.5 14.5t-81.5 55t-46.5 62.5t1.5 63q20 24 59 48.5t66 53.5q24 25 47.5 41.5t63.5 71.5q78 86 -3 176q-32 45 -90.5 109.5t-93.5 105.5q-25 29 -49.5 60.5t-41.5 66.5q-17 31 -17.5 55.5t24.5 56.5z
M588 1593q2 -2 14 -8q20 -13 36.5 -29.5t33.5 -32.5q6 -6 18 -19q12 -12 17 -18q16 -18 17 -19q3 -5 7 -10t8 -9l15 -21q7 -10 15 -22q7 -14 12 -23q6 -13 7 -22q4 -18 -8 -28q-26 -21 -58 -30q-6 -1 -14 -1q-6 0 -10 3q-5 1 -7 5q-2 2 -7 9q-28 47 -84 105q-16 14 -33 32
t-34 35q-11 -13 -29 -39q-21 -30 -46.5 -65.5t-35.5 -66.5q-1 -3 -2 -5.5t-2 -4.5q-6 -11 -4 -9q-8 -9 -25 -7q-14 1 -36 9q-19 7 -33 19q-16 12 -17 23q-2 15 5 36q8 20 20 38.5t26 37.5q4 4 7.5 9.5t6.5 10.5q8 11 16 20q3 4 7 9l8 10q5 7 17 20t18 19q13 14 20 20
q12 11 22 18q12 9 24 16q20 10 36 5q30 -5 52 -20z" />
    <glyph glyph-name="ycircumflex" unicode="&#x177;" horiz-adv-x="870" 
d="M44 702q27 42 47.5 61t58.5 49q42 18 84 -24q61 -61 102.5 -174t97.5 -181q17 -23 37.5 -8.5t34.5 31.5q41 47 79.5 132t65.5 145q16 37 35.5 53.5t57.5 -0.5q36 -18 60.5 -45.5t47.5 -64.5q26 -41 13 -109q-17 -87 -59.5 -172t-81.5 -158q-42 -75 -87.5 -144t-92.5 -137
l-88 -120t-96 -108q-55 -51 -102 -66q-35 -11 -82.5 14.5t-66.5 55t-37.5 62.5t1.5 63q16 24 47.5 48.5t53.5 53.5q20 25 38.5 41.5t51.5 71.5q63 86 -2 176q-26 45 -73.5 109.5t-76.5 105.5q-20 29 -39.5 60.5t-33.5 66.5q-14 31 -14.5 55.5t19.5 56.5zM489 1183
q2 -2 14 -8q20 -13 36.5 -29.5t33.5 -32.5q6 -6 18 -19q12 -12 17 -18q16 -18 17 -19q3 -5 7 -10t8 -9l15 -21q7 -10 15 -22q7 -14 12 -23q6 -13 7 -22q4 -18 -8 -28q-26 -21 -58 -30q-6 -1 -14 -1q-6 0 -10 3q-5 1 -7 5q-2 2 -7 9q-28 47 -84 105q-16 14 -33 32t-34 35
q-11 -13 -29 -39q-21 -30 -46.5 -65.5t-35.5 -66.5q-1 -3 -2 -5.5t-2 -4.5q-6 -11 -4 -9q-8 -9 -25 -7q-14 1 -36 9q-19 7 -33 19q-16 12 -17 23q-2 15 5 36q8 20 20 38.5t26 37.5q4 4 7.5 9.5t6.5 10.5q8 11 16 20q3 4 7 9l8 10q5 7 17 20t18 19q13 14 20 20q12 11 22 18
q12 9 24 16q20 10 36 5q30 -5 52 -20z" />
    <glyph glyph-name="Ydieresis" unicode="&#x178;" horiz-adv-x="1069" 
d="M49 1070q33 42 58.5 61t72.5 49q51 18 103 -24q75 -61 126 -174t120 -181q22 -23 47 -8.5t43 31.5q50 47 97.5 132t80.5 145q20 37 44 53.5t71 -0.5q44 -18 74 -45.5t59 -64.5q32 -41 16 -109q-21 -87 -73 -172t-102 -158q-50 -75 -106.5 -144t-115.5 -137
q-53 -60 -107.5 -120t-118.5 -108q-68 -51 -125 -66q-44 -11 -102.5 14.5t-81.5 55t-46.5 62.5t1.5 63q20 24 59 48.5t66 53.5q24 25 47.5 41.5t63.5 71.5q78 86 -3 176q-32 45 -90.5 109.5t-93.5 105.5q-25 29 -49.5 60.5t-41.5 66.5q-17 31 -17.5 55.5t24.5 56.5z
M412 1527q47 0 76 -33q28 -32 28 -74q0 -52 -34 -82q-30 -25 -70 -25q-43 0 -73 30q-30 31 -30 77q0 49 35 80q31 27 68 27zM678 1532q48 0 77 -34q27 -30 27 -73q0 -51 -34 -81q-29 -26 -69 -26q-43 0 -74 30q-30 28 -30 76q0 51 35 81q31 27 68 27z" />
    <glyph glyph-name="Zacute" unicode="&#x179;" horiz-adv-x="1114" 
d="M140 288q10 14 24.5 27.5t27.5 26.5q113 118 256 289t213 394q-115 -25 -317.5 -51t-246.5 12q-30 25 -51.5 94.5t53.5 90.5q27 7 111 21q63 10 175 25q47 5 95 11t92 11q89 9 151.5 21t143.5 -21q16 -6 40 -18q76 -40 88.5 -88t-5.5 -130q-26 -117 -120 -298.5
t-343 -434.5q283 47 407 102q19 8 39.5 17.5t40.5 13.5q76 13 84 -75t-9 -129q-16 -37 -53.5 -60t-73.5 -37q-141 -59 -331.5 -79t-332.5 -8q-65 5 -102 20q-55 21 -76 117t20 136zM778 1362q-160 -56 -293 -80q-14 -2 -22 14q-21 56 -10 103q5 33 18 41q58 37 115.5 75.5
t117.5 68.5q30 15 44 -7q51 -91 64 -170q5 -30 -34 -45z" />
    <glyph glyph-name="zacute" unicode="&#x17a;" horiz-adv-x="788" 
d="M103 205q7 10 17.5 19.5t19.5 18.5q79 83 179.5 202.5t149.5 276.5q-81 -18 -223 -36t-173 9q-21 17 -36 66t37 63q20 5 78 15q45 7 123 17q33 4 66.5 8t64.5 8q62 7 106 15t101 -15q12 -4 28 -12q54 -28 62.5 -62t-4.5 -92q-18 -81 -84 -208.5t-240 -305.5
q198 33 285 72q13 6 27.5 12.5t29.5 9.5q52 9 58 -53t-6 -90q-11 -26 -37.5 -42t-51.5 -27q-99 -41 -232.5 -55t-233.5 -6q-46 5 -71 15q-39 14 -53.5 81.5t13.5 95.5zM613 952q-160 -56 -293 -80q-14 -2 -22 14q-21 56 -10 103q5 33 18 41q58 37 115.5 75.5t117.5 68.5
q30 15 44 -7q51 -91 64 -170q5 -30 -34 -45z" />
    <glyph glyph-name="Zcaron" unicode="&#x17d;" horiz-adv-x="1114" 
d="M140 288q10 14 24.5 27.5t27.5 26.5q113 118 256 289t213 394q-115 -25 -317.5 -51t-246.5 12q-30 25 -51.5 94.5t53.5 90.5q27 7 111 21q63 10 175 25q47 5 95 11t92 11q89 9 151.5 21t143.5 -21q16 -6 40 -18q76 -40 88.5 -88t-5.5 -130q-26 -117 -120 -298.5
t-343 -434.5q283 47 407 102q19 8 39.5 17.5t40.5 13.5q76 13 84 -75t-9 -129q-16 -37 -53.5 -60t-73.5 -37q-141 -59 -331.5 -79t-332.5 -8q-65 5 -102 20q-55 21 -76 117t20 136zM515 1281l-15 10q-21 15 -38.5 33t-34.5 35q-7 8 -19 22q-12 13 -18 20q-17 21 -17 22
q-4 5 -8.5 10.5t-8.5 10.5q-5 7 -15 23q-8 10 -15 24q-8 14 -12 24q-6 15 -8 25q-3 19 10 30q30 21 65 29h15q8 0 11 -3q5 -1 7 -6q2 -2 7 -10q29 -51 88 -115q17 -17 34.5 -36.5t35.5 -39.5q12 14 34 41q23 31 52.5 68t42.5 70q1 4 2 6.5t2 5.5q6 10 5 8q9 9 27 7
q15 -1 39 -11q21 -9 35 -22q17 -14 18 -26q1 -17 -8 -39q-9 -20 -23 -39.5t-29 -39.5q-4 -4 -8.5 -9.5t-8.5 -11.5q-10 -12 -18 -20q-3 -5 -8 -10t-9 -11q-6 -6 -20 -19q-13 -14 -20 -21q-15 -13 -22 -20q-13 -11 -25 -18q-13 -9 -27 -16q-23 -10 -40 -6q-32 8 -55 25z" />
    <glyph glyph-name="zcaron" unicode="&#x17e;" horiz-adv-x="788" 
d="M103 205q7 10 17.5 19.5t19.5 18.5q79 83 179.5 202.5t149.5 276.5q-81 -18 -223 -36t-173 9q-21 17 -36 66t37 63q20 5 78 15q45 7 123 17q33 4 66.5 8t64.5 8q62 7 106 15t101 -15q12 -4 28 -12q54 -28 62.5 -62t-4.5 -92q-18 -81 -84 -208.5t-240 -305.5
q198 33 285 72q13 6 27.5 12.5t29.5 9.5q52 9 58 -53t-6 -90q-11 -26 -37.5 -42t-51.5 -27q-99 -41 -232.5 -55t-233.5 -6q-46 5 -71 15q-39 14 -53.5 81.5t13.5 95.5zM349 871l-15 10q-21 15 -38.5 33t-34.5 35q-7 8 -19 22q-12 13 -18 20q-17 21 -17 22q-4 5 -8.5 10.5
t-8.5 10.5q-5 7 -15 23q-8 10 -15 24q-8 14 -12 24q-6 15 -8 25q-3 19 10 30q30 21 65 29h15q8 0 11 -3q5 -1 7 -6q2 -2 7 -10q29 -51 88 -115q17 -17 34.5 -36.5t35.5 -39.5q12 14 34 41q23 31 52.5 68t42.5 70q1 4 2 6.5t2 5.5q6 10 5 8q9 9 27 7q15 -1 39 -11
q21 -9 35 -22q17 -14 18 -26q1 -17 -8 -39q-9 -20 -23 -39.5t-29 -39.5q-4 -4 -8.5 -9.5t-8.5 -11.5q-10 -12 -18 -20q-3 -5 -8 -10t-9 -11q-6 -6 -20 -19q-13 -14 -20 -21q-15 -13 -22 -20q-13 -11 -25 -18q-13 -9 -27 -16q-23 -10 -40 -6q-32 8 -55 25z" />
    <glyph glyph-name="circumflex" unicode="&#x2c6;" horiz-adv-x="556" 
d="M308 1183q2 -2 14 -8q20 -13 36.5 -29.5t33.5 -32.5q6 -6 18 -19q12 -12 17 -18q16 -18 17 -19q3 -5 7 -10t8 -9l15 -21q7 -10 15 -22q7 -14 12 -23q6 -13 7 -22q4 -18 -8 -28q-26 -21 -58 -30q-6 -1 -14 -1q-6 0 -10 3q-5 1 -7 5q-2 2 -7 9q-28 47 -84 105
q-16 14 -33 32t-34 35q-11 -13 -29 -39q-21 -30 -46.5 -65.5t-35.5 -66.5q-1 -3 -2 -5.5t-2 -4.5q-6 -11 -4 -9q-8 -9 -25 -7q-14 1 -36 9q-19 7 -33 19q-16 12 -17 23q-2 15 5 36q8 20 20 38.5t26 37.5q4 4 7.5 9.5t6.5 10.5q8 11 16 20q3 4 7 9l8 10q5 7 17 20t18 19
q13 14 20 20q12 11 22 18q12 9 24 16q20 10 36 5q30 -5 52 -20z" />
    <glyph glyph-name="caron" unicode="&#x2c7;" horiz-adv-x="588" 
d="M243 871l-15 10q-21 15 -38.5 33t-34.5 35q-7 8 -19 22q-12 13 -18 20q-17 21 -17 22q-4 5 -8.5 10.5t-8.5 10.5q-5 7 -15 23q-8 10 -15 24q-8 14 -12 24q-6 15 -8 25q-3 19 10 30q30 21 65 29h15q8 0 11 -3q5 -1 7 -6q2 -2 7 -10q29 -51 88 -115q17 -17 34.5 -36.5
t35.5 -39.5q12 14 34 41q23 31 52.5 68t42.5 70q1 4 2 6.5t2 5.5q6 10 5 8q9 9 27 7q15 -1 39 -11q21 -9 35 -22q17 -14 18 -26q1 -17 -8 -39q-9 -20 -23 -39.5t-29 -39.5q-4 -4 -8.5 -9.5t-8.5 -11.5q-10 -12 -18 -20q-3 -5 -8 -10t-9 -11q-6 -6 -20 -19q-13 -14 -20 -21
q-15 -13 -22 -20q-13 -11 -25 -18q-13 -9 -27 -16q-23 -10 -40 -6q-32 8 -55 25z" />
    <glyph glyph-name="gravecomb" unicode="&#x300;" horiz-adv-x="0" 
d="M-539 1195q141 -92 242 -183q11 -10 2 -26q-31 -50 -74 -71q-30 -16 -43 -11q-66 23 -131.5 45.5t-126.5 51.5q-30 14 -21 38q40 96 95 155q21 23 57 1z" />
    <glyph glyph-name="acutecomb" unicode="&#x301;" horiz-adv-x="0" 
d="M-334 952q-160 -56 -293 -80q-14 -2 -22 14q-21 56 -10 103q5 33 18 41q58 37 115.5 75.5t117.5 68.5q30 15 44 -7q51 -91 64 -170q5 -30 -34 -45z" />
    <glyph glyph-name="uni0302" unicode="&#x302;" horiz-adv-x="0" 
d="M-503 1183q2 -2 14 -8q20 -13 36.5 -29.5t33.5 -32.5q6 -6 18 -19q12 -12 17 -18q16 -18 17 -19q3 -5 7 -10t8 -9l15 -21q7 -10 15 -22q7 -14 12 -23q6 -13 7 -22q4 -18 -8 -28q-26 -21 -58 -30q-6 -1 -14 -1q-6 0 -10 3q-5 1 -7 5q-2 2 -7 9q-28 47 -84 105
q-16 14 -33 32t-34 35q-11 -13 -29 -39q-21 -30 -46.5 -65.5t-35.5 -66.5q-1 -3 -2 -5.5t-2 -4.5q-6 -11 -4 -9q-8 -9 -25 -7q-14 1 -36 9q-19 7 -33 19q-16 12 -17 23q-2 15 5 36q8 20 20 38.5t26 37.5q4 4 7.5 9.5t6.5 10.5q8 11 16 20q3 4 7 9l8 10q5 7 17 20t18 19
q13 14 20 20q12 11 22 18q12 9 24 16q20 10 36 5q30 -5 52 -20z" />
    <glyph glyph-name="tildecomb" unicode="&#x303;" horiz-adv-x="0" 
d="M-118 986q-17 -35 -42 -62q-32 -35 -72 -52q-38 -17 -83 -17q-28 0 -57 18q-30 19 -57 57q-30 37 -53 57q-25 18 -42 18q-23 0 -43 -9q-19 -10 -35 -31q-15 -19 -21 -33q-16 -37 -21.5 -51t-39.5 23l-30 33q-15 12 -7 60t13 60q15 37 45 70q28 32 62 50q32 17 69 17
q19 0 45 -19q25 -20 53 -57q30 -39 52 -55q34 -27 72.5 -15.5t69.5 37.5q39 32 50 69t59 -24l25 -31q22 -4 7 -54t-19 -59z" />
    <glyph glyph-name="uni0304" unicode="&#x304;" horiz-adv-x="0" 
d="M-152 946q-57 14 -116 19.5t-117 6.5q-64 0 -139 2t-134 -13q-7 -1 -20 -4q-6 -1 -17 -1q-18 0 -28 26q-10 24 -13 58q-1 34 7 63q7 32 26 44q22 17 62 25q38 8 77 8h77q12 0 22.5 -0.5t22.5 -0.5q10 0 20.5 -1t22.5 -1q10 -1 21 -1.5t22 -1.5q12 -2 44 -6q31 -4 44 -6
q31 -5 46 -10q27 -5 46 -12q22 -8 42 -18q31 -18 37 -45q13 -61 -1 -106q-3 -11 -8 -18t-11 -8q-5 -2 -16 -2q-5 0 -19 3z" />
    <glyph glyph-name="uni0305" unicode="&#x305;" horiz-adv-x="0" 
d="M1759 1721q-81 17 -164.5 24t-165.5 8q-91 0 -198 2t-191 -15q-10 -2 -28 -5q-9 -1 -24 -1q-26 0 -40 31q-15 28 -18 69q-2 41 9 76q11 38 37 53q31 20 88 30q54 9 109.5 9h110.5q16 0 31.5 -0.5t31.5 -0.5q14 0 29.5 -1t31.5 -1q15 -2 30.5 -2.5t30.5 -1.5l63 -7
q44 -5 63 -8q44 -6 65 -11q38 -7 65 -15q32 -10 60 -22q44 -21 53 -53q18 -73 -1 -127q-5 -14 -12 -22t-16 -10q-7 -2 -22 -2q-8 0 -28 3z" />
    <glyph glyph-name="uni0306" unicode="&#x306;" horiz-adv-x="0" 
d="M-415 899q-23 2 -46 8q-23 5 -46 15q-24 11 -48 25q-25 15 -49 33q-7 6 -14.5 12.5t-15.5 11.5q-7 6 -13 12.5t-13 11.5q-5 7 -11 13l-12 12q-16 20 -28 36t27 44q3 1 6.5 3t6.5 4q-2 -1 13 10l15 9q49 33 62.5 20.5t56.5 -44.5q4 -4 8.5 -7l7.5 -5q8 -7 15 -11
q18 -11 27 -15q19 -9 26 -11q11 -4 27 -8q14 -2 27 -3q9 -1 22 1q8 1 24 6q13 5 25 12q15 7 26 17q0 -1 10 7q11 8 19 14q11 9 27 21q27 20 41 26.5t35 -23.5q6 -8 12 -17t14 -19q4 -6 7.5 -12t7.5 -11q0 -2 3 -4q1 -1 6 -9q0 1 10 -15q17 -26 13.5 -35t-37.5 -35
q-7 -6 -30 -21q-12 -9 -34 -21q-21 -12 -40 -19q-22 -10 -49 -19q-30 -9 -48 -13q-21 -4 -47 -6t-46 -1z" />
    <glyph glyph-name="uni0307" unicode="&#x307;" horiz-adv-x="0" 
d="M-234 1067q0 -56 -43 -92q-37 -30 -91 -30q-64 0 -101 38q-34 34 -34 83q0 52 38 87q36 37 95 37q64 0 102 -41q34 -38 34 -82z" />
    <glyph glyph-name="uni0308" unicode="&#x308;" horiz-adv-x="0" 
d="M-667 1117q47 0 76 -33q28 -32 28 -74q0 -52 -34 -82q-30 -25 -70 -25q-43 0 -73 30q-30 31 -30 77q0 49 35 80q31 27 68 27zM-401 1122q48 0 77 -34q27 -30 27 -73q0 -51 -34 -81q-29 -26 -69 -26q-43 0 -74 30q-30 28 -30 76q0 51 35 81q31 27 68 27z" />
    <glyph glyph-name="uni030C" unicode="&#x30c;" horiz-adv-x="0" 
d="M-578 871l-15 10q-21 15 -38.5 33t-34.5 35q-7 8 -19 22q-12 13 -18 20q-17 21 -17 22q-4 5 -8.5 10.5t-8.5 10.5q-5 7 -15 23q-8 10 -15 24q-8 14 -12 24q-6 15 -8 25q-3 19 10 30q30 21 65 29h15q8 0 11 -3q5 -1 7 -6q2 -2 7 -10q29 -51 88 -115q17 -17 34.5 -36.5
t35.5 -39.5q12 14 34 41q23 31 52.5 68t42.5 70q1 4 2 6.5t2 5.5q6 10 5 8q9 9 27 7q15 -1 39 -11q21 -9 35 -22q17 -14 18 -26q1 -17 -8 -39q-9 -20 -23 -39.5t-29 -39.5q-4 -4 -8.5 -9.5t-8.5 -11.5q-10 -12 -18 -20q-3 -5 -8 -10t-9 -11q-6 -6 -20 -19q-13 -14 -20 -21
q-15 -13 -22 -20q-13 -11 -25 -18q-13 -9 -27 -16q-23 -10 -40 -6q-32 8 -55 25z" />
    <glyph glyph-name="tonos" unicode="&#x384;" horiz-adv-x="428" 
d="M349 952q-160 -56 -293 -80q-14 -2 -22 14q-21 56 -10 103q5 33 18 41q58 37 115.5 75.5t117.5 68.5q30 15 44 -7q51 -91 64 -170q5 -30 -34 -45z" />
    <glyph glyph-name="dieresistonos" unicode="&#x385;" horiz-adv-x="833" 
d="M238 1117q47 0 76 -33q28 -32 28 -74q0 -52 -34 -82q-30 -25 -70 -25q-43 0 -73 30q-30 31 -30 77q0 49 35 80q31 27 68 27zM504 1122q48 0 77 -34q27 -30 27 -73q0 -51 -34 -81q-29 -26 -69 -26q-43 0 -74 30q-30 28 -30 76q0 51 35 81q31 27 68 27zM647 1192
q-160 -56 -293 -80q-14 -2 -22 14q-21 56 -10 103q5 33 18 41q58 37 115.5 75.5t117.5 68.5q30 15 44 -7q51 -91 64 -170q5 -30 -34 -45z" />
    <glyph glyph-name="Alphatonos" unicode="&#x386;" 
d="M246 1130q-160 -56 -293 -80q-14 -2 -22 14q-21 56 -10 103q5 33 18 41q58 37 115.5 75.5t117.5 68.5q30 15 44 -7q51 -91 64 -170q5 -30 -34 -45zM768 314q-87 -28 -208.5 -44.5t-195.5 -12.5q-19 -89 -29 -162q-10 -69 -47.5 -81.5t-92.5 -2.5q-38 7 -70 24.5t-63 42.5
q-25 21 -34 59q-8 28 -9 60t1 61q4 81 32.5 206.5t70.5 257.5t92.5 253t98.5 195q23 38 57.5 76t81.5 48q47 9 124 -3t115 -44q67 -36 139.5 -162.5t134 -278t105.5 -296.5t54 -218q10 -72 3 -121q-7 -41 -30 -61q-29 -28 -59.5 -45.5t-67.5 -27.5q-54 -15 -92.5 -5.5
t-52.5 77.5q-23 91 -58 205zM375 439q173 -3 361 43q-86 228 -196 434q-94 -220 -165 -477z" />
    <glyph glyph-name="Epsilontonos" unicode="&#x388;" horiz-adv-x="1606" 
d="M349 952q-160 -56 -293 -80q-14 -2 -22 14q-21 56 -10 103q5 33 18 41q58 37 115.5 75.5t117.5 68.5q30 15 44 -7q51 -91 64 -170q5 -30 -34 -45zM547 1170q19 8 40 13.5t42 12.5q134 45 323.5 71.5t340.5 5.5q38 -6 80 -18.5t67 -42.5q27 -34 44.5 -127.5t-59.5 -98.5
q-21 -2 -43 2t-42 7q-196 21 -317 16.5t-250 -27.5q-4 -167 3 -261q109 13 209 23t137 9q89 -2 85.5 -75t-37.5 -102q-27 -37 -139.5 -58t-224.5 -30q24 -159 47 -237q19 1 42.5 3t53.5 5q117 9 256 29t234 50q10 2 20.5 6t20.5 8q24 6 42 8q39 2 56 -30.5t21 -76.5
q5 -40 -24 -91q-17 -29 -59 -52q-28 -15 -77 -29q-74 -22 -187 -37t-233 -21q-73 -5 -190 -11.5t-176 17.5q-43 17 -67.5 57t-39.5 78q-30 73 -51.5 188.5t-33 239t-11.5 238.5t15 188q13 65 35 105q17 31 47 45z" />
    <glyph glyph-name="Etatonos" unicode="&#x389;" horiz-adv-x="1652" 
d="M349 952q-160 -56 -293 -80q-14 -2 -22 14q-21 56 -10 103q5 33 18 41q58 37 115.5 75.5t117.5 68.5q30 15 44 -7q51 -91 64 -170q5 -30 -34 -45zM822 462q42 -176 82 -268q8 -21 18 -43.5t14 -44.5q5 -41 -34 -62.5t-92.5 -29.5t-88 -3t-57.5 16q-42 17 -67 59t-40 82
q-31 77 -55 198t-39 251.5t-18.5 252t7.5 198.5q9 66 30 112q14 31 43 48q32 17 52.5 22.5t57.5 5.5q54 -1 85.5 -19.5t28.5 -84.5q-10 -220 32 -460q131 17 255.5 33t195.5 23q-5 107 -2.5 204.5t14.5 165.5q7 42 23 87.5t54 71.5q20 14 71.5 28t87 17t77.5 -11t46 -55
q0 -23 -5 -47t-9 -46q-44 -211 -27 -479.5t72 -487.5q15 -64 -12.5 -89t-79.5 -35q-36 -7 -63 -9t-62 9q-31 9 -52 39q-29 40 -51 104q-31 89 -66 304q-75 -24 -213 -38.5t-213 -18.5z" />
    <glyph glyph-name="Iotatonos" unicode="&#x38a;" horiz-adv-x="1081" 
d="M349 952q-160 -56 -293 -80q-14 -2 -22 14q-21 56 -10 103q5 33 18 41q58 37 115.5 75.5t117.5 68.5q30 15 44 -7q51 -91 64 -170q5 -30 -34 -45zM433 184q1 63 65 63q8 0 39.5 -1.5t42.5 -1.5q-5 72 -8 222q0 72 5 179q6 94 15 179q20 170 40 228q-44 4 -53 5
q-10 1 -69 6q-7 0 -20 2q-3 0 -16 3q-31 6 -43 40q-11 28 7 73t32 63q21 24 90 34q65 8 147 5q81 -3 153 -12q66 -9 107 -17q7 -1 22 -8q8 -4 21 -12l20 -15q5 -4 19 -16q6 -6 30 -98q-2 -54 -40 -59t-76 -4q-20 0 -70 2q-17 -157 -23 -232q-7 -73 -11 -173q-4 -87 0 -171
q5 -154 13 -227q46 -7 62 -9q11 -1 22.5 -2t20.5 -1q15 -2 36 -4q8 -1 14 -2.5t11 -1.5q30 -7 44 -41l-10 -88q-12 -38 -24 -52q-20 -24 -90 -34q-32 -5 -70 -5.5t-77 0.5q-72 1 -154 12q-62 7 -107 16q-15 5 -21 9q-6 2 -22 12q-7 5 -20 15q1 -1 -18 15q-6 4 -21.5 48
t-14.5 56z" />
    <glyph glyph-name="Omicrontonos" unicode="&#x38c;" horiz-adv-x="1622" 
d="M349 952q-160 -56 -293 -80q-14 -2 -22 14q-21 56 -10 103q5 33 18 41q58 37 115.5 75.5t117.5 68.5q30 15 44 -7q51 -91 64 -170q5 -30 -34 -45zM492 730q32 64 71.5 123.5t92.5 110.5q22 23 45 43q141 126 321 174q155 42 297 1q69 -20 136 -73t102 -117
q22 -42 32 -89.5t15 -93.5q13 -162 -29 -293q-27 -79 -77 -153.5t-104 -133.5q-81 -89 -185 -149.5t-224 -72.5q-121 -10 -234 29q-86 30 -160.5 83.5t-114.5 136.5q-38 81 -43 189q-6 156 59 285zM753 592q-15 -100 80 -224.5t219 -85.5q80 26 105.5 88.5t14.5 137.5
q-13 84 -74 147t-132 83.5t-134 -11.5t-79 -135z" />
    <glyph glyph-name="Upsilontonos" unicode="&#x38e;" horiz-adv-x="1497" 
d="M349 952q-160 -56 -293 -80q-14 -2 -22 14q-21 56 -10 103q5 33 18 41q58 37 115.5 75.5t117.5 68.5q30 15 44 -7q51 -91 64 -170q5 -30 -34 -45zM477 1070q33 42 58.5 61t72.5 49q51 18 103 -24q75 -61 126 -174t120 -181q22 -23 47 -8.5t43 31.5q50 47 97.5 132
t80.5 145q20 37 44 53.5t71 -0.5q44 -18 74 -45.5t59 -64.5q32 -41 16 -109q-21 -87 -73 -172t-102 -158q-50 -75 -106.5 -144t-115.5 -137q-53 -60 -107.5 -120t-118.5 -108q-68 -51 -125 -66q-44 -11 -102.5 14.5t-81.5 55t-46.5 62.5t1.5 63q20 24 59 48.5t66 53.5
q24 25 47.5 41.5t63.5 71.5q78 86 -3 176q-32 45 -90.5 109.5t-93.5 105.5q-25 29 -49.5 60.5t-41.5 66.5q-17 31 -17.5 55.5t24.5 56.5z" />
    <glyph glyph-name="Omegatonos" unicode="&#x38f;" horiz-adv-x="1782" 
d="M349 952q-160 -56 -293 -80q-14 -2 -22 14q-21 56 -10 103q5 33 18 41q58 37 115.5 75.5t117.5 68.5q30 15 44 -7q51 -91 64 -170q5 -30 -34 -45zM923 45q-16 -29 -67 -28q-217 2 -387 23q-19 3 -23 19q-17 54 7 91q14 26 32 28l118 22q-1 1 -2 3q-21 32 -35 64
q-41 84 -45 169t7 168q14 111 59 211q35 81 91 153t135 125q145 99 320 127q269 47 439 -146q87 -97 127.5 -216t54.5 -230q10 -92 6.5 -188t-27.5 -186q-8 -30 -17 -55q72 -10 143 -21q22 -2 41 -28q29 -37 8 -91q-5 -16 -29 -19q-212 -21 -483 -23q-63 -1 -65 28
q2 66 50 150q2 31 14 61q11 31 22 59q23 60 23.5 166t-38 201t-127 174.5t-309.5 11.5q-109 -32 -160.5 -144.5t-44.5 -230.5q5 -90 108 -173q82 -66 85.5 -139.5t-31.5 -135.5z" />
    <glyph glyph-name="iotadieresistonos" unicode="&#x390;" horiz-adv-x="337" 
d="M32.5 549q15.5 154 49 211.5t66.5 54.5q33 -2 63 -7q27 -6 43 -11q4 -1 10 -5q3 -2 8 -8l9 -9q2 -2 7 -10q3 -4 5 -12l4 -20q0 -2 3 -19q1 -12 -12.5 -189.5t16.5 -412.5q-1 -25 -6 -49t-10 -33q-9 -14 -37 -21q-13 -3 -28.5 -3.5t-31.5 0.5q-30 1 -64 7q-25 4 -44 11
q-5 3 -8 5q-3 1 -9 8q-3 2 -8 9q0 -1 -7 10q-3 2 -5 12q-2 7 -5 20q-1 10 -12.5 158.5t4 302.5zM-6 1117q47 0 76 -33q28 -32 28 -74q0 -52 -34 -82q-30 -25 -70 -25q-43 0 -73 30q-30 31 -30 77q0 49 35 80q31 27 68 27zM260 1122q48 0 77 -34q27 -30 27 -73q0 -51 -34 -81
q-29 -26 -69 -26q-43 0 -74 30q-30 28 -30 76q0 51 35 81q31 27 68 27zM403 1192q-160 -56 -293 -80q-14 -2 -22 14q-21 56 -10 103q5 33 18 41q58 37 115.5 75.5t117.5 68.5q30 15 44 -7q51 -91 64 -170q5 -30 -34 -45z" />
    <glyph glyph-name="Alpha" unicode="&#x391;" 
d="M768 314q-87 -28 -208.5 -44.5t-195.5 -12.5q-19 -89 -29 -162q-10 -69 -47.5 -81.5t-92.5 -2.5q-38 7 -70 24.5t-63 42.5q-25 21 -34 59q-8 28 -9 60t1 61q4 81 32.5 206.5t70.5 257.5t92.5 253t98.5 195q23 38 57.5 76t81.5 48q47 9 124 -3t115 -44
q67 -36 139.5 -162.5t134 -278t105.5 -296.5t54 -218q10 -72 3 -121q-7 -41 -30 -61q-29 -28 -59.5 -45.5t-67.5 -27.5q-54 -15 -92.5 -5.5t-52.5 77.5q-23 91 -58 205zM375 439q173 -3 361 43q-86 228 -196 434q-94 -220 -165 -477z" />
    <glyph glyph-name="Beta" unicode="&#x392;" horiz-adv-x="1258" 
d="M171 1204q81 15 169.5 25t171.5 15q47 2 93 2q47 1 92 -2q49 -4 86 -9q43 -7 72 -15q35 -12 54 -23q71 -44 114 -107t11 -146q-3 -8 -6 -14q-28 -63 -84 -114q-5 -5 -15 -13q-5 -4 -17 -12q6 -3 12.5 -5t12.5 -4l12 -4l12 -4q61 -25 110 -58q6 -4 19 -14q50 -38 92.5 -88
t56.5 -112q4 -17 5 -34q7 -139 -78.5 -223t-206.5 -129q-44 -16 -106 -32q-66 -18 -120 -27q-82 -15 -167.5 -28t-168.5 -25q-13 -3 -39 -4h-20h-20q-72 0 -119.5 17t-80.5 80q-18 35 -30 73t-20 76q-39 164 -51.5 349t2.5 354q5 49 12 86q0 3 1 6t1 8q0 2 1.5 5.5t2.5 7.5
q1 5 3 14q3 10 4 14q12 36 29.5 63t56.5 41q5 1 10 2.5t10 3.5q12 3 21 4zM383 838q0 -1 0.5 -3t0.5 -3q0 -2 0.5 -4t0.5 -3q-1 2 2 -7q9 -37 57 -35t83 13q4 1 7 1q1 0 2.5 1t3.5 2q7 2 8 2q63 25 99.5 82t1.5 112q-2 2 -2 3q-1 0 -2 0.5t-1 1.5q-42 53 -134 53q-3 0 -5 -1
h-4.5h-1.5h-3.5h-2.5q-2 0 -3 -0.5t-2 -0.5q-19 -2 -50.5 -10.5t-39.5 -22.5q-1 0 -1.5 -1l-0.5 -1q0 -2 -0.5 -3l-0.5 -1q-1 -1 -1.5 -2l-0.5 -1q0 -1 -0.5 -2l-0.5 -1q0 -1 -2 -3q0 -3 -1 -4q0 -2 -2 -3q-2 -35 -3 -69.5t-1 -69.5v-10v-10zM482 199q14 -2 31 -2
q13 -1 47 1q59 2 124 14.5t115 43.5q86 52 72 142q-2 7 -2 9l-2 4t-1 5q-19 62 -76.5 93.5t-133.5 31.5q-28 0 -57 -3q-59 -4 -110 -16q-25 -7 -44 -13q-21 -8 -29 -16q-11 -9 -9 -18v0v0v0v0v0v0v0v0v0v0v0v0v0v0v0v0q1 -13 7 -37q18 -91 45 -175q5 -18 12 -33
q3 -7 5.5 -15.5t5.5 -15.5z" />
    <glyph glyph-name="Gamma" unicode="&#x393;" horiz-adv-x="1052" 
d="M254 1240q134 27 318.5 28.5t325.5 -42.5q35 -10 73.5 -28.5t57.5 -53.5q20 -39 20 -125t-73 -81q-20 1 -40.5 8.5t-39.5 13.5q-132 42 -275.5 57t-269.5 9q-15 -98 -16 -410.5t31 -442.5q5 -21 11.5 -44t6.5 -45q-2 -41 -44.5 -55.5t-97.5 -13.5t-80 11t-47 24
q-39 23 -56.5 67t-26.5 85q-18 79 -23 199.5t1 248t22.5 245t40.5 189.5q21 64 47 101q21 29 52 40q19 5 40 8t42 7z" />
    <glyph glyph-name="uni0394" unicode="&#x394;" 
d="M195 11q-38 7 -70 24.5t-63 42.5q-25 21 -34 59q-8 28 -9 60t1 61q4 81 32.5 206.5t70.5 257.5t92.5 253t98.5 195q23 38 57.5 76t81.5 48q47 9 124 -3t115 -44q67 -36 139.5 -162.5t134 -278t105.5 -296.5t54 -218q10 -72 3 -121q-7 -41 -30 -61q-29 -28 -59.5 -45.5
t-67.5 -27.5q-54 -15 -387.5 -25.5t-388.5 -0.5zM338 250q173 -3 458 57q-74 357 -256 609q-94 -220 -202 -666z" />
    <glyph glyph-name="Epsilon" unicode="&#x395;" horiz-adv-x="1178" 
d="M119 1170q19 8 40 13.5t42 12.5q134 45 323.5 71.5t340.5 5.5q38 -6 80 -18.5t67 -42.5q27 -34 44.5 -127.5t-59.5 -98.5q-21 -2 -43 2t-42 7q-196 21 -317 16.5t-250 -27.5q-4 -167 3 -261q109 13 209 23t137 9q89 -2 85.5 -75t-37.5 -102q-27 -37 -139.5 -58
t-224.5 -30q24 -159 47 -237q19 1 42.5 3t53.5 5q117 9 256 29t234 50q10 2 20.5 6t20.5 8q24 6 42 8q39 2 56 -30.5t21 -76.5q5 -40 -24 -91q-17 -29 -59 -52q-28 -15 -77 -29q-74 -22 -187 -37t-233 -21q-73 -5 -190 -11.5t-176 17.5q-43 17 -67.5 57t-39.5 78
q-30 73 -51.5 188.5t-33 239t-11.5 238.5t15 188q13 65 35 105q17 31 47 45z" />
    <glyph glyph-name="Zeta" unicode="&#x396;" horiz-adv-x="1114" 
d="M140 288q10 14 24.5 27.5t27.5 26.5q113 118 256 289t213 394q-115 -25 -317.5 -51t-246.5 12q-30 25 -51.5 94.5t53.5 90.5q27 7 111 21q63 10 175 25q47 5 95 11t92 11q89 9 151.5 21t143.5 -21q16 -6 40 -18q76 -40 88.5 -88t-5.5 -130q-26 -117 -120 -298.5
t-343 -434.5q283 47 407 102q19 8 39.5 17.5t40.5 13.5q76 13 84 -75t-9 -129q-16 -37 -53.5 -60t-73.5 -37q-141 -59 -331.5 -79t-332.5 -8q-65 5 -102 20q-55 21 -76 117t20 136z" />
    <glyph glyph-name="Eta" unicode="&#x397;" horiz-adv-x="1224" 
d="M394 462q42 -176 82 -268q8 -21 18 -43.5t14 -44.5q5 -41 -34 -62.5t-92.5 -29.5t-88 -3t-57.5 16q-42 17 -67 59t-40 82q-31 77 -55 198t-39 251.5t-18.5 252t7.5 198.5q9 66 30 112q14 31 43 48q32 17 52.5 22.5t57.5 5.5q54 -1 85.5 -19.5t28.5 -84.5
q-10 -220 32 -460q131 17 255.5 33t195.5 23q-5 107 -2.5 204.5t14.5 165.5q7 42 23 87.5t54 71.5q20 14 71.5 28t87 17t77.5 -11t46 -55q0 -23 -5 -47t-9 -46q-44 -211 -27 -479.5t72 -487.5q15 -64 -12.5 -89t-79.5 -35q-36 -7 -63 -9t-62 9q-31 9 -52 39q-29 40 -51 104
q-31 89 -66 304q-75 -24 -213 -38.5t-213 -18.5z" />
    <glyph glyph-name="Theta" unicode="&#x398;" horiz-adv-x="1197" 
d="M59 730q26 64 60.5 123.5t83.5 110.5q20 23 41 43q130 126 306 174q151 42 297 1q71 -20 142.5 -73t111.5 -117q26 -42 40 -89.5t23 -93.5q27 -162 -4 -293q-20 -79 -63.5 -153.5t-92.5 -133.5q-73 -89 -172 -149.5t-218 -72.5q-120 -10 -236 29q-89 30 -168 83.5
t-126 136.5q-45 81 -60 189q-19 156 35 285zM385 710q-80 -139 -22 -312t253 -118q127 36 199.5 122.5t101.5 190.5q32 117 -15.5 204.5t-134 116t-192.5 -16t-190 -187.5zM468 512q-10 -2 -13 -2q-5 0 -11 2q-5 3 -8 10q-4 6 -8 18q-6 23 -8 51.5t-1 52.5q2 25 22 39
q11 8 27 16l30 9q9 2 30 6q8 0 15 1t15 2q19 2 29 2h29q10 0 30 -1q9 -1 29 -3q26 -1 52.5 -4.5t53.5 -13.5q27 -11 45 -29q12 -14 20 -45q8 -27 10 -62q2 -34 -3 -55q-5 -24 -17 -23q-5 0 -12 2q-4 2 -14 6q-41 19 -92 22.5t-95 7.5q-39 2 -78.5 1t-76.5 -10z" />
    <glyph glyph-name="Iota" unicode="&#x399;" horiz-adv-x="653" 
d="M5 184q1 63 65 63q8 0 39.5 -1.5t42.5 -1.5q-5 72 -8 222q0 72 5 179q6 94 15 179q20 170 40 228q-44 4 -53 5q-10 1 -69 6q-7 0 -20 2q-3 0 -16 3q-31 6 -43 40q-11 28 7 73t32 63q21 24 90 34q65 8 147 5q81 -3 153 -12q66 -9 107 -17q7 -1 22 -8q8 -4 21 -12l20 -15
q5 -4 19 -16q6 -6 30 -98q-2 -54 -40 -59t-76 -4q-20 0 -70 2q-17 -157 -23 -232q-7 -73 -11 -173q-4 -87 0 -171q5 -154 13 -227q46 -7 62 -9q11 -1 22.5 -2t20.5 -1q15 -2 36 -4q8 -1 14 -2.5t11 -1.5q30 -7 44 -41l-10 -88q-12 -38 -24 -52q-20 -24 -90 -34
q-32 -5 -70 -5.5t-77 0.5q-72 1 -154 12q-62 7 -107 16q-15 5 -21 9q-6 2 -22 12q-7 5 -20 15q1 -1 -18 15q-6 4 -21.5 48t-14.5 56z" />
    <glyph glyph-name="Kappa" unicode="&#x39a;" horiz-adv-x="1161" 
d="M337 856q133 202 196.5 281t140.5 131q32 22 72 41.5t76 13.5q42 -7 119.5 -75t22.5 -124q-14 -16 -33 -28t-36 -23q-101 -66 -172.5 -143.5t-140.5 -161.5q49 -36 131 -101.5t167 -134.5t156 -130.5t96 -88.5q57 -66 -30 -149t-131 -91q-43 -8 -105.5 40.5t-125 104.5
t-126 122t-139.5 133q-69 56 -101 64q48 -218 100 -340q8 -21 18.5 -43.5t12.5 -44.5q5 -41 -33.5 -62.5t-92 -29.5t-85 -4.5t-54.5 14.5q-42 17 -67 59.5t-39 81.5q-32 77 -56 198.5t-38.5 252t-18 252t7.5 198.5q11 69 30 111q16 33 43 48q32 17 57.5 21.5t62.5 4.5
q53 -1 84.5 -19.5t29.5 -84.5q-6 -88 1 -294z" />
    <glyph glyph-name="Lambda" unicode="&#x39b;" horiz-adv-x="1186" 
d="M916 122q-51 181 -127.5 395t-230.5 452q-124 -285 -175.5 -492.5t-80.5 -379.5q-10 -68 -43.5 -81t-82.5 -3q-33 8 -59 23.5t-53 39.5q-22 22 -29 59q-10 49 -4 120q6 83 34 208t68.5 256.5t88 253t90.5 194.5q22 37 54 75t73 47q74 18 180 -23.5t154 -100.5
q53 -65 114 -174.5t116 -231.5t98 -240.5t57 -197.5q13 -72 10 -121q-3 -38 -22 -63q-23 -30 -43 -45t-54 -29q-46 -20 -80.5 -13.5t-52.5 72.5z" />
    <glyph glyph-name="Mu" unicode="&#x39c;" horiz-adv-x="1491" 
d="M758 734q82 248 129 319q18 27 37.5 53t41.5 47q10 10 21 18q15 11 54 23q33 8 59 11.5t59 -5.5q28 -7 53 -34q33 -37 60 -96q35 -68 70.5 -180.5t64.5 -235t47.5 -239.5t16.5 -194q0 -39 -8 -83t-37 -69q-34 -30 -127 -51.5t-111 56.5q-4 21 -2.5 44t1.5 44
q5 142 -22 313t-87 389q-150 -226 -178.5 -369t-41.5 -186.5t-97.5 -48.5t-98.5 39t-46 172q-41 164 -170 397q-75 -220 -103 -391.5t-22 -313.5q-1 -22 1 -44.5t-3 -43.5q-18 -79 -117 -60.5t-134 47.5q-31 25 -39 68.5t-8 83.5q-2 77 17 194t49 240t67.5 235.5t72.5 181.5
q29 59 62 96q26 28 56 35q34 9 59.5 8.5t58.5 -6.5q41 -12 56 -23q12 -7 23 -17q21 -22 41.5 -47.5t40.5 -51.5q49 -73 134 -325z" />
    <glyph glyph-name="Nu" unicode="&#x39d;" horiz-adv-x="1194" 
d="M527 1075q113 -142 309 -546q12 327 29 397t36 118q24 59 52 95q22 27 50 35q34 8 51 7t50 -9q49 -12 74 -36.5t8 -83.5q-60 -206 -86 -457.5t6 -452.5q3 -22 7 -44.5t3 -42.5q-4 -39 -44.5 -50.5t-91 -7t-98.5 19.5t-67 30q-32 23 -46 63.5t-19 78.5v0v0
q-78 157 -158.5 307t-253.5 377q-29 -165 -35.5 -336t15.5 -313q3 -22 7.5 -44.5t2.5 -43.5q-9 -79 -106 -62.5t-135 46.5q-35 25 -48.5 69t-18.5 83q-11 77 -6.5 193.5t19.5 239.5t38.5 235.5t50.5 180.5q21 59 51 96q22 27 51 34q33 9 85.5 -3t123.5 -79.5t94 -93.5z" />
    <glyph glyph-name="Xi" unicode="&#x39e;" horiz-adv-x="1080" 
d="M350 263q23 -1 53 0q118 -3 258.5 2t237.5 25q10 1 21 4t21 5q25 4 43 4q39 -2 52.5 -36.5t12.5 -78.5q1 -40 -33 -87q-20 -28 -65 -46q-29 -12 -79 -20q-75 -15 -189 -18t-234 4q-56 2 -227.5 29.5t-171.5 123.5t300 89zM219.5 1220.5q171.5 31.5 266.5 40.5
q190 18 340 -11q38 -7 79 -22t65 -47q25 -35 38 -129t-64 -96q-22 -1 -43.5 4.5t-40.5 9.5q-196 30 -317 31q-109 2 -299.5 -9.5t-193 93t169 136zM407.5 752q175.5 1 254.5 2q101 1 138 -3q88 -9 78.5 -81.5t-45.5 -98.5q-31 -35 -145 -46q-95 -9 -275.5 -10t-180.5 117.5
t175.5 119.5z" />
    <glyph glyph-name="Omicron" unicode="&#x39f;" horiz-adv-x="1194" 
d="M64 730q32 64 71.5 123.5t92.5 110.5q22 23 45 43q141 126 321 174q155 42 297 1q69 -20 136 -73t102 -117q22 -42 32 -89.5t15 -93.5q13 -162 -29 -293q-27 -79 -77 -153.5t-104 -133.5q-81 -89 -185 -149.5t-224 -72.5q-121 -10 -234 29q-86 30 -160.5 83.5
t-114.5 136.5q-38 81 -43 189q-6 156 59 285zM325 592q-15 -100 80 -224.5t219 -85.5q80 26 105.5 88.5t14.5 137.5q-13 84 -74 147t-132 83.5t-134 -11.5t-79 -135z" />
    <glyph glyph-name="Pi" unicode="&#x3a0;" horiz-adv-x="1224" 
d="M380 955q56 -669 96 -761q8 -21 18 -43.5t14 -44.5q5 -41 -34 -62.5t-92.5 -29.5t-88 -3t-57.5 16q-42 17 -67 59t-40 82q-31 77 -55 198t-39 251.5t-18.5 252t7.5 198.5q9 66 30 112q14 31 43 48q32 17 52.5 22.5t57.5 5.5q809 63 844.5 66t77.5 -11t46 -55
q0 -23 -5 -47t-9 -46q-44 -211 -27 -479.5t72 -487.5q15 -64 -12.5 -89t-79.5 -35q-36 -7 -63 -9t-62 9q-31 9 -52 39q-29 40 -51 104q-31 89 -80 788q-81 8 -219 -6.5t-207 -41.5z" />
    <glyph glyph-name="Rho" unicode="&#x3a1;" horiz-adv-x="1097" 
d="M22 990q8 43 11 50q10 37 44 57q13 8 55 27q97 43 209 61q114 19 228 9q119 -10 218 -53q107 -47 180 -127q35 -38 63 -87q28 -56 40 -102q14 -56 8 -106q-13 -123 -151 -216.5t-233 -117.5q-104 -26 -252 -21q-6 1 -17 -2t-18 -6q-10 -5 -20 -12q-22 -17 -35 -57
q-11 -36 -15 -84q-2 -30 -2 -88q0 -21 1 -39t2 -31q1 -14 -1 -25q-3 -10 -10 -15q-8 -6 -17 -6q-14 -2 -24 -2q-40 0 -87 6.5t-79 30.5q-9 5 -17 16q-14 17 -28 70q-12 41 -24 107q-12 52 -20 111q-10 61 -11 77v10q-1 3 -1.5 5.5t-0.5 4.5q0 7 -1 10q0 2 -0.5 4t-0.5 5
q-3 31 -6 63.5t-4 65.5q-5 60 -6 137q0 82 5 138q5 77 17 132zM687 922q-104 44 -261 11q-16 -6 -26 -10q-37 -18 -57 -58q-15 -33 -14 -102t19 -98q13 -18 25 -27q34 -31 136 -29q53 -1 113.5 8t103.5 48q25 25 39 55q14 31 14 66q-2 76 -70 124q-10 7 -22 12z" />
    <glyph glyph-name="uni03A2" unicode="&#x3a2;" horiz-adv-x="1148" 
d="M705 130.5q-100 -20.5 -185 -6.5t-184 54t-178 120q-157 159 -110 394q31 152 120 277q47 69 109.5 115.5t130.5 74.5q87 37 181 47q71 6 142 -0.5t142 -46.5q25 -12 52 -33q38 -28 101.5 -110t-3.5 -145q-138 -123 -205 -29.5t-144 101.5q-99 10 -195 -31.5t-127 -136.5
q-64 -141 0 -222.5t143 -118t155.5 -32.5t153 19.5t103.5 15.5q214 8 195.5 -236.5t-127.5 -458.5q-12 -41 -43 -33q-121 35 -202 98q-30 23 -9 73q137 230 110.5 250.5t-126.5 0z" />
    <glyph glyph-name="Sigma" unicode="&#x3a3;" horiz-adv-x="1178" 
d="M119 1170q19 8 40 13.5t42 12.5q134 45 323.5 71.5t340.5 5.5q38 -6 80 -18.5t67 -42.5q27 -34 44.5 -127.5t-59.5 -98.5q-21 -2 -43 2t-42 7q-196 21 -317 16.5t-250 -27.5q221 -151 301 -199.5t76.5 -121.5t-37.5 -102q-27 -37 -126.5 -156.5t-133.5 -151.5
q19 1 42.5 3t53.5 5q117 9 256 29t234 50q10 2 20.5 6t20.5 8q24 6 42 8q39 2 56 -30.5t21 -76.5q5 -40 -24 -91q-17 -29 -59 -52q-28 -15 -77 -29q-74 -22 -187 -37t-233 -21q-73 -5 -190 -11.5t-176 17.5q-43 17 -67.5 57t-39.5 78q-30 73 7.5 164t317.5 322
q-424 243 -406 368q13 65 35 105q17 31 47 45z" />
    </font>
</defs>
</svg>
